<?xml version="1.0" encoding="UTF-8" standalone="no"?>
<!-- Created with Inkscape (http://www.inkscape.org/) -->

<svg
   width="297mm"
   height="210mm"
   viewBox="0 0 297 210"
   version="1.1"
   id="svg912"
   sodipodi:docname="bonuts2.svg"
   inkscape:export-filename="O:\OneDrive\Документы\bonuts2.png"
   inkscape:export-xdpi="96"
   inkscape:export-ydpi="96"
   inkscape:version="1.1.1 (3bf5ae0d25, 2021-09-20)"
   xmlns:inkscape="http://www.inkscape.org/namespaces/inkscape"
   xmlns:sodipodi="http://sodipodi.sourceforge.net/DTD/sodipodi-0.dtd"
   xmlns="http://www.w3.org/2000/svg"
   xmlns:svg="http://www.w3.org/2000/svg">
  <sodipodi:namedview
     id="namedview914"
     pagecolor="#ffffff"
     bordercolor="#666666"
     borderopacity="1.0"
     inkscape:pageshadow="2"
     inkscape:pageopacity="0.0"
     inkscape:pagecheckerboard="0"
     inkscape:document-units="mm"
     showgrid="false"
     inkscape:zoom="0.40180524"
     inkscape:cx="245.14364"
     inkscape:cy="501.48674"
     inkscape:window-width="1920"
     inkscape:window-height="1017"
     inkscape:window-x="-8"
     inkscape:window-y="-8"
     inkscape:window-maximized="1"
     inkscape:current-layer="layer1" />
  <defs
     id="defs909" />
  <g
     inkscape:label="Слой 1"
     inkscape:groupmode="layer"
     id="layer1">
    <ellipse
       style="fill:none;stroke:#000000;stroke-width:0.352401"
       id="path7745"
       cx="74.538429"
       cy="50.607098"
       rx="12.282983"
       ry="12.192683"
       inkscape:export-filename="O:\OneDrive\Документы\bonuts.png"
       inkscape:export-xdpi="96"
       inkscape:export-ydpi="96" />
    <path
       style="fill:none;stroke:#000000;stroke-width:0.295669px;stroke-linecap:butt;stroke-linejoin:miter;stroke-opacity:1"
       d="m 55.287942,51.597593 c 0,0 -0.140143,-5.67572 2.2823,-6.1264 l 6.482191,-1.85695 1.911707,-1.4189"
       id="path7863"
       sodipodi:nodetypes="cccc"
       inkscape:export-filename="O:\OneDrive\Документы\bonuts.png"
       inkscape:export-xdpi="96"
       inkscape:export-ydpi="96" />
    <path
       style="fill:none;stroke:#000000;stroke-width:0.295669px;stroke-linecap:butt;stroke-linejoin:miter;stroke-opacity:1"
       d="m 85.042851,44.008463 5.421859,2.4608 c 1.5629,1.45534 3.75974,10.98391 4.71363,10.0602 l 0.52233,-3.6571 0.0423,-3.66635 0.20702,-3.5405 -0.5164,-2.32489 -0.63263,-2.86154 -1.90874,-3.07502 -2.175,-3.04218 -2.22617,-1.63219 -9.951504,-5.62641"
       id="path7865"
       sodipodi:nodetypes="cccccccccccc"
       inkscape:export-filename="O:\OneDrive\Документы\bonuts.png"
       inkscape:export-xdpi="96"
       inkscape:export-ydpi="96" />
    <path
       style="fill:none;stroke:#000000;stroke-width:0.295669px;stroke-linecap:butt;stroke-linejoin:miter;stroke-opacity:1"
       d="m 85.135425,72.193773 6.196745,-3.59569 2.50095,-0.96107 1.2603,-3.34482 c 0.28634,-1.24705 -2.07983,-3.93869 1.62372,-3.51712 v 0"
       id="path9733"
       sodipodi:nodetypes="cccccc"
       inkscape:export-filename="O:\OneDrive\Документы\bonuts.png"
       inkscape:export-xdpi="96"
       inkscape:export-ydpi="96" />
    <path
       style="fill:none;stroke:#000000;stroke-width:0.295669px;stroke-linecap:butt;stroke-linejoin:miter;stroke-opacity:1"
       d="m 52.749898,53.469663 c 0,0 0,0 0,0 z"
       id="path11157"
       inkscape:export-filename="O:\OneDrive\Документы\bonuts.png"
       inkscape:export-xdpi="96"
       inkscape:export-ydpi="96" />
    <path
       style="fill:none;stroke:#000000;stroke-width:0.295669px;stroke-linecap:butt;stroke-linejoin:miter;stroke-opacity:1"
       d="m 53.674614,53.910693 0.599283,-23.17711 4.53985,-4.43362 8.988901,-1.24141 7.082167,0.17734 4.968579,1.05204 8.015386,2.31752 3.66075,2.69661 4.92053,6.29672 0.97562,3.81117 0.33935,10.85355 0.0554,8.27589 -0.35236,4.31755 -3.77523,6.13101 -6.74451,2.89981 -2.386198,-0.10158 -10.127208,0.64011 -15.997804,0.60698 -3.899719,-0.0173 -0.80381,-8.56375 z"
       id="path11762"
       sodipodi:nodetypes="ccccccccccccccccccccc"
       inkscape:export-filename="O:\OneDrive\Документы\bonuts.png"
       inkscape:export-xdpi="96"
       inkscape:export-ydpi="96" />
    <ellipse
       style="fill:none;stroke:#000000;stroke-width:0.340069"
       id="path11802"
       cx="74.885597"
       cy="50.832027"
       rx="7.9968696"
       ry="8.0673723"
       inkscape:export-filename="O:\OneDrive\Документы\bonuts.png"
       inkscape:export-xdpi="96"
       inkscape:export-ydpi="96" />
    <path
       style="fill:none;stroke:#000000;stroke-width:0.295669px;stroke-linecap:butt;stroke-linejoin:miter;stroke-opacity:1"
       d="m 63.067632,55.211593 c -0.738625,2.26707 -0.316553,4.74023 -0.316553,4.74023 l 2.637937,1.44268 3.693115,0.30915"
       id="path12833"
       sodipodi:nodetypes="cccc"
       inkscape:export-filename="O:\OneDrive\Документы\bonuts.png"
       inkscape:export-xdpi="96"
       inkscape:export-ydpi="96" />
    <path
       style="fill:#666666;stroke:#000000;stroke-width:0.104276"
       d="m 72.313655,62.367913 c -2.313634,-0.44895 -4.462162,-1.57491 -6.183417,-3.24048 -1.783302,-1.7256 -3.010459,-4.00239 -3.436865,-6.37652 -0.346695,-1.93032 -0.127832,-4.54347 0.52168,-6.22869 0.607068,-1.57509 1.587233,-3.12721 2.388643,-3.78249 0.288282,-0.23571 0.500449,-0.46601 0.471488,-0.51178 -0.07555,-0.11938 0.98056,-1.03569 1.827402,-1.58549 3.356317,-2.17907 7.494558,-2.58968 11.169583,-1.10828 4.904901,1.97715 8.025761,7.12444 7.439821,12.27064 -0.32986,2.89708 -1.522224,5.3289 -3.591791,7.32542 -1.829876,1.76529 -3.800607,2.78503 -6.264405,3.24146 -1.041465,0.19295 -3.338637,0.19094 -4.342139,-0.004 z m 4.625726,-3.50415 c 2.455408,-0.64949 4.546322,-2.46253 5.500453,-4.76945 0.491067,-1.18731 0.615725,-1.84777 0.615725,-3.26229 0,-1.4145 -0.124658,-2.07497 -0.615725,-3.26228 -0.768583,-1.85831 -2.362084,-3.49194 -4.199996,-4.30579 -1.173959,-0.51985 -1.904766,-0.66466 -3.354243,-0.66466 -1.449477,0 -2.180285,0.14481 -3.354244,0.66466 -1.837909,0.81385 -3.43141,2.44748 -4.199994,4.30579 -0.49107,1.18731 -0.615724,1.84778 -0.615724,3.26228 0,1.41452 0.124654,2.07498 0.615724,3.26229 1.084056,2.62106 3.533704,4.50838 6.446304,4.96653 0.58476,0.092 2.526484,-0.029 3.16172,-0.19708 z"
       id="path14127"
       inkscape:export-filename="O:\OneDrive\Документы\bonuts.png"
       inkscape:export-xdpi="96"
       inkscape:export-ydpi="96" />
    <rect
       style="fill:#f9f9f9;stroke:#000000;stroke-width:0.274813"
       id="rect14644"
       width="3.5639443"
       height="1.3916538"
       x="2.5985143"
       y="68.047585"
       ry="0.69582689"
       inkscape:transform-center-x="0.65374281"
       inkscape:transform-center-y="0.54937276"
       transform="matrix(0.68118855,-0.73210802,0.81693516,0.57672953,0,0)"
       inkscape:export-filename="O:\OneDrive\Документы\bonuts.png"
       inkscape:export-xdpi="96"
       inkscape:export-ydpi="96" />
    <rect
       style="fill:#f9f9f9;stroke:#000000;stroke-width:0.274126"
       id="rect14644-3"
       width="3.5818222"
       height="1.3778003"
       x="82.362495"
       y="-18.801617"
       ry="0.68890017"
       inkscape:transform-center-x="0.63646914"
       inkscape:transform-center-y="-0.56839257"
       transform="matrix(0.82139774,0.57035581,-0.49385035,0.86954691,0,0)"
       inkscape:export-filename="O:\OneDrive\Документы\bonuts.png"
       inkscape:export-xdpi="96"
       inkscape:export-ydpi="96" />
    <rect
       style="fill:#f9f9f9;stroke:#000000;stroke-width:0.274822"
       id="rect14644-3-1"
       width="3.5728049"
       height="1.3882968"
       x="25.823286"
       y="91.411865"
       ry="0.69414842"
       inkscape:transform-center-x="0.70915369"
       inkscape:transform-center-y="0.47935911"
       transform="matrix(0.75420726,-0.65663643,0.75228027,0.65884322,0,0)"
       inkscape:export-filename="O:\OneDrive\Документы\bonuts.png"
       inkscape:export-xdpi="96"
       inkscape:export-ydpi="96" />
    <rect
       style="fill:#f9f9f9;stroke:#000000;stroke-width:0.274098"
       id="rect14644-3-1-3"
       width="3.5622842"
       height="1.3850708"
       x="87.660736"
       y="-3.7523468"
       ry="0.6925354"
       inkscape:transform-center-x="0.48354056"
       inkscape:transform-center-y="-0.69744605"
       transform="matrix(0.66655417,0.7454566,-0.68390504,0.72957104,0,0)"
       inkscape:export-filename="O:\OneDrive\Документы\bonuts.png"
       inkscape:export-xdpi="96"
       inkscape:export-ydpi="96" />
    <rect
       style="fill:#f9f9f9;stroke:#000000;stroke-width:0.274822"
       id="rect14644-3-1-3-1"
       width="3.5715306"
       height="1.3887906"
       x="-1.702814"
       y="106.88368"
       ry="0.6943953"
       inkscape:transform-center-x="0.70162741"
       inkscape:transform-center-y="0.48981311"
       transform="matrix(0.7441799,-0.66797924,0.76216276,0.64738545,0,0)"
       inkscape:export-filename="O:\OneDrive\Документы\bonuts.png"
       inkscape:export-xdpi="96"
       inkscape:export-ydpi="96" />
    <rect
       style="fill:#f9f9f9;stroke:#000000;stroke-width:0.274403"
       id="rect14644-3-1-3-1-6"
       width="3.5255654"
       height="1.4026107"
       x="-67.793823"
       y="92.948547"
       ry="0.70130533"
       inkscape:transform-center-x="0.13021709"
       inkscape:transform-center-y="0.83261876"
       transform="matrix(0.02958992,-0.99956212,0.99673427,-0.08075139,0,0)"
       inkscape:export-filename="O:\OneDrive\Документы\bonuts.png"
       inkscape:export-xdpi="96"
       inkscape:export-ydpi="96" />
    <path
       style="fill:none;fill-opacity:0.951807;stroke:none;stroke-width:0.515768;stroke-opacity:1"
       d="m 73.06422,58.216463 c -3.331439,-0.83413 -6.268338,-5.29555 -5.65127,-8.5848 0.737342,-3.93037 5.016042,-6.98616 8.790521,-6.27806 2.46516,0.46246 5.239115,3.03632 5.894165,5.469 1.483183,5.50812 -3.569115,10.76201 -9.033416,9.39386 z"
       id="path36920"
       inkscape:export-filename="O:\OneDrive\Документы\bonuts.png"
       inkscape:export-xdpi="96"
       inkscape:export-ydpi="96" />
    <path
       style="fill:#008000;fill-opacity:0;stroke:none;stroke-width:0.278802;stroke-opacity:1"
       d="m 56.886507,72.298573 c -1.665735,-1.72108 -1.813821,-2.46164 -1.937318,-9.68834 -0.06158,-3.6035 -0.01055,-7.55551 0.113394,-8.78223 l 0.225359,-2.23041 0.695172,1.24411 c 0.382344,0.68426 1.035197,1.43487 1.450786,1.66803 1.143748,0.64167 2.97221,-0.0518 3.635069,-1.37874 0.485063,-0.97098 0.487471,-0.95442 0.487902,3.35513 l 4.24e-4,4.33094 1.881907,0.72741 c 1.681726,0.65003 5.775707,1.55364 9.275825,2.04732 1.518946,0.21424 5.494615,-0.29298 7.075966,-0.90276 3.045452,-1.17436 6.216854,-4.5615 7.164737,-7.65214 0.60893,-1.98549 0.82521,-5.63675 0.45597,-7.69795 l -0.21351,-1.19183 1.32977,0.67384 c 1.31023,0.66394 1.3582,0.73678 3.26456,4.95565 1.99659,4.41855 3.32901,6.91711 3.88011,7.27599 0.17413,0.11339 0.47343,0.1487 0.66511,0.0785 0.19167,-0.0703 0.3485,-0.0202 0.3485,0.1113 0,0.13146 -0.44007,0.32158 -0.97792,0.42248 -1.29889,0.24368 -1.70853,0.98029 -1.94127,3.49075 -0.10599,1.14331 -0.36554,2.41297 -0.57678,2.82146 -0.95546,1.84766 -6.0427,5.42015 -8.910684,6.25748 -2.489036,0.7267 -6.508993,0.96041 -16.603675,0.96533 l -9.912449,0.005 z m 26.19,-1.58902 c 0.909048,-0.90904 1.085697,-1.26163 1.012706,-2.02131 -0.08121,-0.84514 -0.17453,-0.92729 -1.144349,-1.00734 -0.892215,-0.0736 -1.205611,0.0625 -2.021308,0.87823 -0.65745,0.65745 -0.965375,1.22327 -0.965375,1.77389 0,1.80699 1.506021,1.98884 3.118326,0.37653 z M 63.24844,66.503643 c 1.173517,-0.62805 0.09752,-3.21495 -1.748067,-4.20268 -0.721712,-0.38625 -1.895063,0.37082 -1.893634,1.2218 0.0016,0.95655 0.941159,2.27881 1.984438,2.79277 1.130488,0.55691 0.996554,0.54171 1.657263,0.18811 z m 29.10058,-5.90705 c 0.49815,-0.71121 0.58941,-3.30867 0.1454,-4.13831 -0.39151,-0.73156 -1.52766,-0.68735 -2.06539,0.0804 -0.65293,0.93219 -0.57444,3.3065 0.13446,4.06741 0.72239,0.7754 1.23771,0.77267 1.78553,-0.009 z"
       id="path38849" />
    <path
       style="fill:#008000;fill-opacity:0;stroke:none;stroke-width:0.278802;stroke-opacity:1"
       d="m 56.886507,72.298573 c -1.665735,-1.72108 -1.813821,-2.46164 -1.937318,-9.68834 -0.06158,-3.6035 -0.01055,-7.55551 0.113394,-8.78223 l 0.225359,-2.23041 0.695172,1.24411 c 0.382344,0.68426 1.035197,1.43487 1.450786,1.66803 1.143748,0.64167 2.97221,-0.0518 3.635069,-1.37874 0.485063,-0.97098 0.487471,-0.95442 0.487902,3.35513 l 4.24e-4,4.33094 1.881907,0.72741 c 1.681726,0.65003 5.775707,1.55364 9.275825,2.04732 1.518946,0.21424 5.494615,-0.29298 7.075966,-0.90276 3.045452,-1.17436 6.216854,-4.5615 7.164737,-7.65214 0.60893,-1.98549 0.82521,-5.63675 0.45597,-7.69795 l -0.21351,-1.19183 1.32977,0.67384 c 1.31023,0.66394 1.3582,0.73678 3.26456,4.95565 1.99659,4.41855 3.32901,6.91711 3.88011,7.27599 0.17413,0.11339 0.47343,0.1487 0.66511,0.0785 0.19167,-0.0703 0.3485,-0.0202 0.3485,0.1113 0,0.13146 -0.44007,0.32158 -0.97792,0.42248 -1.29889,0.24368 -1.70853,0.98029 -1.94127,3.49075 -0.10599,1.14331 -0.36554,2.41297 -0.57678,2.82146 -0.95546,1.84766 -6.0427,5.42015 -8.910684,6.25748 -2.489036,0.7267 -6.508993,0.96041 -16.603675,0.96533 l -9.912449,0.005 z m 26.19,-1.58902 c 0.909048,-0.90904 1.085697,-1.26163 1.012706,-2.02131 -0.08121,-0.84514 -0.17453,-0.92729 -1.144349,-1.00734 -0.892215,-0.0736 -1.205611,0.0625 -2.021308,0.87823 -0.65745,0.65745 -0.965375,1.22327 -0.965375,1.77389 0,1.80699 1.506021,1.98884 3.118326,0.37653 z M 63.24844,66.503643 c 1.173517,-0.62805 0.09752,-3.21495 -1.748067,-4.20268 -0.721712,-0.38625 -1.895063,0.37082 -1.893634,1.2218 0.0016,0.95655 0.941159,2.27881 1.984438,2.79277 1.130488,0.55691 0.996554,0.54171 1.657263,0.18811 z m 29.10058,-5.90705 c 0.49815,-0.71121 0.58941,-3.30867 0.1454,-4.13831 -0.39151,-0.73156 -1.52766,-0.68735 -2.06539,0.0804 -0.65293,0.93219 -0.57444,3.3065 0.13446,4.06741 0.72239,0.7754 1.23771,0.77267 1.78553,-0.009 z"
       id="path38888" />
    <path
       style="fill:#008000;fill-opacity:0;stroke:none;stroke-width:0.278802;stroke-opacity:1"
       d="m 56.886507,72.298573 c -1.665735,-1.72108 -1.813821,-2.46164 -1.937318,-9.68834 -0.06158,-3.6035 -0.01055,-7.55551 0.113394,-8.78223 l 0.225359,-2.23041 0.695172,1.24411 c 0.382344,0.68426 1.035197,1.43487 1.450786,1.66803 1.143748,0.64167 2.97221,-0.0518 3.635069,-1.37874 0.485063,-0.97098 0.487471,-0.95442 0.487902,3.35513 l 4.24e-4,4.33094 1.881907,0.72741 c 1.681726,0.65003 5.775707,1.55364 9.275825,2.04732 1.518946,0.21424 5.494615,-0.29298 7.075966,-0.90276 3.045452,-1.17436 6.216854,-4.5615 7.164737,-7.65214 0.60893,-1.98549 0.82521,-5.63675 0.45597,-7.69795 l -0.21351,-1.19183 1.32977,0.67384 c 1.31023,0.66394 1.3582,0.73678 3.26456,4.95565 1.99659,4.41855 3.32901,6.91711 3.88011,7.27599 0.17413,0.11339 0.47343,0.1487 0.66511,0.0785 0.19167,-0.0703 0.3485,-0.0202 0.3485,0.1113 0,0.13146 -0.44007,0.32158 -0.97792,0.42248 -1.29889,0.24368 -1.70853,0.98029 -1.94127,3.49075 -0.10599,1.14331 -0.36554,2.41297 -0.57678,2.82146 -0.95546,1.84766 -6.0427,5.42015 -8.910684,6.25748 -2.489036,0.7267 -6.508993,0.96041 -16.603675,0.96533 l -9.912449,0.005 z m 26.19,-1.58902 c 0.909048,-0.90904 1.085697,-1.26163 1.012706,-2.02131 -0.08121,-0.84514 -0.17453,-0.92729 -1.144349,-1.00734 -0.892215,-0.0736 -1.205611,0.0625 -2.021308,0.87823 -0.65745,0.65745 -0.965375,1.22327 -0.965375,1.77389 0,1.80699 1.506021,1.98884 3.118326,0.37653 z M 63.24844,66.503643 c 1.173517,-0.62805 0.09752,-3.21495 -1.748067,-4.20268 -0.721712,-0.38625 -1.895063,0.37082 -1.893634,1.2218 0.0016,0.95655 0.941159,2.27881 1.984438,2.79277 1.130488,0.55691 0.996554,0.54171 1.657263,0.18811 z m 29.10058,-5.90705 c 0.49815,-0.71121 0.58941,-3.30867 0.1454,-4.13831 -0.39151,-0.73156 -1.52766,-0.68735 -2.06539,0.0804 -0.65293,0.93219 -0.57444,3.3065 0.13446,4.06741 0.72239,0.7754 1.23771,0.77267 1.78553,-0.009 z"
       id="path38927" />
    <path
       style="fill:none;stroke:#000000;stroke-width:0.264583px;stroke-linecap:butt;stroke-linejoin:miter;stroke-opacity:1"
       d="m 55.60575,34.313433 -0.317808,17.28416 0.221567,16.49647 1.376998,4.20451 12.577965,-0.0661 8.950426,-0.0962 6.720527,0.0576 5.251625,-1.52242 2.35675,-0.89174 1.33762,-0.89174 1.65609,-2.67524 0.97963,-5.43756 0.0395,-8.83035 -0.57326,-11.46528 -3.88546,-6.75178 -3.3122,-2.86632 c 0,0 -3.566973,-1.65609 -4.395021,-2.03827 -0.828049,-0.38218 -6.051123,-1.71979 -6.051123,-1.71979 l -10.063972,-0.44587 -5.60525,0.50956 -5.28677,1.84719 z"
       id="path45356"
       sodipodi:nodetypes="ccccccc" />
    <path
       style="fill:#ff8300;fill-opacity:1;stroke:none;stroke-width:0.0888902;stroke-opacity:1"
       d="m 66.632992,61.313443 -1.160445,-0.10361 -1.195146,-0.6488 c -0.65733,-0.35685 -1.245146,-0.71246 -1.306258,-0.79025 -0.210489,-0.26794 -0.1056,-3.4902 0.125798,-3.86461 0.0276,-0.0447 0.189057,0.16937 0.358793,0.47561 1.12463,2.02911 2.746432,3.74347 4.559929,4.82018 l 0.400006,0.23748 -0.311116,-0.0112 c -0.171114,-0.006 -0.833316,-0.0578 -1.471561,-0.1148 z"
       id="path47736" />
    <path
       style="fill:#ff8200;fill-opacity:1;stroke:none;stroke-width:0.0888902;stroke-opacity:1"
       d="m 94.8359,56.194793 c -0.28396,-0.43361 -0.76758,-1.58 -1.34922,-3.19823 -1.50471,-4.18639 -2.07282,-5.57263 -2.59193,-6.3246 -0.2326,-0.33693 -0.45293,-0.44755 -4.672852,-2.34603 l -1.216274,-0.54718 -0.536991,-0.71264 c -1.693867,-2.24793 -4.414093,-3.96421 -7.297279,-4.60408 -0.999439,-0.22181 -3.643134,-0.27908 -4.666736,-0.10109 -1.808637,0.31449 -3.504261,0.98712 -5.014667,1.98927 -0.434523,0.2883 -1.246069,0.97948 -1.884453,1.60496 -0.616691,0.60423 -1.2567,1.19206 -1.422244,1.30629 -0.191287,0.132 -1.512026,0.55217 -3.623777,1.15285 -1.827534,0.51983 -3.427558,1.00006 -3.555608,1.06717 -0.215517,0.11295 -0.615769,0.50303 -0.89091,0.86826 -0.06351,0.0843 -0.210478,0.38432 -0.326591,0.66668 l -0.211115,0.51339 -0.0038,-0.75557 c -0.0021,-0.41556 0.04319,-3.3756 0.100661,-6.57787 l 0.104488,-5.82231 0.986134,-2.61212 0.986134,-2.61211 2.606451,-0.90989 2.606451,-0.90989 2.815852,-0.24898 2.815852,-0.24899 4.933407,0.22407 4.933407,0.22406 4.960212,2.81018 c 3.466248,1.96379 5.291548,3.05278 6.060298,3.61562 l 1.10008,0.80542 1.14793,1.62023 c 0.63137,0.89112 1.53833,2.24938 2.01547,3.01835 l 0.86753,1.39812 0.57305,2.55749 0.57305,2.55749 -0.0901,1.68892 c -0.0495,0.9289 -0.11286,2.58893 -0.14072,3.68894 -0.0357,1.40953 -0.11652,2.47243 -0.27377,3.60005 -0.12272,0.88002 -0.23437,1.63921 -0.24811,1.6871 -0.0137,0.0479 -0.0899,-0.0121 -0.16932,-0.13333 z m -5.1912,-12.17017 c 0.22118,-0.0841 1.62711,-1.25566 1.99354,-1.66122 0.23322,-0.25813 0.26326,-0.70381 0.0664,-0.98488 -0.16818,-0.2401 -0.67838,-0.41316 -1.00593,-0.34122 -0.22206,0.0488 -1.9301,1.44127 -2.21607,1.80667 -0.13651,0.17442 -0.14413,0.59132 -0.0152,0.83219 0.0991,0.18522 0.54665,0.42179 0.80945,0.4279 0.0824,0.002 0.2479,-0.0338 0.36784,-0.0794 z m -30.795696,-6.08928 c 0.406353,-0.21014 1.966552,-1.98966 1.966552,-2.243 0,-0.53145 -0.328022,-0.82232 -0.933348,-0.82764 l -0.444451,-0.004 -0.872154,0.9122 c -1.062634,1.11143 -1.175515,1.29852 -1.03688,1.71859 0.167879,0.50868 0.790224,0.71785 1.320281,0.44375 z m 20.545606,-4.27292 c 0.1723,-0.0891 0.292611,-0.24656 0.359839,-0.47095 0.175374,-0.58534 -0.0094,-0.84906 -1.151242,-1.64345 -1.365908,-0.95023 -1.558056,-1.00419 -2.031862,-0.57052 -0.155552,0.14237 -0.200003,0.28034 -0.200003,0.62079 0,0.36708 0.04095,0.47578 0.253675,0.67341 0.431731,0.40108 2.154083,1.52457 2.337225,1.52457 0.09544,0 0.290004,-0.0602 0.432368,-0.13385 z"
       id="path47775" />
    <path
       style="fill:#008000;fill-opacity:1;stroke:none;stroke-width:0.0888902;stroke-opacity:1"
       d="m 56.350815,70.054533 -0.674253,-2.07997 -0.108787,-8.34986 c -0.05983,-4.59242 -0.08167,-8.75249 -0.04852,-9.24458 0.122639,-1.8206 0.580539,-3.43477 1.169569,-4.12292 0.377406,-0.44091 0.36594,-0.43669 4.037838,-1.48654 1.637803,-0.46827 3.04082,-0.86951 3.117816,-0.89165 0.09357,-0.0269 -0.06069,0.3654 -0.465204,1.18304 -1.025221,2.07229 -1.374086,3.68573 -1.292254,5.97648 0.05149,1.44153 0.184612,2.24682 0.562472,3.4027 0.219795,0.67235 0.221903,0.7026 0.08673,1.24446 -0.328126,1.31535 -0.396803,4.00919 -0.111195,4.36162 0.05591,0.069 0.683379,0.4435 1.394364,0.83223 l 1.292702,0.70679 1.41845,0.11428 c 0.780147,0.0628 1.674839,0.12911 1.988202,0.14723 0.371665,0.0215 0.794903,0.12669 1.217347,0.30255 0.85363,0.35537 2.247254,0.68133 3.457424,0.80867 2.792317,0.29381 5.90616,-0.51798 8.29191,-2.16175 0.911371,-0.62793 2.219238,-1.89049 2.905411,-2.80476 1.033899,-1.37759 1.860029,-3.24253 2.232816,-5.04044 0.254687,-1.22832 0.236137,-3.60341 -0.03775,-4.83389 -0.245075,-1.10105 -0.633023,-2.2307 -1.051795,-3.06267 -0.26176,-0.52004 -0.281583,-0.59987 -0.137599,-0.55417 0.41987,0.13326 4.692171,2.11321 4.831051,2.23889 0.41202,0.37287 1.10661,1.98777 2.33574,5.43054 1.16158,3.25351 1.5685,4.1589 2.01943,4.49318 0.18056,0.13385 0.2725,0.15203 0.40643,0.0803 0.14888,-0.0797 0.21257,-0.36986 0.45562,-2.07576 0.23461,-1.64659 0.28229,-2.25467 0.28098,-3.58316 -7.9e-4,-0.88002 0.044,-2.50004 0.0998,-3.60006 l 0.10136,-2.00003 -0.57194,-2.54373 -0.57193,-2.54373 -0.8835,-1.43504 c -0.48593,-0.78928 -1.41106,-2.17865 -2.05585,-3.08749 l -1.17235,-1.65244 -1.13606,-0.83524 c -0.80819,-0.59419 -2.35056,-1.52105 -5.34426,-3.21156 -2.314509,-1.30697 -4.172964,-2.38806 -4.1299,-2.40242 0.04307,-0.0143 0.935508,0.21673 1.983208,0.51351 1.728105,0.48952 2.127665,0.64308 4.304943,1.6545 l 2.400039,1.1149 1.60002,1.3956 1.60002,1.39559 1.92951,3.3518 1.9295,3.35181 0.2708,5.3559 c 0.23015,4.5522 0.27075,6.05286 0.27053,10.00042 l -2.7e-4,4.64451 -0.51112,5.3e-4 c -1.48499,10e-4 -1.86941,0.59399 -1.41855,2.18653 0.38423,1.35716 0.40252,1.1704 -0.29781,3.04068 l -0.63587,1.69813 -1.07948,0.41336 c -1.38716,0.5312 -1.36945,0.5219 -4.72397,2.48095 l -2.844482,1.6612 -3.911169,-0.0295 c -2.151145,-0.0162 -8.454085,0.007 -14.006536,0.0505 l -10.095365,0.0799 -0.674254,-2.07997 z m 25.820449,0.60472 c 1.436754,-1.24304 1.596927,-1.4217 1.596319,-1.7806 -0.0011,-0.62659 -0.691203,-1.04062 -1.267172,-0.7602 -0.406619,0.19797 -2.016146,1.67255 -2.132666,1.95385 -0.232613,0.56158 0.261782,1.09038 0.959062,1.02581 0.292632,-0.0271 0.48269,-0.12587 0.844457,-0.43886 z m -19.268152,-4.64756 c 0.292862,-0.19189 0.444932,-0.67321 0.323108,-1.02268 -0.136891,-0.39268 -1.670437,-2.0981 -1.985383,-2.20789 -0.195974,-0.0683 -0.337942,-0.0601 -0.559051,0.0323 -0.360132,0.15047 -0.488462,0.37015 -0.488462,0.83617 0,0.39999 0.248552,0.75588 1.297826,1.8583 0.518465,0.54473 0.658569,0.64446 0.90537,0.64446 0.160592,0 0.388558,-0.0633 0.506592,-0.14062 z m 28.796358,-5.73984 c 0.46349,-0.21118 0.53261,-0.44767 0.56758,-1.94188 l 0.0322,-1.3778 -0.23594,-0.22058 c -0.29046,-0.27156 -0.84427,-0.28882 -1.12899,-0.0352 -0.35333,0.31474 -0.42947,0.66762 -0.42947,1.99031 0,1.21009 0.007,1.25856 0.21818,1.46955 0.23959,0.23959 0.60843,0.28325 0.97641,0.11559 z"
       id="path47888" />
    <path
       style="fill:#ff8700;fill-opacity:1;stroke:none;stroke-width:0.0888902;stroke-opacity:1"
       d="m 86.90483,71.421173 c 0.0489,-0.0465 1.08786,-0.661 2.30882,-1.36557 1.68298,-0.97118 2.52961,-1.40052 3.50024,-1.77503 l 1.2803,-0.49399 0.651,-1.72826 c 0.35805,-0.95055 0.65297,-1.86999 0.65538,-2.04322 0.002,-0.17323 -0.0928,-0.65323 -0.21155,-1.06668 -0.11876,-0.41345 -0.23957,-0.89173 -0.26846,-1.06284 -0.10547,-0.62468 0.31689,-0.96207 1.21774,-0.97278 0.33019,-0.004 0.42223,0.026 0.42223,0.13747 0,0.0784 -0.20119,1.25697 -0.4471,2.61912 l -0.4471,2.47664 -0.81248,1.29954 c -0.76923,1.23036 -0.84734,1.32306 -1.46717,1.74131 -0.94278,0.63619 -2.75947,1.29139 -6.29296,2.26961 -0.11421,0.0316 -0.14599,0.019 -0.0889,-0.0353 z"
       id="path47964" />
    <path
       style="fill:#666666;fill-opacity:1;stroke:none;stroke-width:0.0888902;stroke-opacity:1"
       d="m 54.322213,70.796823 -0.395649,-4.06673 -0.02994,-6.17787 c -0.02493,-5.14502 0.01879,-8.13952 0.261488,-17.91137 l 0.291424,-11.73351 0.760749,-0.78644 c 0.418412,-0.43254 1.432969,-1.42932 2.25457,-2.21506 l 1.493821,-1.42863 4.372933,-0.61217 4.372933,-0.61217 3.600054,0.0905 3.600053,0.0905 2.311146,0.48933 c 1.530184,0.32398 3.701921,0.8883 6.426958,1.67004 l 4.115817,1.18072 1.81394,1.33782 1.81395,1.33782 2.44384,3.12524 2.44384,3.12523 0.48799,1.93704 0.48797,1.93704 0.18424,6.04454 c 0.23647,7.75858 0.23967,12.43864 0.0104,15.16172 l -0.16892,2.00596 -1.85644,3.01633 -1.85645,3.01633 -3.32903,1.43607 -3.32904,1.43608 -1.333357,-0.0444 c -0.9726,-0.0324 -2.668148,0.0414 -6.266762,0.27271 -2.713372,0.1744 -6.533429,0.37853 -8.489014,0.45363 -1.955584,0.0751 -5.613258,0.21616 -8.128164,0.31347 -2.514906,0.0973 -5.336908,0.17693 -6.271118,0.17693 h -1.698561 z m 26.493641,1.56368 4.311174,0.0303 2.755592,-0.80452 c 3.32835,-0.97176 4.73674,-1.50038 5.65946,-2.12424 0.65733,-0.44443 0.71161,-0.50918 1.52458,-1.81863 l 0.84298,-1.35779 0.49776,-2.75559 0.49776,-2.7556 0.001,-4.66674 c 0.001,-3.9778 -0.0394,-5.48033 -0.27346,-10.17793 l -0.2746,-5.51119 -1.91267,-3.33338 c -1.05196,-1.83336 -2.00693,-3.43338 -2.12216,-3.55561 -0.11522,-0.12222 -0.90153,-0.81474 -1.74735,-1.53893 l -1.53786,-1.3167 -2.306962,-1.06584 c -2.387595,-1.1031 -2.805068,-1.24954 -6.182053,-2.16849 l -1.822172,-0.49587 -5.066741,-0.23241 -5.066742,-0.23242 -2.844487,0.24686 -2.844486,0.24686 -2.730509,0.9451 -2.730509,0.94511 -1.01719,2.75559 -1.017189,2.7556 -0.149283,8.66679 c -0.129391,7.51202 -0.135076,9.75643 -0.04266,16.8447 l 0.106621,8.17789 0.713088,2.21186 0.713087,2.21184 9.877373,-0.0785 c 5.432556,-0.0432 11.817402,-0.0648 14.18855,-0.0482 z"
       id="path48040" />
    <text
       xml:space="preserve"
       style="font-style:normal;font-weight:normal;font-size:87.0115px;line-height:1.25;font-family:sans-serif;fill:#4d4d4d;fill-opacity:1;stroke:none;stroke-width:0.453;stroke-miterlimit:4;stroke-dasharray:none"
       x="-1.7847618"
       y="70.46907"
       id="text2828"
       transform="scale(0.95558607,1.0464782)"><tspan
         sodipodi:role="line"
         id="tspan2826"
         style="font-size:87.0115px;fill:#4d4d4d;fill-opacity:1;stroke-width:0.453;stroke-miterlimit:4;stroke-dasharray:none"
         x="-1.7847618"
         y="70.46907">b</tspan></text>
    <text
       xml:space="preserve"
       style="font-style:normal;font-weight:normal;font-size:72.1888px;line-height:1.25;font-family:sans-serif;fill:#4d4d4d;fill-opacity:1;stroke:none;stroke-width:0.375982"
       x="111.31835"
       y="64.197777"
       id="text12370"
       transform="scale(0.8609383,1.1615234)"><tspan
         sodipodi:role="line"
         id="tspan12368"
         style="font-size:72.1888px;fill:#4d4d4d;stroke-width:0.375982"
         x="111.31835"
         y="64.197777">nuts</tspan></text>
  </g>
</svg>
