<?xml version="1.0" encoding="UTF-8" standalone="no"?>
<!-- Created with Inkscape (http://www.inkscape.org/) -->

<svg
   width="210mm"
   height="297mm"
   viewBox="0 0 210 297"
   version="1.1"
   id="svg5"
   inkscape:version="1.1.1 (3bf5ae0d25, 2021-09-20)"
   sodipodi:docname="bonuts.svg"
   inkscape:export-filename="O:\OneDrive\Документы\рисунок.png"
   inkscape:export-xdpi="96"
   inkscape:export-ydpi="96"
   xmlns:inkscape="http://www.inkscape.org/namespaces/inkscape"
   xmlns:sodipodi="http://sodipodi.sourceforge.net/DTD/sodipodi-0.dtd"
   xmlns="http://www.w3.org/2000/svg"
   xmlns:svg="http://www.w3.org/2000/svg">
  <sodipodi:namedview
     id="namedview7"
     pagecolor="#ffffff"
     bordercolor="#666666"
     borderopacity="1.0"
     inkscape:pageshadow="2"
     inkscape:pageopacity="0.0"
     inkscape:pagecheckerboard="0"
     inkscape:document-units="mm"
     showgrid="false"
     showguides="true"
     inkscape:guide-bbox="true"
     inkscape:zoom="2.9765182"
     inkscape:cx="21.669614"
     inkscape:cy="297.49524"
     inkscape:window-width="1920"
     inkscape:window-height="1017"
     inkscape:window-x="-8"
     inkscape:window-y="-8"
     inkscape:window-maximized="1"
     inkscape:current-layer="layer1" />
  <defs
     id="defs2" />
  <g
     inkscape:label="Слой 1"
     inkscape:groupmode="layer"
     id="layer1">
    <path
       id="path5765"
       style="fill:#f9f9f9;fill-opacity:0;stroke:#000000;stroke-width:0.295669"
       d="m 35.288493,54.4917 c 10.140902,0.433126 19.783528,6.716638 21.477494,8.410497 m 0,0 c 8.373495,8.466526 8.314054,11.068731 8.314054,11.068731 5.860246,17.762949 3.631276,27.443272 -2.87241,35.783372 -8.055732,10.44823 -24.469795,9.26718 -39.006501,9.51222 -5.552718,0 -9.241279,0.43302 -14.0183003,-0.14883 -3.0532644,-0.37189 -5.3504335,0.7615 -5.4703839,-2.40342 C 3.2013332,103.22848 3.0074433,74.141334 2.8775669,55.61991"
       sodipodi:nodetypes="ccccccssc"
       inkscape:export-filename="O:\OneDrive\Документы\bonuts.png"
       inkscape:export-xdpi="96"
       inkscape:export-ydpi="96" />
    <path
       id="path5765-8"
       style="fill:#f9f9f9;fill-opacity:0;stroke:#000000;stroke-width:0.151601"
       d="m 44.920108,84.364467 c 0,9.83671 -8.949333,17.810933 -19.988898,17.810933 -11.039564,0 -10.048475,-7.006238 -10.048474,-16.842937 -10e-7,-9.83671 -0.99109,-18.778918 10.048474,-18.778918 11.039565,0 19.988898,7.974223 19.988898,17.810922 z"
       sodipodi:nodetypes="sssss"
       inkscape:export-filename="O:\OneDrive\Документы\bonuts.png"
       inkscape:export-xdpi="96"
       inkscape:export-ydpi="96" />
    <path
       id="path5765-8-3"
       style="fill:#ffffff;fill-opacity:0;stroke:#000000;stroke-width:0.106589"
       d="m 38.259431,84.13588 c 0,7.895197 -5.511939,14.295518 -12.311255,14.295518 -6.799327,0 -6.188913,-5.623387 -6.188913,-13.518572 0,-7.895196 -0.610414,-15.072441 6.188913,-15.072441 6.799316,0 12.311255,6.400321 12.311255,14.295495 z"
       sodipodi:nodetypes="sssss"
       inkscape:export-filename="O:\OneDrive\Документы\bonuts.png"
       inkscape:export-xdpi="96"
       inkscape:export-ydpi="96" />
    <path
       id="path5765-8-9"
       style="fill:#f9f9f9;stroke:#000000;stroke-width:0.151601"
       d="m 100.44429,98.417003 c 0,9.836717 -8.949326,17.810937 -19.988888,17.810937 -11.039564,0 -10.048475,-7.00624 -10.048474,-16.842941 -10e-7,-9.83671 -0.99109,-18.778917 10.048474,-18.778917 11.039562,0 19.988888,7.974222 19.988888,17.810921 z"
       sodipodi:nodetypes="sssss"
       inkscape:export-filename="O:\OneDrive\Документы\bonuts.png"
       inkscape:export-xdpi="96"
       inkscape:export-ydpi="96" />
    <path
       id="path5765-8-3-8"
       style="fill:#f9f9f9;stroke:#000000;stroke-width:0.106589;fill-opacity:0"
       d="m 93.783614,98.188417 c 0,7.895193 -5.51193,14.295523 -12.311246,14.295523 -6.799327,0 -6.188913,-5.62339 -6.188913,-13.518578 0,-7.895196 -0.610414,-15.072441 6.188913,-15.072441 6.799316,0 12.311246,6.400321 12.311246,14.295496 z"
       sodipodi:nodetypes="sssss"
       inkscape:export-filename="O:\OneDrive\Документы\bonuts.png"
       inkscape:export-xdpi="96"
       inkscape:export-ydpi="96" />
    <ellipse
       style="fill:none;stroke:#000000;stroke-width:0.352401"
       id="path7745"
       cx="22.878572"
       cy="31.211037"
       rx="12.282983"
       ry="12.192683"
       inkscape:export-filename="O:\OneDrive\Документы\bonuts.png"
       inkscape:export-xdpi="96"
       inkscape:export-ydpi="96" />
    <path
       style="fill:none;stroke:#000000;stroke-width:0.295669px;stroke-linecap:butt;stroke-linejoin:miter;stroke-opacity:1"
       d="m 3.6280783,32.201532 c 0,0 -0.140143,-5.675718 2.2823001,-6.126396 l 6.4821906,-1.856951 1.911707,-1.418902"
       id="path7863"
       sodipodi:nodetypes="cccc"
       inkscape:export-filename="O:\OneDrive\Документы\bonuts.png"
       inkscape:export-xdpi="96"
       inkscape:export-ydpi="96" />
    <path
       style="fill:none;stroke:#000000;stroke-width:0.295669px;stroke-linecap:butt;stroke-linejoin:miter;stroke-opacity:1"
       d="m 33.382987,24.612401 5.421862,2.460802 c 1.5629,1.455337 3.759739,10.983906 4.713627,10.060197 l 0.522332,-3.657095 0.04234,-3.666351 L 44.29017,26.269457 43.773762,23.944564 43.141137,21.08302 41.2324,18.008004 39.057395,14.965821 36.831221,13.333627 26.879722,7.7072189"
       id="path7865"
       sodipodi:nodetypes="cccccccccccc"
       inkscape:export-filename="O:\OneDrive\Документы\bonuts.png"
       inkscape:export-xdpi="96"
       inkscape:export-ydpi="96" />
    <path
       style="fill:none;stroke:#000000;stroke-width:0.295669px;stroke-linecap:butt;stroke-linejoin:miter;stroke-opacity:1"
       d="m 33.475561,52.797716 6.196742,-3.595695 2.50095,-0.961065 1.260299,-3.344826 c 0.286347,-1.247051 -2.07983,-3.938688 1.623723,-3.517115 v 0"
       id="path9733"
       sodipodi:nodetypes="cccccc"
       inkscape:export-filename="O:\OneDrive\Документы\bonuts.png"
       inkscape:export-xdpi="96"
       inkscape:export-ydpi="96" />
    <path
       style="fill:none;stroke:#000000;stroke-width:0.295669px;stroke-linecap:butt;stroke-linejoin:miter;stroke-opacity:1"
       d="m 1.0900339,34.073599 c 0,0 0,0 0,0 z"
       id="path11157"
       inkscape:export-filename="O:\OneDrive\Документы\bonuts.png"
       inkscape:export-xdpi="96"
       inkscape:export-ydpi="96" />
    <path
       style="fill:none;stroke:#000000;stroke-width:0.295669px;stroke-linecap:butt;stroke-linejoin:miter;stroke-opacity:1"
       d="M 2.0147499,34.514638 2.6140327,11.337524 7.1538832,6.903901 16.142784,5.6624886 l 7.082167,0.1773434 4.968579,1.0520395 8.015388,2.3175142 3.660751,2.6966123 4.920525,6.296722 0.975623,3.811172 0.339348,10.853552 0.05543,8.275894 -0.352356,4.317544 -3.77523,6.131015 L 35.288493,54.4917 32.902298,54.390123 22.77509,55.030236 6.7772856,55.637211 2.8775669,55.61991 2.0737571,47.056161 Z"
       id="path11762"
       sodipodi:nodetypes="ccccccccccccccccccccc"
       inkscape:export-filename="O:\OneDrive\Документы\bonuts.png"
       inkscape:export-xdpi="96"
       inkscape:export-ydpi="96" />
    <ellipse
       style="fill:none;stroke:#000000;stroke-width:0.340069"
       id="path11802"
       cx="23.225735"
       cy="31.435961"
       rx="7.9968696"
       ry="8.0673723"
       inkscape:export-filename="O:\OneDrive\Документы\bonuts.png"
       inkscape:export-xdpi="96"
       inkscape:export-ydpi="96" />
    <path
       style="fill:none;stroke:#000000;stroke-width:0.295669px;stroke-linecap:butt;stroke-linejoin:miter;stroke-opacity:1"
       d="m 11.407768,35.815533 c -0.738625,2.267068 -0.316553,4.740233 -0.316553,4.740233 l 2.637937,1.442679 3.693115,0.309148"
       id="path12833"
       sodipodi:nodetypes="cccc"
       inkscape:export-filename="O:\OneDrive\Документы\bonuts.png"
       inkscape:export-xdpi="96"
       inkscape:export-ydpi="96" />
    <path
       style="fill:#666666;stroke:#000000;stroke-width:0.104276"
       d="m 20.653791,42.971855 c -2.313634,-0.448954 -4.462162,-1.574909 -6.183417,-3.240478 -1.783302,-1.725608 -3.010459,-4.002389 -3.436865,-6.376524 -0.346695,-1.930322 -0.127832,-4.543464 0.52168,-6.228687 0.607068,-1.57509 1.587233,-3.127211 2.388643,-3.78249 0.288282,-0.235715 0.500449,-0.466016 0.471488,-0.511781 -0.07555,-0.119383 0.98056,-1.035688 1.827402,-1.585495 3.356317,-2.179067 7.494558,-2.589674 11.169583,-1.10828 4.904901,1.977154 8.025761,7.124446 7.439821,12.270642 -0.32986,2.897083 -1.522224,5.328899 -3.591791,7.32542 -1.829876,1.765291 -3.800607,2.785029 -6.264405,3.241467 -1.041465,0.192941 -3.338637,0.190933 -4.342139,-0.0038 z m 4.625726,-3.504152 c 2.455408,-0.649494 4.546322,-2.462525 5.500453,-4.769445 0.491067,-1.187311 0.615725,-1.847779 0.615725,-3.262291 0,-1.414508 -0.124658,-2.074976 -0.615725,-3.262287 -0.768583,-1.858304 -2.362084,-3.491941 -4.199996,-4.30579 -1.173959,-0.519843 -1.904766,-0.664654 -3.354243,-0.664654 -1.449477,0 -2.180285,0.144811 -3.354244,0.664654 -1.837909,0.813849 -3.43141,2.447486 -4.199994,4.30579 -0.49107,1.187311 -0.615724,1.847779 -0.615724,3.262287 0,1.414512 0.124654,2.07498 0.615724,3.262291 1.084056,2.621052 3.533704,4.508373 6.446304,4.966526 0.58476,0.09198 2.526484,-0.02904 3.16172,-0.197081 z"
       id="path14127"
       inkscape:export-filename="O:\OneDrive\Документы\bonuts.png"
       inkscape:export-xdpi="96"
       inkscape:export-ydpi="96" />
    <rect
       style="fill:#f9f9f9;stroke:#000000;stroke-width:0.274813"
       id="rect14644"
       width="3.5639443"
       height="1.3916538"
       x="-11.477366"
       y="16.548344"
       ry="0.69582689"
       inkscape:transform-center-x="0.65374281"
       inkscape:transform-center-y="0.54937276"
       transform="matrix(0.68118855,-0.73210802,0.81693516,0.57672953,0,0)"
       inkscape:export-filename="O:\OneDrive\Документы\bonuts.png"
       inkscape:export-xdpi="96"
       inkscape:export-ydpi="96" />
    <rect
       style="fill:#f9f9f9;stroke:#000000;stroke-width:0.274126"
       id="rect14644-3"
       width="3.5818222"
       height="1.3778003"
       x="27.639488"
       y="-5.2134767"
       ry="0.68890017"
       inkscape:transform-center-x="0.63646914"
       inkscape:transform-center-y="-0.56839257"
       transform="matrix(0.82139774,0.57035581,-0.49385035,0.86954691,0,0)"
       inkscape:export-filename="O:\OneDrive\Документы\bonuts.png"
       inkscape:export-xdpi="96"
       inkscape:export-ydpi="96" />
    <rect
       style="fill:#f9f9f9;stroke:#000000;stroke-width:0.274822"
       id="rect14644-3-1"
       width="3.5728049"
       height="1.3882968"
       x="6.1998248"
       y="42.414555"
       ry="0.69414842"
       inkscape:transform-center-x="0.70915369"
       inkscape:transform-center-y="0.47935911"
       transform="matrix(0.75420726,-0.65663643,0.75228027,0.65884322,0,0)"
       inkscape:export-filename="O:\OneDrive\Документы\bonuts.png"
       inkscape:export-xdpi="96"
       inkscape:export-ydpi="96" />
    <rect
       style="fill:#f9f9f9;stroke:#000000;stroke-width:0.274098"
       id="rect14644-3-1-3"
       width="3.5622842"
       height="1.3850708"
       x="36.507675"
       y="21.928951"
       ry="0.6925354"
       inkscape:transform-center-x="0.48354056"
       inkscape:transform-center-y="-0.69744605"
       transform="matrix(0.66655417,0.7454566,-0.68390504,0.72957104,0,0)"
       inkscape:export-filename="O:\OneDrive\Документы\bonuts.png"
       inkscape:export-xdpi="96"
       inkscape:export-ydpi="96" />
    <rect
       style="fill:#f9f9f9;stroke:#000000;stroke-width:0.274822"
       id="rect14644-3-1-3-1"
       width="3.5715306"
       height="1.3887906"
       x="-20.535452"
       y="57.491364"
       ry="0.6943953"
       inkscape:transform-center-x="0.70162741"
       inkscape:transform-center-y="0.48981311"
       transform="matrix(0.7441799,-0.66797924,0.76216276,0.64738545,0,0)"
       inkscape:export-filename="O:\OneDrive\Документы\bonuts.png"
       inkscape:export-xdpi="96"
       inkscape:export-ydpi="96" />
    <rect
       style="fill:#f9f9f9;stroke:#000000;stroke-width:0.274403"
       id="rect14644-3-1-3-1-6"
       width="3.5255654"
       height="1.4026107"
       x="-44.145432"
       y="40.41737"
       ry="0.70130533"
       inkscape:transform-center-x="0.13021709"
       inkscape:transform-center-y="0.83261876"
       transform="matrix(0.02958992,-0.99956212,0.99673427,-0.08075139,0,0)"
       inkscape:export-filename="O:\OneDrive\Документы\bonuts.png"
       inkscape:export-xdpi="96"
       inkscape:export-ydpi="96" />
    <path
       style="fill:none;stroke:#000000;stroke-width:0.295669"
       id="path21219"
       d="m 131.28884,90.706599 c 0.33558,2.170609 0.43867,4.362951 0.52722,6.553625 0.0791,2.967126 0.10335,5.935536 0.10969,8.903586 -0.038,2.11912 -0.0452,4.23373 0.0707,6.3502 0.0179,0.94425 0.17249,1.87564 0.52254,2.75619 0.41481,1.20045 1.43621,1.12646 2.54684,1.06886 0.94492,-0.18284 1.15567,-0.15361 2.07656,-0.69539 1.63104,-0.95958 3.28316,-1.89723 4.81475,-3.00209 0.45529,-0.32843 0.75158,-0.82773 1.09912,-1.26404 0.97615,-1.22547 1.04226,-1.44387 1.82243,-2.77178 1.33861,-2.3364 1.91596,-4.93343 2.35309,-7.54658 0.29266,-2.015926 0.63578,-4.019492 1.09451,-6.005268 0.0732,-0.323482 0.19676,-0.925379 0.31507,-1.253357 0.0504,-0.139886 0.32459,-0.474478 0.19099,-0.403966 -1.18135,0.724478 -2.36269,1.448968 -3.54404,2.173458 0.051,0.0381 0.11805,0.06162 0.15305,0.114199 0.11493,0.172619 0.19259,0.366353 0.2889,0.54953 0.9459,2.424352 1.43141,4.997334 2.00102,7.525264 0.53675,2.40288 1.07749,4.8073 1.4922,7.23372 0.14302,1.13161 0.33313,2.25659 0.4689,3.3891 0,0 3.9198,-2.01588 3.9198,-2.01588 v 0 c -0.17685,-1.12198 -0.39952,-2.2366 -0.55768,-3.36148 -0.44803,-2.41646 -1.08167,-4.79879 -1.58837,-7.20404 -0.57381,-2.574548 -1.07543,-5.177163 -1.91372,-7.684771 -0.015,-0.03225 -0.56454,-1.326552 -0.74865,-1.253456 -3.95974,1.571958 -3.89036,1.447632 -4.41167,4.047927 -0.41546,1.985345 -0.709,3.98928 -1.01922,5.99249 -0.43358,2.55815 -1.02403,5.09543 -2.34688,7.37596 -0.73783,1.21068 -0.90605,1.59299 -1.84516,2.6925 -0.36299,0.425 -1.72541,1.19015 -1.15927,1.21447 0.9129,0.0392 1.63272,-0.80419 2.47155,-1.15809 0.62912,-0.2654 -2.06923,1.16027 -1.89946,0.76824 -0.51596,0.0507 -1.45179,0.27862 -1.90171,-0.12582 -0.14582,-0.13108 -0.20956,-0.34899 -0.27932,-0.51728 -0.32845,-0.83448 -0.47989,-1.71404 -0.52374,-2.60643 -0.1614,-2.08395 -0.20406,-4.16969 -0.1927,-6.25975 -0.009,-2.97197 -0.005,-5.944284 -0.11784,-8.914776 -0.0717,-2.228851 -0.15822,-4.456775 -0.33786,-6.680126 0,0 -3.95165,2.015051 -3.95165,2.015051 z"
       inkscape:export-filename="O:\OneDrive\Документы\bonuts.png"
       inkscape:export-xdpi="96"
       inkscape:export-ydpi="96" />
    <path
       style="fill:none;stroke:#000000;stroke-width:0.295669"
       id="path21221"
       d="m 158.66934,44.012756 c 0.0949,0.21315 0.20144,0.421699 0.28466,0.639445 0.35225,0.921659 0.64913,1.957744 0.91363,2.891918 0.59647,2.106678 0.9436,3.405802 1.4002,5.626707 0.28107,1.36715 0.51227,2.74364 0.76839,4.115459 1.67741,9.326418 2.3759,18.778311 2.92379,28.22064 0.32066,6.656594 0.61702,13.315815 0.58042,19.980935 0.0314,3.47655 0.012,6.95318 -0.0208,10.42963 0,0 3.77384,-1.88109 3.77384,-1.88109 v 0 c -0.0823,-3.44146 -0.16493,-6.88302 -0.18755,-10.32548 -0.12257,-6.634524 -0.40192,-13.266811 -0.81033,-19.89034 -0.70186,-9.438652 -1.62789,-18.859745 -2.97759,-28.233108 -0.68149,-4.613656 -1.3825,-9.260179 -2.76843,-13.732332 0,0 -3.88018,2.157616 -3.88018,2.157616 z"
       inkscape:export-filename="O:\OneDrive\Документы\bonuts.png"
       inkscape:export-xdpi="96"
       inkscape:export-ydpi="96" />
    <path
       style="fill:none;stroke:#000000;stroke-width:0.295669"
       id="path21223"
       d="m 150.60236,91.17814 c 3.77506,-0.780766 7.56347,-1.499834 11.35598,-2.194871 2.70433,-0.541799 5.45738,-0.750861 8.19122,-1.092355 0,0 3.41682,-2.490414 3.41682,-2.490414 v 0 c -2.76972,0.35193 -5.56712,0.527597 -8.29746,1.138572 -3.69527,0.710708 -7.38551,1.474291 -11.11391,2.000508 0,0 -3.55265,2.63856 -3.55265,2.63856 z"
       inkscape:export-filename="O:\OneDrive\Документы\bonuts.png"
       inkscape:export-xdpi="96"
       inkscape:export-ydpi="96" />
    <path
       style="fill:none;stroke:#000000;stroke-width:0.295669"
       id="path21225"
       d="m 195.94702,93.342763 c -1.25898,-0.733412 -2.89868,-1.232341 -4.37875,-1.162205 -1.26928,0.06019 -1.79199,0.343405 -2.96084,0.760293 -2.4224,1.478089 -5.8582,2.650167 -7.55447,5.192087 -1.2004,1.798855 -1.4515,3.539492 -1.7768,5.599082 0.0213,1.62581 -0.0372,2.63315 0.27095,4.24198 0.59098,3.08511 2.06225,5.89102 3.53299,8.64449 2.42984,3.9318 5.2885,7.58351 7.9485,11.36524 1.18779,1.80374 2.27391,3.73207 2.63459,5.87538 0.0509,0.30262 0.0646,0.61012 0.0968,0.91518 -0.0174,0.27086 0.0398,0.55648 -0.0521,0.81259 -0.11105,0.3094 -0.33575,0.5698 -0.53799,0.83147 -0.96729,1.25155 -2.30809,2.14689 -3.66074,2.95077 0.91323,-0.53484 1.87864,-0.99269 2.73969,-1.60452 0.29057,-0.20648 -0.66642,0.2642 -1.00776,0.37386 -1.36767,0.4394 -2.7961,0.6813 -4.21463,0.89666 -0.39156,0.0138 -0.78299,0.0502 -1.17469,0.0412 -2.65545,-0.0611 -5.50048,-0.71979 -8.09541,-1.27184 -1.39086,-0.39784 -2.89354,-0.56208 -4.19753,-1.22103 -0.91035,-0.46003 -1.22388,-0.75845 -2.02733,-1.3718 -1.46177,-1.25554 -2.68101,-2.76452 -3.27536,-4.58967 -0.015,-0.13737 -0.0922,-0.28177 -0.0452,-0.4121 0.0264,-0.0733 0.2906,-0.12416 0.22334,-0.0826 -1.18756,0.73434 -2.43326,1.38076 -3.58812,2.16322 -0.0893,0.0605 0.21948,0.0145 0.32197,0.0497 0.39379,0.13547 0.54038,0.29551 0.87105,0.54951 1.12778,0.93416 2.03444,2.08228 2.9219,3.22845 0.58989,0.70799 1.14888,1.43857 1.71602,2.16341 0.73019,1.04083 1.93443,1.40655 3.09234,1.81979 1.64469,0.54911 3.36339,0.82194 5.07221,1.10057 1.3355,0.26201 2.69152,0.27802 4.04335,0.16856 0.20563,-0.0224 0.41125,-0.0448 0.61687,-0.0674 0,0 3.53402,-2.57138 3.53402,-2.57138 v 0 c -0.20465,0.0258 -0.40931,0.0518 -0.61395,0.0776 -1.33409,0.1458 -2.67912,0.17539 -4.00613,-0.0595 -1.69062,-0.2549 -3.38856,-0.51287 -5.01817,-1.03773 -1.06947,-0.38227 -2.22793,-0.68295 -2.89434,-1.65491 -0.5751,-0.72188 -1.15207,-1.44251 -1.76988,-2.13076 -0.92067,-1.15611 -1.83872,-2.33027 -2.95294,-3.31776 -0.11516,-0.10149 -1.15447,-0.97936 -1.3273,-0.90331 -1.49099,0.65619 -4.27768,0.94455 -4.16157,2.53765 0.0115,0.15791 0.0727,0.30856 0.10912,0.46284 0.74511,1.84812 1.98277,3.41919 3.50162,4.73483 0.60535,0.47254 1.37446,1.10971 2.05011,1.48969 1.31675,0.7405 2.89045,0.84295 4.32398,1.23682 1.65089,0.32947 3.30537,0.64711 4.96413,0.93696 0.9793,0.17113 2.12901,0.37039 3.13252,0.4436 0.39456,0.0288 0.79111,0.018 1.18665,0.0269 1.07289,-0.15971 2.13192,-0.3337 3.18854,-0.57888 0.37299,-0.0866 1.77392,-0.41151 2.1278,-0.59104 1.57703,-0.80007 3.09575,-1.70529 4.64362,-2.55793 1.48893,-0.96003 3.61053,-2.37901 4.08171,-4.18175 0.0728,-0.27871 0.003,-0.57529 0.005,-0.86292 -0.12246,-0.84014 -0.13668,-1.14908 -0.39354,-1.98623 -0.5452,-1.77687 -1.54835,-3.36695 -2.59827,-4.89508 -2.72296,-3.71915 -5.65899,-7.30623 -7.98416,-11.28622 -0.36071,-0.66141 -0.74278,-1.31213 -1.08215,-1.98423 -1.74067,-3.44742 -2.81946,-6.81477 -2.54817,-10.69849 0.11059,-0.63887 0.17072,-1.28805 0.33181,-1.91658 0.4681,-1.826269 1.30941,-3.476006 2.76136,-4.743896 0.42016,-0.366905 1.91319,-1.10892 1.36744,-0.971331 -0.80609,0.203231 -1.45799,0.785306 -2.18698,1.177953 1.0347,-0.425623 1.68622,-0.785825 2.82455,-0.889997 1.37051,-0.125408 2.94963,0.31096 4.08516,1.050656 0,0 3.76429,-2.316149 3.76429,-2.316149 z"
       inkscape:export-filename="O:\OneDrive\Документы\bonuts.png"
       inkscape:export-xdpi="96"
       inkscape:export-ydpi="96" />
    <path
       style="fill:none;stroke:#000000;stroke-width:0.295669"
       id="path21869"
       d="m 107.44851,111.61309 c 0.12585,-3.73423 0.1816,-7.46876 0.38374,-11.20068 0.24712,-4.325945 0.66437,-8.641167 0.67348,-12.976356 0.0317,-3.202725 -0.3695,-6.383726 -0.82205,-9.549013 -0.52949,-2.782902 -1.31172,-5.509519 -1.87021,-8.28738 -0.11138,-0.737912 -0.30018,-1.468146 -0.31875,-2.217174 -0.002,-0.09034 -0.0146,-0.18443 0.0126,-0.270803 0.0114,-0.03638 0.12735,-0.08757 0.094,-0.06788 -1.24622,0.735677 -2.48869,1.477396 -3.73304,2.216098 0.0888,0.07183 0.18951,0.131535 0.26636,0.215464 0.25481,0.278277 0.8569,1.132222 1.02318,1.367799 0.88645,1.255879 1.65986,2.550395 2.42108,3.881919 1.94061,3.437961 3.67502,6.978723 5.40622,10.519692 1.47842,3.104826 3.06896,6.15587 4.51486,9.275502 1.03682,2.425666 1.98689,4.885087 2.96132,7.334872 0.77191,1.86337 1.29057,3.81181 1.87247,5.73624 0.447,1.51143 0.87051,3.01956 1.12477,4.57454 0.50193,-0.63233 -0.14483,1.08148 0.13764,0.93183 1.38357,-0.73302 2.91382,-1.33822 4.00038,-2.45045 0.36957,-0.37829 -0.0641,-1.04406 -0.0759,-1.56678 -0.0365,-1.63028 0.002,-3.305 0.0241,-4.93327 -0.0222,-6.779378 0.14519,-13.557147 0.21808,-20.335787 -0.02,-5.033562 0.0231,-10.062757 0.43284,-15.082274 0.16416,-2.655598 0.68583,-5.264466 1.21426,-7.867987 0.0721,-0.298687 0.14438,-0.597375 0.21657,-0.896059 0,0 -3.91496,1.846411 -3.91496,1.846411 v 0 c -0.0602,0.297604 -0.12026,0.595207 -0.18039,0.892811 -0.46303,2.605359 -1.01348,5.205826 -1.08226,7.859176 -0.26129,4.983353 -0.16048,9.972684 -0.13408,14.960456 -0.0322,6.79966 -0.19094,13.600608 -0.35597,20.398083 -0.0573,1.86623 -0.0812,3.1747 -0.1987,5.02091 -0.0346,0.5444 -0.69627,1.61963 -0.13787,1.6308 1.40511,0.028 2.63725,-0.96061 3.90378,-1.55552 0.26993,-0.12679 -1.16732,-0.91455 -0.20576,-0.85428 -0.28546,-1.56279 -0.6595,-3.10131 -1.17303,-4.60907 -0.60138,-1.92781 -1.12155,-3.88561 -1.93752,-5.742312 -1.00745,-2.441059 -1.93025,-4.917586 -3.0465,-7.314193 -1.48714,-3.10114 -3.00432,-6.187012 -4.56975,-9.251338 -1.72883,-3.550419 -3.51769,-7.074009 -5.38253,-10.557975 -1.103,-2.03253 -2.2367,-4.067764 -3.64225,-5.919054 -1.34565,0.713389 -2.72072,1.376226 -4.03696,2.140166 -0.0283,0.01645 0.017,0.334431 0.041,0.480977 0.12074,0.736079 0.31184,1.457858 0.45604,2.189602 0.63558,2.748005 1.4026,5.468723 1.88498,8.248995 0.47608,3.128862 0.9013,6.271177 0.90301,9.441358 -9.1e-4,4.314868 -0.40306,8.612148 -0.60652,12.920504 -0.19733,3.78577 -0.22769,7.59789 -0.77023,11.35511 0,0 4.00845,-1.93368 4.00845,-1.93368 z"
       inkscape:export-filename="O:\OneDrive\Документы\bonuts.png"
       inkscape:export-xdpi="96"
       inkscape:export-ydpi="96" />
    <path
       style="fill:none;stroke:#000000;stroke-width:0.286385"
       d="m 79.038242,111.87969 c -1.410938,-0.50764 -2.576843,-1.79691 -3.049311,-3.37196 -0.490331,-1.6346 -0.718137,-14.378841 -0.314614,-17.600567 0.67818,-5.41458 2.895537,-7.413938 7.352127,-6.629296 8.87026,1.561731 13.32469,12.782347 8.55789,21.557153 -1.11296,2.04876 -3.80166,4.56597 -5.86003,5.48628 -2.01137,0.89928 -5.036373,1.15192 -6.686062,0.55839 z"
       id="path23708"
       inkscape:export-filename="O:\OneDrive\Документы\bonuts.png"
       inkscape:export-xdpi="96"
       inkscape:export-ydpi="96" />
    <path
       style="fill:none;stroke:#000000;stroke-width:0.286385"
       d="m 76.782909,115.67329 c -3.189542,-0.78674 -4.708563,-2.27482 -5.62579,-5.51117 -0.560969,-1.97934 -0.827443,-13.661638 -0.423665,-18.573633 0.482282,-5.867009 1.720412,-8.367258 4.908189,-9.911485 1.230864,-0.596259 1.745762,-0.660865 5.135372,-0.644362 3.270689,0.01592 4.072979,0.117393 6.085709,0.769703 6.30797,2.044358 11.03073,6.671269 12.7701,12.510953 1.583266,5.315575 -0.25363,11.568664 -4.65574,15.848824 -3.86864,3.76147 -8.10811,5.51121 -13.765376,5.68133 -1.832957,0.0551 -3.825916,-0.0214 -4.428799,-0.17016 z m 9.494495,-4.11386 c 7.283,-3.49339 9.87279,-13.75766 5.4662,-21.66456 -1.14018,-2.045883 -4.03084,-4.584704 -6.09309,-5.351464 -3.89139,-1.446852 -7.378683,-0.920093 -8.914623,1.346563 -1.400323,2.066515 -1.661336,4.38568 -1.553209,13.800604 0.08497,7.398817 0.163893,8.635497 0.613836,9.618637 1.199435,2.62081 2.523818,3.30579 6.139676,3.17549 2.17967,-0.0786 2.89288,-0.23056 4.34121,-0.92527 z"
       id="path23747"
       inkscape:export-filename="O:\OneDrive\Документы\bonuts.png"
       inkscape:export-xdpi="96"
       inkscape:export-ydpi="96" />
    <path
       style="fill:none;stroke:#000000;stroke-width:0.286385;stroke-opacity:1"
       d="m 23.351023,97.844784 c -1.285559,-0.52907 -2.327054,-1.766982 -2.836132,-3.371002 -0.420585,-1.325196 -0.496517,-2.819595 -0.496517,-9.771869 0,-8.760531 0.212792,-10.644827 1.393365,-12.338412 1.225568,-1.758138 1.999982,-2.096046 4.787036,-2.088794 2.160284,0.0056 2.749954,0.118956 4.196469,0.806547 3.575315,1.699511 6.342718,5.4558 7.278247,9.879009 0.571946,2.704185 0.571946,3.647057 0,6.351243 -0.935939,4.425145 -3.70879,8.202309 -7.222478,9.83842 -1.367167,0.636604 -2.234246,0.829236 -4.057137,0.901331 -1.2751,0.05043 -2.644384,-0.04248 -3.042853,-0.206473 z"
       id="path23825"
       inkscape:export-filename="O:\OneDrive\Документы\bonuts.png"
       inkscape:export-xdpi="96"
       inkscape:export-ydpi="96" />
    <path
       style="fill:none;stroke:#000000;stroke-width:0.264583px;stroke-linecap:butt;stroke-linejoin:miter;stroke-opacity:1"
       d="M 50.386156,62.148501 40.916113,58.6918 32.028267,57.650882 21.939364,58.6918 C 16.596007,59.010756 8.2401256,58.57658 5.9252296,59.652651 v 0 c 0.1334512,8.443401 0.2669023,12.330883 0.4003535,18.496324 l 1.921696,36.672365 1.6814839,1.52135 4.564028,0.72063 8.059452,-0.2017 20.605849,-0.27872 8.32735,-2.16191 6.886078,-3.36297 4.724169,-6.64587 2.56226,-5.524871 0.800708,-3.042687 -0.08007,-5.284663 -1.761556,-9.208127 -2.40212,-6.405655 -2.64233,-5.284664 -5.524878,-5.765088 -3.661547,-1.747894"
       id="path27990"
       sodipodi:nodetypes="ccccccccccccccccccccccc"
       inkscape:export-filename="O:\OneDrive\Документы\bonuts.png"
       inkscape:export-xdpi="96"
       inkscape:export-ydpi="96" />
    <path
       style="fill:#ffcc00;fill-opacity:0;stroke:#000000;stroke-width:0.546602;stroke-opacity:1"
       d="m 92.102409,369.55409 c -1.803786,-0.19716 -4.030282,-0.7624 -4.947768,-1.2561 -2.199114,-1.18333 -5.895004,-5.23384 -7.314546,-8.01637 -2.771579,-5.43274 -2.913621,-6.92121 -3.178035,-33.30273 -0.259845,-25.92559 0.291344,-39.95009 1.799106,-45.77658 1.66569,-6.43679 6.688301,-12.6668 11.268644,-13.97756 1.397286,-0.39986 5.405963,-0.66521 9.751724,-0.64549 8.500356,0.0386 11.904416,0.90221 18.216726,4.62171 12.68725,7.47589 21.65998,21.84407 24.69354,39.54217 2.99345,17.46407 -5.81714,39.96166 -19.8875,50.78219 -3.92385,3.01756 -10.15577,6.15591 -14.15843,7.1301 -3.8472,0.93635 -11.848662,1.37902 -16.243461,0.89866 z"
       id="path29294"
       transform="scale(0.26458333)"
       inkscape:export-filename="O:\OneDrive\Документы\bonuts.png"
       inkscape:export-xdpi="96"
       inkscape:export-ydpi="96" />
    <rect
       style="fill:#f9f9f9;stroke:#000000;stroke-width:0.282144"
       id="rect14644-7-9-2-9-1-5"
       width="3.6879134"
       height="1.4175806"
       x="59.918823"
       y="-24.263971"
       ry="0.7087903"
       inkscape:transform-center-x="0.64848917"
       inkscape:transform-center-y="1.4860137"
       transform="matrix(0.49954262,0.86628931,0.89466296,-0.44674175,0,0)"
       inkscape:export-filename="O:\OneDrive\Документы\bonuts.png"
       inkscape:export-xdpi="96"
       inkscape:export-ydpi="96" />
    <rect
       style="fill:#f9f9f9;stroke:#000000;stroke-width:0.282144"
       id="rect14644-7-9-2"
       width="3.6879134"
       height="1.4175806"
       x="-71.926704"
       y="91.811058"
       ry="0.7087903"
       inkscape:transform-center-x="0.71438472"
       inkscape:transform-center-y="-1.4554821"
       transform="matrix(-0.98385006,-0.1789946,-0.2376201,0.97135817,0,0)"
       inkscape:export-filename="O:\OneDrive\Документы\bonuts.png"
       inkscape:export-xdpi="96"
       inkscape:export-ydpi="96" />
    <rect
       style="fill:#f9f9f9;stroke:#000000;stroke-width:0.282144"
       id="rect14644-7-9-2-9"
       width="3.6879134"
       height="1.4175806"
       x="81.574661"
       y="58.267738"
       ry="0.7087903"
       inkscape:transform-center-x="1.6057542"
       inkscape:transform-center-y="0.22432838"
       transform="matrix(-0.47717537,0.87880809,0.84863951,0.52897163,0,0)"
       inkscape:export-filename="O:\OneDrive\Документы\bonuts.png"
       inkscape:export-xdpi="96"
       inkscape:export-ydpi="96" />
    <rect
       style="fill:#f9f9f9;stroke:#000000;stroke-width:0.282144"
       id="rect14644-7-9-2-9-15"
       width="3.6879134"
       height="1.4175806"
       x="65.349373"
       y="49.513229"
       ry="0.7087903"
       inkscape:transform-center-x="1.6057542"
       inkscape:transform-center-y="0.22432838"
       transform="matrix(-0.47717537,0.87880809,0.84863951,0.52897163,0,0)"
       inkscape:export-filename="O:\OneDrive\Документы\bonuts.png"
       inkscape:export-xdpi="96"
       inkscape:export-ydpi="96" />
    <rect
       style="fill:#f9f9f9;stroke:#000000;stroke-width:0.282144"
       id="rect14644-7-9-2-9-15-0"
       width="3.6879134"
       height="1.4175806"
       x="101.19611"
       y="7.0959792"
       ry="0.7087903"
       inkscape:transform-center-x="0.68016827"
       inkscape:transform-center-y="1.4717826"
       transform="matrix(0.48087345,0.87679001,0.90402624,-0.42747697,0,0)"
       inkscape:export-filename="O:\OneDrive\Документы\bonuts.png"
       inkscape:export-xdpi="96"
       inkscape:export-ydpi="96" />
    <rect
       style="fill:#f9f9f9;stroke:#000000;stroke-width:0.282144"
       id="rect14644-7-9-2-9-1"
       width="3.6879134"
       height="1.4175806"
       x="74.450645"
       y="82.238106"
       ry="0.7087903"
       inkscape:transform-center-x="1.6057542"
       inkscape:transform-center-y="0.22432838"
       transform="matrix(-0.47717537,0.87880809,0.84863951,0.52897163,0,0)"
       inkscape:export-filename="O:\OneDrive\Документы\bonuts.png"
       inkscape:export-xdpi="96"
       inkscape:export-ydpi="96" />
    <rect
       style="fill:#f9f9f9;stroke:#000000;stroke-width:0.274813"
       id="rect14644-7"
       width="3.5639443"
       height="1.3916538"
       x="-29.944153"
       y="78.905159"
       ry="0.69582689"
       inkscape:transform-center-x="0.65374281"
       inkscape:transform-center-y="0.54937276"
       transform="matrix(0.68118855,-0.73210802,0.81693516,0.57672953,0,0)"
       inkscape:export-filename="O:\OneDrive\Документы\bonuts.png"
       inkscape:export-xdpi="96"
       inkscape:export-ydpi="96" />
    <rect
       style="fill:#f9f9f9;stroke:#000000;stroke-width:0.285878"
       id="rect14644-7-9"
       width="3.6254263"
       height="1.4804368"
       x="-72.079628"
       y="32.248543"
       ry="0.7402184"
       inkscape:transform-center-x="-0.74253429"
       inkscape:transform-center-y="0.49558901"
       transform="matrix(-0.76058767,-0.64923524,-0.87224607,0.48906728,0,0)"
       inkscape:export-filename="O:\OneDrive\Документы\bonuts.png"
       inkscape:export-xdpi="96"
       inkscape:export-ydpi="96" />
    <path
       style="fill:#666666;fill-opacity:0.951807;stroke:#000000;stroke-width:0.546602;stroke-opacity:1"
       d="m 82.897496,384.81535 c -7.90529,-1.42752 -14.790728,-4.84154 -18.318041,-9.08268 -2.246979,-2.7017 -4.670418,-7.74695 -5.749275,-11.96915 -1.769727,-6.92599 -2.080084,-14.67935 -1.84884,-46.18785 0.188439,-25.6759 0.379604,-31.7275 1.13379,-35.89162 2.916557,-16.10333 9.968427,-24.71376 22.96206,-28.03697 14.681742,-3.75495 36.39099,-0.33304 52.02036,8.19971 6.42545,3.50793 11.77852,7.56747 17.21795,13.05738 9.6157,9.70491 15.68041,21.10887 18.05486,33.95001 0.99268,5.36844 0.75109,16.31705 -0.48952,22.18463 -3.51465,16.62292 -14.42826,31.92407 -29.86388,41.86989 -7.53982,4.85822 -16.08362,8.43578 -25.4093,10.63967 -4.84898,1.14593 -7.41253,1.38836 -16.405737,1.55145 -5.862305,0.10631 -11.849297,-0.0217 -13.304427,-0.28447 z m 27.493194,-14.20586 c 16.29539,-5.57404 27.69677,-18.5752 32.9282,-37.5485 1.01909,-3.69605 1.18212,-5.7342 1.19492,-14.93872 0.0137,-9.83852 -0.0961,-11.06699 -1.42695,-15.96395 -4.31188,-15.86632 -13.93944,-28.15905 -26.93397,-34.39002 -6.58158,-3.15592 -10.41757,-4.01084 -18.037861,-4.02006 -6.212277,-0.008 -6.749123,0.0819 -10.149426,1.69085 -4.422062,2.09239 -7.293592,4.93855 -9.310578,9.22833 -3.953287,8.40795 -4.466164,14.44953 -4.176153,49.19417 0.252489,30.24919 0.420065,32.11658 3.421391,38.12621 2.434714,4.87509 5.726109,7.60579 11.469137,9.51532 3.554883,1.18199 16.57094,0.62866 21.02129,-0.89363 z"
       id="path31407"
       transform="scale(0.26458333)"
       inkscape:export-filename="O:\OneDrive\Документы\bonuts.png"
       inkscape:export-xdpi="96"
       inkscape:export-ydpi="96" />
    <path
       style="fill:none;fill-opacity:0.951807;stroke:none;stroke-width:1.94936;stroke-opacity:1"
       d="m 298.85275,421.1192 c -9.07017,-3.81609 -10.89583,-10.06428 -11.8718,-40.63029 -1.45378,-45.53069 3.70474,-60.79421 20.54625,-60.79421 4.17277,0 12.01733,2.24944 17.67288,5.06772 34.29951,17.09217 35.07743,71.63506 1.31738,92.36561 -7.0662,4.33903 -21.7893,6.46313 -27.66471,3.99117 z"
       id="path36766"
       transform="scale(0.26458333)"
       inkscape:export-filename="O:\OneDrive\Документы\bonuts.png"
       inkscape:export-xdpi="96"
       inkscape:export-ydpi="96" />
    <path
       style="fill:none;fill-opacity:0.951807;stroke:none;stroke-width:1.94936;stroke-opacity:1"
       d="m 298.85275,421.1192 c -9.07017,-3.81609 -10.89583,-10.06428 -11.8718,-40.63029 -1.45378,-45.53069 3.70474,-60.79421 20.54625,-60.79421 4.17277,0 12.01733,2.24944 17.67288,5.06772 34.29951,17.09217 35.07743,71.63506 1.31738,92.36561 -7.0662,4.33903 -21.7893,6.46313 -27.66471,3.99117 z"
       id="path36842"
       transform="scale(0.26458333)"
       inkscape:export-filename="O:\OneDrive\Документы\bonuts.png"
       inkscape:export-xdpi="96"
       inkscape:export-ydpi="96" />
    <path
       style="fill:none;fill-opacity:0.951807;stroke:none;stroke-width:1.94936;stroke-opacity:1"
       d="m 87.051118,366.33446 c -7.245377,-4.4405 -9.077355,-13.754 -9.065929,-46.0898 0.0159,-44.98005 3.128298,-52.29242 22.181151,-52.11307 18.66299,0.17568 34.72489,16.46669 40.16395,40.73687 4.21968,18.82904 -5.26767,42.28008 -21.43258,52.97751 -8.91288,5.89827 -25.688479,8.26264 -31.846592,4.48849 z"
       id="path36881"
       transform="scale(0.26458333)"
       inkscape:export-filename="O:\OneDrive\Документы\bonuts.png"
       inkscape:export-xdpi="96"
       inkscape:export-ydpi="96" />
    <path
       style="fill:none;fill-opacity:0.951807;stroke:none;stroke-width:1.94936;stroke-opacity:1"
       d="M 80.898355,146.72279 C 68.30709,143.57018 57.206998,126.70812 59.539222,114.2763 62.326028,99.421343 78.497493,87.871915 92.763239,90.548185 c 9.317141,1.747907 19.801381,11.475885 22.277161,20.670245 5.60573,20.81811 -13.48957,40.67533 -34.142045,35.50436 z"
       id="path36920"
       transform="scale(0.26458333)"
       inkscape:export-filename="O:\OneDrive\Документы\bonuts.png"
       inkscape:export-xdpi="96"
       inkscape:export-ydpi="96" />
    <path
       style="fill:#f9f9f9;fill-opacity:0;stroke:none;stroke-width:1.94936;stroke-opacity:1"
       d="m 284.45838,432.96194 c -13.96832,-6.34415 -15.44698,-11.96179 -15.44698,-58.68521 0,-36.95998 0.31951,-40.65349 4.25344,-49.1693 6.60405,-14.29582 13.30466,-17.49984 34.73372,-16.60851 14.34358,0.5966 19.67022,1.74862 29.19786,6.31476 13.97739,6.69869 27.50686,19.83503 34.13869,33.14671 6.44585,12.93838 6.71533,32.80914 0.62588,46.15236 -5.2178,11.43329 -18.2277,25.68588 -29.44911,32.26207 -17.13602,10.04237 -43.7876,13.06643 -58.0535,6.58712 z m 44.27317,-11.48491 c 11.7119,-6.08442 21.60074,-18.71639 25.26499,-32.27342 1.20474,-4.45727 1.79889,-14.68321 1.32034,-22.72431 -1.37324,-23.07449 -12.3786,-40.58706 -30.19883,-48.05468 -9.70537,-4.06706 -26.33763,-3.39757 -32.31035,1.30057 -8.52065,6.70234 -9.99124,15.08245 -9.66345,55.06677 0.38731,47.2436 2.53476,51.68788 25.11904,51.9855 7.33663,0.0967 12.80539,-1.3195 20.46826,-5.30043 z"
       id="path37404"
       transform="scale(0.26458333)"
       inkscape:export-filename="O:\OneDrive\Документы\bonuts.png"
       inkscape:export-xdpi="96"
       inkscape:export-ydpi="96" />
    <path
       style="fill:#008000;fill-opacity:0;stroke:none;stroke-width:1.05374;stroke-opacity:1"
       d="m 19.75424,199.94652 c -6.29569,-6.50488 -6.855384,-9.30385 -7.322146,-36.61735 -0.232746,-13.61954 -0.03989,-28.55626 0.428577,-33.1927 l 0.851751,-8.42989 2.627419,4.70214 c 1.44508,2.58618 3.912559,5.42315 5.483286,6.30437 4.322828,2.42523 11.233552,-0.19592 13.738846,-5.21096 1.833309,-3.66988 1.84241,-3.60729 1.844039,12.6808 l 0.0016,16.36888 7.112722,2.74927 c 6.356129,2.45683 21.829444,5.87204 35.058237,7.73792 5.740898,0.80973 20.767049,-1.10733 26.743809,-3.41202 11.51037,-4.43851 23.49677,-17.24032 27.07931,-28.92145 2.30149,-7.50422 3.11891,-21.30426 1.72335,-29.09462 l -0.80694,-4.50456 5.02589,2.54681 c 4.95203,2.50938 5.13336,2.78465 12.3385,18.73001 7.54614,16.70003 12.58207,26.1434 14.66498,27.49979 0.65813,0.42858 1.78934,0.56201 2.51378,0.29651 0.72445,-0.2655 1.31717,-0.0762 1.31717,0.42066 0,0.49687 -1.66323,1.21542 -3.69605,1.59678 -4.90921,0.92098 -6.45747,3.70502 -7.33709,13.19338 -0.4006,4.32117 -1.38157,9.11987 -2.17996,10.66377 -3.61121,6.98331 -22.83857,20.48563 -33.67818,23.65034 -9.40738,2.74656 -24.60092,3.62991 -62.754049,3.6485 l -37.464375,0.0183 z m 98.98583,-6.00575 c 3.43577,-3.43576 4.10342,-4.76837 3.82755,-7.63959 -0.30692,-3.19425 -0.65964,-3.50474 -4.3251,-3.80727 -3.37215,-0.27832 -4.55664,0.23631 -7.63959,3.31927 -2.48485,2.48485 -3.64866,4.62338 -3.64866,6.7045 0,6.82955 5.69205,7.51685 11.7858,1.42309 z M 43.799343,178.04441 c 4.43534,-2.37372 0.368569,-12.15099 -6.606869,-15.88413 -2.72773,-1.45984 -7.16244,1.4015 -7.157042,4.61783 0.0061,3.61528 3.557138,8.61281 7.500241,10.55532 4.272709,2.10488 3.766503,2.04743 6.26367,0.71098 z M 153.7858,155.71856 c 1.88276,-2.68804 2.22769,-12.5052 0.54954,-15.64086 -1.47975,-2.76494 -5.77384,-2.59786 -7.8062,0.30373 -2.46777,3.52324 -2.17113,12.497 0.50817,15.37289 2.73031,2.93065 4.67796,2.92033 6.74849,-0.0358 z"
       id="path38849"
       transform="scale(0.26458333)" />
    <path
       style="fill:#008000;fill-opacity:0;stroke:none;stroke-width:1.05374;stroke-opacity:1"
       d="m 19.75424,199.94652 c -6.29569,-6.50488 -6.855384,-9.30385 -7.322146,-36.61735 -0.232746,-13.61954 -0.03989,-28.55626 0.428577,-33.1927 l 0.851751,-8.42989 2.627419,4.70214 c 1.44508,2.58618 3.912559,5.42315 5.483286,6.30437 4.322828,2.42523 11.233552,-0.19592 13.738846,-5.21096 1.833309,-3.66988 1.84241,-3.60729 1.844039,12.6808 l 0.0016,16.36888 7.112722,2.74927 c 6.356129,2.45683 21.829444,5.87204 35.058237,7.73792 5.740898,0.80973 20.767049,-1.10733 26.743809,-3.41202 11.51037,-4.43851 23.49677,-17.24032 27.07931,-28.92145 2.30149,-7.50422 3.11891,-21.30426 1.72335,-29.09462 l -0.80694,-4.50456 5.02589,2.54681 c 4.95203,2.50938 5.13336,2.78465 12.3385,18.73001 7.54614,16.70003 12.58207,26.1434 14.66498,27.49979 0.65813,0.42858 1.78934,0.56201 2.51378,0.29651 0.72445,-0.2655 1.31717,-0.0762 1.31717,0.42066 0,0.49687 -1.66323,1.21542 -3.69605,1.59678 -4.90921,0.92098 -6.45747,3.70502 -7.33709,13.19338 -0.4006,4.32117 -1.38157,9.11987 -2.17996,10.66377 -3.61121,6.98331 -22.83857,20.48563 -33.67818,23.65034 -9.40738,2.74656 -24.60092,3.62991 -62.754049,3.6485 l -37.464375,0.0183 z m 98.98583,-6.00575 c 3.43577,-3.43576 4.10342,-4.76837 3.82755,-7.63959 -0.30692,-3.19425 -0.65964,-3.50474 -4.3251,-3.80727 -3.37215,-0.27832 -4.55664,0.23631 -7.63959,3.31927 -2.48485,2.48485 -3.64866,4.62338 -3.64866,6.7045 0,6.82955 5.69205,7.51685 11.7858,1.42309 z M 43.799343,178.04441 c 4.43534,-2.37372 0.368569,-12.15099 -6.606869,-15.88413 -2.72773,-1.45984 -7.16244,1.4015 -7.157042,4.61783 0.0061,3.61528 3.557138,8.61281 7.500241,10.55532 4.272709,2.10488 3.766503,2.04743 6.26367,0.71098 z M 153.7858,155.71856 c 1.88276,-2.68804 2.22769,-12.5052 0.54954,-15.64086 -1.47975,-2.76494 -5.77384,-2.59786 -7.8062,0.30373 -2.46777,3.52324 -2.17113,12.497 0.50817,15.37289 2.73031,2.93065 4.67796,2.92033 6.74849,-0.0358 z"
       id="path38888"
       transform="scale(0.26458333)" />
    <path
       style="fill:#008000;fill-opacity:0;stroke:none;stroke-width:1.05374;stroke-opacity:1"
       d="m 19.75424,199.94652 c -6.29569,-6.50488 -6.855384,-9.30385 -7.322146,-36.61735 -0.232746,-13.61954 -0.03989,-28.55626 0.428577,-33.1927 l 0.851751,-8.42989 2.627419,4.70214 c 1.44508,2.58618 3.912559,5.42315 5.483286,6.30437 4.322828,2.42523 11.233552,-0.19592 13.738846,-5.21096 1.833309,-3.66988 1.84241,-3.60729 1.844039,12.6808 l 0.0016,16.36888 7.112722,2.74927 c 6.356129,2.45683 21.829444,5.87204 35.058237,7.73792 5.740898,0.80973 20.767049,-1.10733 26.743809,-3.41202 11.51037,-4.43851 23.49677,-17.24032 27.07931,-28.92145 2.30149,-7.50422 3.11891,-21.30426 1.72335,-29.09462 l -0.80694,-4.50456 5.02589,2.54681 c 4.95203,2.50938 5.13336,2.78465 12.3385,18.73001 7.54614,16.70003 12.58207,26.1434 14.66498,27.49979 0.65813,0.42858 1.78934,0.56201 2.51378,0.29651 0.72445,-0.2655 1.31717,-0.0762 1.31717,0.42066 0,0.49687 -1.66323,1.21542 -3.69605,1.59678 -4.90921,0.92098 -6.45747,3.70502 -7.33709,13.19338 -0.4006,4.32117 -1.38157,9.11987 -2.17996,10.66377 -3.61121,6.98331 -22.83857,20.48563 -33.67818,23.65034 -9.40738,2.74656 -24.60092,3.62991 -62.754049,3.6485 l -37.464375,0.0183 z m 98.98583,-6.00575 c 3.43577,-3.43576 4.10342,-4.76837 3.82755,-7.63959 -0.30692,-3.19425 -0.65964,-3.50474 -4.3251,-3.80727 -3.37215,-0.27832 -4.55664,0.23631 -7.63959,3.31927 -2.48485,2.48485 -3.64866,4.62338 -3.64866,6.7045 0,6.82955 5.69205,7.51685 11.7858,1.42309 z M 43.799343,178.04441 c 4.43534,-2.37372 0.368569,-12.15099 -6.606869,-15.88413 -2.72773,-1.45984 -7.16244,1.4015 -7.157042,4.61783 0.0061,3.61528 3.557138,8.61281 7.500241,10.55532 4.272709,2.10488 3.766503,2.04743 6.26367,0.71098 z M 153.7858,155.71856 c 1.88276,-2.68804 2.22769,-12.5052 0.54954,-15.64086 -1.47975,-2.76494 -5.77384,-2.59786 -7.8062,0.30373 -2.46777,3.52324 -2.17113,12.497 0.50817,15.37289 2.73031,2.93065 4.67796,2.92033 6.74849,-0.0358 z"
       id="path38927"
       transform="scale(0.26458333)" />
    <path
       style="fill:none;stroke:#000000;stroke-width:0.264583px;stroke-linecap:butt;stroke-linejoin:miter;stroke-opacity:1"
       d="m 3.9458862,14.917375 -0.3178079,17.284157 0.2215668,16.496477 1.3769975,4.204507 12.5779654,-0.06614 8.950426,-0.09624 6.720527,0.05758 5.251622,-1.522417 2.356753,-0.891744 1.337616,-0.891744 1.656097,-2.675233 0.979626,-5.437563 0.03951,-8.830347 -0.573264,-11.465284 -3.885458,-6.751779 -3.312193,-2.866321 c 0,0 -3.566977,-1.6560963 -4.395025,-2.0382724 C 32.102796,9.0448354 26.879722,7.7072189 26.879722,7.7072189 L 16.81575,7.2613468 11.2105,7.770915 5.9237303,9.6180997 Z"
       id="path45356"
       sodipodi:nodetypes="ccccccc" />
    <path
       style="fill:#ffcc00;fill-opacity:1;stroke:none;stroke-width:0.335963;stroke-opacity:1"
       d="m 56.59135,158.4279 -4.385934,-0.39158 -4.517085,-2.45218 c -2.484397,-1.3487 -4.706064,-2.69274 -4.937039,-2.98675 -0.795549,-1.01268 -0.399119,-13.19131 0.475457,-14.6064 0.104317,-0.16879 0.714546,0.64012 1.356066,1.79759 4.250571,7.66908 10.380215,14.14855 17.234378,18.21797 l 1.511833,0.89759 -1.17587,-0.0423 c -0.646729,-0.0233 -3.149541,-0.21854 -5.561806,-0.43391 z"
       id="path47736"
       transform="scale(0.26458333)" />
    <path
       style="fill:#ffcc00;fill-opacity:1;stroke:none;stroke-width:0.335963;stroke-opacity:1"
       d="m 163.18501,139.08182 c -1.07322,-1.63884 -2.90108,-5.97166 -5.09941,-12.0878 -5.68709,-15.82257 -7.83426,-21.06189 -9.79626,-23.90398 -0.87911,-1.27344 -1.71188,-1.69153 -17.66118,-8.866887 l -4.59694,-2.068098 -2.02957,-2.693442 C 117.59963,80.965498 107.31846,74.478785 96.421382,72.060365 92.643972,71.222034 82.652056,71.005589 78.783325,71.678292 c -6.835796,1.188616 -13.244452,3.730869 -18.953075,7.518499 -1.642291,1.089649 -4.709552,3.702 -7.122341,6.066013 -2.330801,2.283685 -4.749734,4.505402 -5.375409,4.937148 -0.722977,0.498888 -5.714745,2.086945 -13.696166,4.357222 -6.907217,1.964725 -12.954552,3.779758 -13.43852,4.033407 -0.814551,0.426905 -2.327317,1.901219 -3.367217,3.281619 -0.240046,0.31865 -0.795509,1.45253 -1.234362,2.51973 l -0.797914,1.94036 -0.01446,-2.85568 c -0.008,-1.57063 0.163249,-12.7582 0.380452,-24.861267 l 0.394915,-22.005577 3.72712,-9.872569 3.727121,-9.872568 9.851153,-3.438945 9.851153,-3.438946 10.642591,-0.94104 10.642589,-0.941041 18.645947,0.846848 18.645948,0.846848 18.74726,10.621175 c 13.10077,7.422185 19.99954,11.538041 22.90505,13.665319 l 4.1578,3.044145 4.33864,6.123683 c 2.38625,3.368026 5.81413,8.501591 7.61751,11.407923 l 3.27887,5.284238 2.16584,9.666116 2.16585,9.666116 -0.3404,6.383292 c -0.18722,3.51082 -0.42654,9.78493 -0.53183,13.94247 -0.13492,5.32735 -0.44042,9.34462 -1.03474,13.6065 -0.46381,3.32603 -0.88579,6.19543 -0.93773,6.37643 -0.0519,0.18101 -0.33991,-0.0458 -0.63996,-0.50394 z M 143.56474,93.084356 c 0.83594,-0.317828 6.14972,-4.745827 7.53462,-6.278641 0.88146,-0.975607 0.99501,-2.660065 0.25093,-3.72239 -0.63561,-0.907456 -2.56393,-1.561556 -3.80194,-1.289641 -0.83925,0.18433 -7.29484,5.447301 -8.37568,6.828341 -0.51593,0.659243 -0.54476,2.234913 -0.0575,3.145302 0.37464,0.700026 2.06608,1.594165 3.05933,1.617239 0.31134,0.0072 0.93695,-0.127865 1.39027,-0.30021 z M 27.171554,70.069721 c 1.53582,-0.794203 7.432635,-7.519947 7.432635,-8.477459 0,-2.008636 -1.239766,-3.10799 -3.527611,-3.128083 l -1.679815,-0.01476 -3.29633,3.447692 c -4.016257,4.20067 -4.442893,4.907808 -3.91892,6.495462 0.634504,1.922561 2.986676,2.713119 4.990041,1.677144 z M 104.82424,53.920105 c 0.65121,-0.336751 1.10593,-0.931886 1.36002,-1.779957 0.66283,-2.212333 -0.0354,-3.209066 -4.35115,-6.211467 -5.162487,-3.591443 -5.888718,-3.79536 -7.679478,-2.156313 -0.587915,0.538105 -0.755917,1.059574 -0.755917,2.346316 0,1.387383 0.154765,1.79822 0.958771,2.545151 1.631739,1.515904 8.141414,5.762172 8.833604,5.762172 0.36072,0 1.09608,-0.227656 1.63415,-0.505902 z"
       id="path47775"
       transform="scale(0.26458333)" />
    <path
       style="fill:#008000;fill-opacity:1;stroke:none;stroke-width:0.335963;stroke-opacity:1"
       d="m 17.72958,191.46509 -2.54836,-7.86131 -0.411164,-31.55852 c -0.226139,-17.35718 -0.308656,-33.08025 -0.183369,-34.94015 0.463518,-6.88099 2.194161,-12.98178 4.420418,-15.58266 1.426414,-1.666444 1.383081,-1.650493 15.261121,-5.618421 6.190119,-1.769843 11.492861,-3.286349 11.783872,-3.370018 0.353658,-0.101679 -0.229382,1.381023 -1.758253,4.471335 -3.874851,7.832254 -5.193395,13.930324 -4.884111,22.588274 0.194626,5.44827 0.697748,8.49192 2.12588,12.86057 0.830721,2.54117 0.83869,2.65551 0.327806,4.70348 -1.240162,4.97142 -1.499727,15.15283 -0.420265,16.48486 0.211332,0.26078 2.582849,1.67623 5.270039,3.14545 l 4.885802,2.67132 5.361069,0.43192 c 2.948589,0.23755 6.3301,0.48797 7.514464,0.55648 1.404719,0.0813 3.004359,0.47882 4.601,1.1435 3.226317,1.34312 8.493555,2.57508 13.067426,3.05636 10.553642,1.11049 22.322495,-1.95772 31.339505,-8.17038 3.44455,-2.37326 8.38767,-7.14515 10.98108,-10.60068 3.90765,-5.20664 7.03003,-12.25522 8.43899,-19.05047 0.96259,-4.64248 0.8925,-13.6192 -0.14266,-18.26983 -0.92627,-4.16145 -2.39253,-8.43097 -3.97529,-11.575426 -0.98933,-1.965508 -1.06425,-2.267223 -0.52006,-2.094508 1.58691,0.503669 17.7342,7.986924 18.25909,8.461944 1.55723,1.40927 4.18246,7.51284 8.82801,20.52486 4.39019,12.29673 5.92816,15.71868 7.63247,16.98211 0.68244,0.5059 1.02992,0.5746 1.5361,0.3037 0.5627,-0.30115 0.80343,-1.39789 1.72206,-7.84541 0.88669,-6.22334 1.06691,-8.52158 1.06197,-13.54266 -0.003,-3.32603 0.16644,-9.44896 0.37713,-13.6065 l 0.38307,-7.559168 -2.16164,-9.614106 -2.16164,-9.614105 -3.33922,-5.423787 c -1.83657,-2.983083 -5.33313,-8.234238 -7.77013,-11.66923 l -4.43092,-6.245442 -4.29378,-3.156832 c -3.05459,-2.245763 -8.88401,-5.748868 -20.19878,-12.138182 -8.74775,-4.939743 -15.77183,-9.02574 -15.60907,-9.079994 0.16277,-0.05425 3.53578,0.819104 7.49559,1.940796 6.53142,1.850151 8.04157,2.430542 16.27065,6.253242 l 9.071,4.213802 6.04733,5.27469 6.04734,5.274691 7.29261,12.668236 7.29261,12.668238 1.02348,20.242791 c 0.86989,17.20516 1.02333,22.87695 1.02247,37.79685 l -0.001,17.55407 -1.93179,0.002 c -5.61256,0.005 -7.0655,2.24498 -5.36145,8.26403 1.4522,5.12945 1.52134,4.42357 -1.1256,11.49236 l -2.40329,6.4181 -4.07989,1.56233 c -5.24282,2.00766 -5.1759,1.97252 -17.85438,9.37682 l -10.75081,6.27854 -14.78237,-0.11141 c -8.13031,-0.0613 -31.952448,0.0246 -52.938088,0.19074 l -38.155713,0.30214 -2.548359,-7.8613 z m 97.5891,2.28557 c 5.43025,-4.69809 6.03563,-5.37335 6.03333,-6.72983 -0.004,-2.36823 -2.61242,-3.93306 -4.78931,-2.87319 -1.53683,0.74824 -7.62008,6.32143 -8.06047,7.38463 -0.87917,2.1225 0.98941,4.12113 3.6248,3.87708 1.10601,-0.10242 1.82434,-0.47573 3.19165,-1.65869 z M 42.494167,176.18508 c 1.106878,-0.72526 1.681632,-2.54443 1.221194,-3.86524 -0.517384,-1.48417 -6.313463,-7.92985 -7.503808,-8.34481 -0.740689,-0.25821 -1.277263,-0.22724 -2.112951,0.12193 -1.361128,0.56872 -1.846154,1.39901 -1.846154,3.16036 0,1.51176 0.939409,2.85686 4.905168,7.02349 1.959552,2.05881 2.48908,2.43573 3.421871,2.43573 0.606962,0 1.468568,-0.23916 1.91468,-0.53146 z M 151.33081,154.4912 c 1.75175,-0.79815 2.01301,-1.692 2.14515,-7.3394 l 0.12185,-5.20743 -0.89171,-0.83368 c -1.0978,-1.02638 -3.19096,-1.09162 -4.26707,-0.13301 -1.33541,1.18958 -1.6232,2.52329 -1.6232,7.52245 0,4.57354 0.0272,4.75674 0.82464,5.55418 0.90553,0.90553 2.29957,1.07057 3.69034,0.43689 z"
       id="path47888"
       transform="scale(0.26458333)" />
    <path
       style="fill:#ffcc00;fill-opacity:1;stroke:none;stroke-width:0.335963;stroke-opacity:1"
       d="m 133.20933,196.63034 c 0.18478,-0.17572 4.11159,-2.49826 8.72625,-5.1612 6.36085,-3.67058 9.56073,-5.2933 13.22923,-6.70876 l 4.83893,-1.86707 2.46047,-6.532 c 1.35326,-3.59261 2.46793,-7.06769 2.47705,-7.72241 0.009,-0.65471 -0.35069,-2.46891 -0.79956,-4.03155 -0.44887,-1.56264 -0.90547,-3.37031 -1.01467,-4.01703 -0.39862,-2.36098 1.1977,-3.63618 4.6025,-3.67663 1.24795,-0.0148 1.59582,0.0984 1.59582,0.51955 0,0.29618 -0.76042,4.75075 -1.68983,9.89904 l -1.68983,9.36053 -3.0708,4.91165 c -2.90732,4.65018 -3.20252,5.00054 -5.54518,6.58135 -3.56326,2.40447 -10.4295,4.88082 -23.78442,8.57802 -0.43167,0.1195 -0.55179,0.0718 -0.33596,-0.13349 z"
       id="path47964"
       transform="scale(0.26458333)" />
    <path
       style="fill:#666666;fill-opacity:1;stroke:none;stroke-width:0.335963;stroke-opacity:1"
       d="M 10.06242,194.27061 8.5670566,178.9003 8.4539147,155.55087 C 8.3596883,136.1051 8.5249169,124.7873 9.4422169,87.854326 l 1.1014441,-44.347117 2.875272,-2.972365 c 1.5814,-1.6348 5.415945,-5.402161 8.52121,-8.371911 l 5.645938,-5.399546 16.527622,-2.313699 16.527619,-2.313699 13.606502,0.342075 13.606502,0.342075 8.735038,1.849421 c 5.783376,1.224483 13.991516,3.357366 24.290866,6.311979 l 15.55584,4.462558 6.85585,5.05633 6.85586,5.05633 9.23657,11.811896 9.23657,11.811895 1.84434,7.321111 1.84433,7.321111 0.69631,22.84548 c 0.89375,29.32379 0.90585,47.01221 0.0392,57.30414 l -0.63842,7.58161 -7.01648,11.4003 -7.01648,11.4003 -12.58219,5.42767 -12.5822,5.42767 -5.03944,-0.16773 c -3.67597,-0.12234 -10.08434,0.15653 -23.6854,1.03072 -10.255266,0.65914 -24.693276,1.43068 -32.084463,1.71452 -7.391186,0.28384 -21.215465,0.81699 -30.720621,1.18477 -9.505155,0.36778 -20.170993,0.66869 -23.701862,0.66869 h -6.41976 z m 100.13345,5.90997 16.2942,0.11461 10.41485,-3.04074 c 12.57956,-3.67276 17.90262,-5.67072 21.39006,-8.02861 2.48441,-1.67972 2.68957,-1.92445 5.7622,-6.87354 l 3.18607,-5.13182 1.8813,-10.41485 1.8813,-10.41485 0.004,-17.63806 c 0.004,-15.03421 -0.14893,-20.71308 -1.03357,-38.46776 l -1.03786,-20.829709 -7.22897,-12.598613 c -3.97592,-6.929237 -7.58526,-12.976571 -8.02075,-13.43852 -0.43549,-0.461949 -3.40737,-3.079344 -6.60418,-5.816434 l -5.81238,-4.976526 -8.71922,-4.028373 c -9.02398,-4.16918 -10.60183,-4.722644 -23.36524,-8.195847 L 102.30073,28.526769 83.150844,27.648363 64.000952,26.769958 53.250136,27.702956 42.49932,28.635954 32.179286,32.208007 21.859253,35.78006 18.014757,46.194913 14.170261,56.609766 13.606044,89.366159 c -0.48904,28.391891 -0.510524,36.874701 -0.16124,63.664991 l 0.402978,30.90859 2.695133,8.35975 2.695134,8.35974 37.331805,-0.29663 c 20.532493,-0.16315 44.664196,-0.24506 53.626016,-0.18202 z"
       id="path48040"
       transform="scale(0.26458333)" />
    <path
       style="fill:#666666;fill-opacity:1;stroke:none;stroke-width:0.335963;stroke-opacity:1"
       d="m 43.339228,450.32574 c -0.831509,-0.0754 -3.023667,-0.30348 -4.871464,-0.50681 -1.847797,-0.20333 -6.762034,-0.47141 -10.920528,-0.59574 -7.128585,-0.21311 -7.656847,-0.27356 -9.238983,-1.05724 -2.571744,-1.27387 -3.21597,-2.84596 -3.552535,-8.66921 -1.067351,-18.46731 -2.989967,-155.69615 -2.995591,-213.81359 l -0.0014,-14.69838 7.475177,-0.002 c 11.859859,-0.003 66.48512,-2.22231 86.930426,-3.5312 17.37813,-1.11253 19.10282,-1.16962 25.36521,-0.83954 3.69559,0.19479 8.52018,0.58624 10.7213,0.86988 20.7057,2.6682 44.581,11.97044 64.02897,24.94684 5.4132,3.61189 8.9913,6.86684 16.27268,14.80305 12.07715,13.16328 20.35021,24.53142 22.15369,30.44175 4.51242,14.78795 5.60807,18.6323 7.56432,26.54108 5.75888,23.28219 7.18899,44.2138 4.2269,61.86647 -2.79277,16.64361 -9.26865,31.27678 -20.40982,46.11887 -7.61241,10.14113 -15.88613,17.15299 -26.76005,22.67876 -16.85271,8.564 -36.84143,12.77721 -67.88709,14.30919 -10.0651,0.49667 -94.38759,1.4748 -98.10119,1.13795 z m 24.69328,-7.55369 c 7.206407,-0.199 31.773701,-0.63638 54.593992,-0.97195 l 41.49143,-0.61014 15.36629,-4.04329 15.3663,-4.04328 12.51863,-6.0951 c 6.88525,-3.3523 12.83971,-6.30195 13.23214,-6.55477 0.39243,-0.25283 4.71965,-6.10028 9.61605,-12.99434 l 8.90253,-12.53467 4.88914,-10.58283 c 4.34218,-9.39893 5.0485,-11.18418 6.31373,-15.95825 l 1.42461,-5.3754 -0.0749,-10.24688 -0.0749,-10.24687 -3.35844,-17.63805 -3.35844,-17.63806 -4.39724,-11.75871 c -3.86756,-10.34228 -5.03596,-13.03348 -9.69967,-22.34154 l -5.30243,-10.58283 -10.29211,-10.75082 -10.29211,-10.75081 -7.1826,-3.43552 c -5.73647,-2.74381 -10.78868,-4.74875 -25.09307,-9.95804 l -17.91046,-6.52252 -16.7918,-1.95369 -16.7918,-1.95369 -7.22955,0.74036 c -36.527133,3.74065 -31.55404,3.38931 -53.148156,3.75485 -24.499605,0.41472 -31.710419,0.90879 -37.201557,2.54897 l -1.817109,0.54276 0.222567,12.82174 c 0.789547,45.48458 1.175836,55.46085 4.919454,127.04916 l 3.636732,69.54434 3.255024,3.02367 3.255024,3.02367 8.451137,1.39162 c 4.648126,0.76539 8.677911,1.40762 8.955081,1.42717 0.277169,0.0195 6.400095,-0.12727 13.606501,-0.32626 z"
       id="path48210"
       transform="scale(0.26458333)" />
    <path
       style="fill:#ffcc00;fill-opacity:1;stroke:none;stroke-width:0.335963;stroke-opacity:1"
       d="m 45.899383,440.42529 -8.02268,-1.32847 -2.962575,-2.70464 c -2.651357,-2.42051 -2.980714,-2.85249 -3.135252,-4.11213 -0.09497,-0.77412 -1.765657,-32.2489 -3.712631,-69.94395 -3.612623,-69.94338 -3.983084,-79.56283 -4.763446,-123.68804 l -0.226728,-12.82024 1.31255,-0.37182 c 5.396838,-1.52883 12.235951,-1.98503 35.899668,-2.39468 11.100611,-0.19216 21.879416,-0.5416 24.525299,-0.79508 2.596302,-0.24874 11.834704,-1.17898 20.529772,-2.06722 l 15.80922,-1.61496 16.59363,1.93489 16.59363,1.93489 17.82362,6.507 c 13.65776,4.98613 19.44393,7.27753 24.75613,9.80375 l 6.93252,3.29675 10.31062,10.75082 10.31062,10.75082 5.01947,10.00283 c 4.38203,8.73256 5.59619,11.54218 9.56088,22.12439 l 4.54141,12.12155 3.23344,16.67934 3.23343,16.67934 0.24967,10.24687 0.24967,10.24687 -1.50602,5.86017 c -1.39649,5.43396 -1.85108,6.6068 -6.2505,16.12622 l -4.74447,10.26606 -8.83888,12.47729 c -4.86138,6.86251 -9.0258,12.62534 -9.25425,12.80629 -0.22846,0.18095 -6.08475,3.0892 -13.01399,6.46279 l -12.59861,6.13378 -15.79026,4.10358 -15.79026,4.10359 -32.42043,0.40368 c -28.99387,0.36102 -49.360405,0.70802 -69.712328,1.18775 -6.610599,0.15583 -6.848999,0.1369 -14.741939,-1.17008 z m 82.686407,-14.84415 c 0.38556,-0.41576 1.69697,-2.58251 2.91425,-4.81501 2.51789,-4.61781 2.7432,-5.84236 1.37432,-7.46919 -1.05668,-1.25579 -2.19836,-1.55 -3.65424,-0.9417 -0.96055,0.40135 -1.51013,1.15291 -3.50496,4.79316 -2.90948,5.30935 -3.16093,6.67302 -1.53102,8.30293 1.1794,1.1794 3.36842,1.24395 4.40165,0.12981 z M 38.527637,401.64809 c 1.062536,-0.74424 5.483517,-9.01418 5.483517,-10.25755 0,-2.11905 -1.505866,-3.68923 -3.53812,-3.68923 -1.356501,0 -2.679846,1.62464 -5.022814,6.16642 -2.502581,4.85118 -2.596099,5.69367 -0.81654,7.35609 1.123282,1.04934 2.748694,1.22644 3.893957,0.42427 z M 183.45441,390.71502 c 0.84181,-0.45053 1.66121,-2.05767 1.66121,-3.25824 0,-1.29475 -0.7931,-2.3248 -2.10081,-2.72849 -2.28918,-0.70666 -9.59093,-1.82012 -10.47718,-1.59768 -1.57605,0.39556 -2.54035,1.65619 -2.54035,3.32099 0,2.26504 0.80303,2.80462 5.58119,3.75021 4.42207,0.87511 6.89823,1.03646 7.87594,0.51321 z m -82.43184,-4.3833 c 34.2224,-2.87739 61.90585,-25.41261 67.95343,-55.31627 4.25762,-21.05279 -2.81219,-42.66362 -19.0583,-58.25703 -13.26393,-12.73104 -31.03783,-20.26448 -50.61139,-21.45157 -16.458223,-0.99815 -28.10477,2.71618 -34.68689,11.06237 -3.31662,4.20551 -6.120655,11.18605 -7.294704,18.15989 -1.352154,8.03179 -1.386876,9.06215 -1.386876,41.15547 0,28.2548 0.05763,31.6464 0.602295,35.44409 1.746157,12.17525 5.200236,18.90228 12.117577,23.59976 6.830531,4.63853 18.928424,6.73302 32.364858,5.60329 z M 218.6274,334.78917 c 1.22828,-1.42795 0.97708,-2.56546 -1.65026,-7.47295 -2.54047,-4.7452 -3.2408,-5.46366 -5.32585,-5.46366 -1.49026,0 -2.33028,0.55144 -2.89354,1.8995 -0.62124,1.48685 -0.53369,1.75011 2.30451,6.92936 1.52475,2.7824 2.66408,4.46893 3.2374,4.79222 1.30101,0.73364 3.39246,0.40286 4.32774,-0.68447 z M 40.315561,329.60718 c 0.461949,-0.54181 1.803339,-2.8565 2.980868,-5.14376 2.373973,-4.61127 2.471813,-5.46563 0.81558,-7.12186 -1.158683,-1.15869 -3.361229,-1.21339 -4.368343,-0.10849 -1.407102,1.54371 -5.139477,8.86011 -5.139477,10.07466 0,3.15442 3.709178,4.64776 5.711372,2.29945 z M 172.56242,256.83849 c 0.39454,-0.25501 2.09535,-1.98031 3.77959,-3.83399 2.74399,-3.02006 3.06223,-3.50462 3.06223,-4.66245 0,-1.45513 -0.90666,-2.55312 -2.41788,-2.92811 -1.79966,-0.44657 -3.08142,0.37699 -6.62296,4.2554 -2.80689,3.07387 -3.38979,3.89593 -3.38979,4.7806 0,2.65676 3.11452,3.98784 5.58881,2.38855 z M 41.006096,248.60266 c 0.964661,-0.51627 1.754228,-2.25995 1.495138,-3.30186 -0.388713,-1.56318 -4.908266,-9.12618 -5.804683,-9.71353 -2.229659,-1.46093 -5.288121,0.0111 -5.249291,2.52651 0.02433,1.576 4.597229,9.65508 5.861111,10.355 0.986783,0.54646 2.803885,0.61225 3.697725,0.13388 z M 98.5657,238.54873 c 1.155746,-0.43942 2.01162,-1.82545 1.75603,-2.84379 -0.29746,-1.18518 -7.382608,-7.16675 -9.00713,-7.60419 -3.436529,-0.92536 -6.426485,1.52935 -4.635759,3.80589 0.925844,1.17702 6.432214,5.84554 7.634031,6.47243 1.071705,0.55903 3.023882,0.6369 4.252828,0.16966 z"
       id="path48249"
       transform="scale(0.26458333)" />
  </g>
</svg>
