<?xml version="1.0" encoding="UTF-8" standalone="no"?>
<!-- Created with Inkscape (http://www.inkscape.org/) -->

<svg
   width="210mm"
   height="297mm"
   viewBox="0 0 210 297"
   version="1.1"
   id="svg5"
   inkscape:version="1.1.1 (3bf5ae0d25, 2021-09-20)"
   sodipodi:docname="bonuts.svg"
   inkscape:export-filename="O:\OneDrive\Документы\рисунок.png"
   inkscape:export-xdpi="96"
   inkscape:export-ydpi="96"
   xmlns:inkscape="http://www.inkscape.org/namespaces/inkscape"
   xmlns:sodipodi="http://sodipodi.sourceforge.net/DTD/sodipodi-0.dtd"
   xmlns="http://www.w3.org/2000/svg"
   xmlns:svg="http://www.w3.org/2000/svg">
  <sodipodi:namedview
     id="namedview7"
     pagecolor="#ffffff"
     bordercolor="#666666"
     borderopacity="1.0"
     inkscape:pageshadow="2"
     inkscape:pageopacity="0.0"
     inkscape:pagecheckerboard="0"
     inkscape:document-units="mm"
     showgrid="false"
     showguides="true"
     inkscape:guide-bbox="true"
     inkscape:zoom="0.77611885"
     inkscape:cx="-327.91369"
     inkscape:cy="-9.6634684"
     inkscape:window-width="1920"
     inkscape:window-height="1017"
     inkscape:window-x="-8"
     inkscape:window-y="-8"
     inkscape:window-maximized="1"
     inkscape:current-layer="layer1" />
  <defs
     id="defs2" />
  <g
     inkscape:label="Слой 1"
     inkscape:groupmode="layer"
     id="layer1">
    <path
       id="path5765"
       style="fill:#f9f9f9;fill-opacity:0;stroke:#000000;stroke-width:0.295669"
       d="m 62.207631,109.7543 c -8.055732,10.44823 -25.047242,9.84463 -39.583948,10.08967 -20.6216119,0 -18.5386691,-1.26708 -18.7702812,-34.296835 C 3.6865753,61.756226 0.54751685,50.804209 5.2416813,47.40424 c 0.7110361,7.554398 10.4267197,8.243046 15.9637617,9.278515 0,0 3.327333,-1.072464 4.933354,-1.241737 1.56099,-0.164527 10.039321,-2.706219 14.177313,-0.662655 16.449877,8.123834 16.449877,8.123834 16.449877,8.123834 8.726131,8.926162 8.314054,11.068731 8.314054,11.068731 5.860246,17.762949 3.631276,27.443272 -2.87241,35.783372 z"
       sodipodi:nodetypes="ccscsssscc"
       inkscape:export-filename="O:\OneDrive\Документы\path5765.png"
       inkscape:export-xdpi="96"
       inkscape:export-ydpi="96" />
    <path
       id="path5765-8"
       style="fill:#f9f9f9;fill-opacity:0;stroke:#000000;stroke-width:0.151601"
       d="m 44.920108,84.364467 c 0,9.83671 -8.949333,17.810933 -19.988898,17.810933 -11.039564,0 -10.048475,-7.006238 -10.048474,-16.842937 -10e-7,-9.83671 -0.99109,-18.778918 10.048474,-18.778918 11.039565,0 19.988898,7.974223 19.988898,17.810922 z"
       sodipodi:nodetypes="sssss"
       inkscape:export-filename="O:\OneDrive\Документы\path5765.png"
       inkscape:export-xdpi="96"
       inkscape:export-ydpi="96" />
    <path
       id="path5765-8-3"
       style="fill:#ffffff;fill-opacity:0;stroke:#000000;stroke-width:0.106589"
       d="m 38.259431,84.13588 c 0,7.895197 -5.511939,14.295518 -12.311255,14.295518 -6.799327,0 -6.188913,-5.623387 -6.188913,-13.518572 0,-7.895196 -0.610414,-15.072441 6.188913,-15.072441 6.799316,0 12.311255,6.400321 12.311255,14.295495 z"
       sodipodi:nodetypes="sssss"
       inkscape:export-filename="O:\OneDrive\Документы\path5765.png"
       inkscape:export-xdpi="96"
       inkscape:export-ydpi="96" />
    <path
       id="path5765-8-9"
       style="fill:#f9f9f9;stroke:#000000;stroke-width:0.151601"
       d="m 100.44429,98.417003 c 0,9.836717 -8.949326,17.810937 -19.988888,17.810937 -11.039564,0 -10.048475,-7.00624 -10.048474,-16.842941 -10e-7,-9.83671 -0.99109,-18.778917 10.048474,-18.778917 11.039562,0 19.988888,7.974222 19.988888,17.810921 z"
       sodipodi:nodetypes="sssss" />
    <path
       id="path5765-8-3-8"
       style="fill:#f9f9f9;stroke:#000000;stroke-width:0.106589"
       d="m 93.783614,98.188417 c 0,7.895193 -5.51193,14.295523 -12.311246,14.295523 -6.799327,0 -6.188913,-5.62339 -6.188913,-13.518578 0,-7.895196 -0.610414,-15.072441 6.188913,-15.072441 6.799316,0 12.311246,6.400321 12.311246,14.295496 z"
       sodipodi:nodetypes="sssss" />
    <path
       id="path6471"
       style="fill:#f9f9f9;stroke:#000000;stroke-width:0.323067"
       d="m 48.646012,24.709212 c 0,10.01717 1.630202,18.23757 -1.658393,24.177425 -1.354932,2.447262 -8.59434,6.292257 -12.657737,6.292257 -14.488875,0 -24.791433,4.127304 -29.3721065,-0.652191 C 0.53592275,49.912924 2.7694062,31.390044 2.6562858,24.443532 2.4872147,14.061157 1.210935,11.825275 4.5612943,8.1510206 9.209998,3.0529059 18.053818,2.7187388 26.660307,4.3520199 36.416406,6.2034661 48.646012,10.564899 48.646012,24.709212 Z"
       sodipodi:nodetypes="ssssssss"
       inkscape:export-filename="O:\OneDrive\Документы\path5765.png"
       inkscape:export-xdpi="96"
       inkscape:export-ydpi="96" />
    <path
       id="path6471-3"
       style="fill:none;stroke:#000000;stroke-width:0.323067"
       d="m 48.646012,24.709212 c 0,10.01717 1.630202,18.23757 -1.658393,24.177425 -1.354932,2.447262 -8.59434,6.292257 -12.657737,6.292257 -14.488875,0 -24.791433,4.127304 -29.3721065,-0.652191 C 0.53592275,49.912924 2.7694062,31.390044 2.6562858,24.443532 2.4872147,14.061157 1.210935,11.825275 4.5612943,8.1510206 9.209998,3.0529059 18.053818,2.7187388 26.660307,4.3520199 36.416406,6.2034661 48.646012,10.564899 48.646012,24.709212 Z"
       sodipodi:nodetypes="ssssssss"
       inkscape:export-filename="O:\OneDrive\Документы\path5765.png"
       inkscape:export-xdpi="96"
       inkscape:export-ydpi="96" />
    <ellipse
       style="fill:none;stroke:#000000;stroke-width:0.352401"
       id="path7745"
       cx="24.235743"
       cy="28.835564"
       rx="12.282983"
       ry="12.192683"
       inkscape:export-filename="O:\OneDrive\Документы\path5765.png"
       inkscape:export-xdpi="96"
       inkscape:export-ydpi="96" />
    <path
       style="fill:none;stroke:#000000;stroke-width:0.295669px;stroke-linecap:butt;stroke-linejoin:miter;stroke-opacity:1"
       d="m 3.3719196,32.139165 0.2365548,-1.029092 c 0,0 1.2366295,-6.959733 3.6590726,-7.410411 l 6.482191,-1.856951 1.911707,-1.418902"
       id="path7863"
       sodipodi:nodetypes="ccccc"
       inkscape:export-filename="O:\OneDrive\Документы\path5765.png"
       inkscape:export-xdpi="96"
       inkscape:export-ydpi="96" />
    <path
       style="fill:none;stroke:#000000;stroke-width:0.295669px;stroke-linecap:butt;stroke-linejoin:miter;stroke-opacity:1"
       d="m 34.740156,22.236927 5.421862,2.460802 c 1.5629,1.455337 4.906267,12.703699 5.860155,11.77999 l 0.07646,-5.376888 0.48821,-3.602655 -0.04776,-4.750721 -0.389016,-2.643374 -0.696321,-2.988936 -1.52656,-3.202408 L 41.051524,10.424682 39.14383,8.7924886 29.550701,4.5163979"
       id="path7865"
       sodipodi:nodetypes="cccccccccccc"
       inkscape:export-filename="O:\OneDrive\Документы\path5765.png"
       inkscape:export-xdpi="96"
       inkscape:export-ydpi="96" />
    <path
       style="fill:none;stroke:#000000;stroke-width:0.295669px;stroke-linecap:butt;stroke-linejoin:miter;stroke-opacity:1"
       d="m 34.259462,52.014652 6.45153,-3.6594 2.81943,-2.48977 1.260299,-3.344826 c 0.286347,-1.247051 -2.07983,-3.938688 1.623723,-3.517115 l 1.103317,-0.235675"
       id="path9733"
       sodipodi:nodetypes="cccccc"
       inkscape:export-filename="O:\OneDrive\Документы\path5765.png"
       inkscape:export-xdpi="96"
       inkscape:export-ydpi="96" />
    <path
       style="fill:none;stroke:#000000;stroke-width:0.295669px;stroke-linecap:butt;stroke-linejoin:miter;stroke-opacity:1"
       d="m 2.4472025,31.698125 c 0,0 0,0 0,0 z"
       id="path11157"
       inkscape:export-filename="O:\OneDrive\Документы\path5765.png"
       inkscape:export-xdpi="96"
       inkscape:export-ydpi="96" />
    <path
       style="fill:none;stroke:#000000;stroke-width:0.295669px;stroke-linecap:butt;stroke-linejoin:miter;stroke-opacity:1"
       d="M 3.3719185,32.139164 3.9712013,8.9620506 8.5110516,4.5284274 17.499953,3.287015 l 7.082167,0.1773434 4.968579,1.0520395 8.015388,2.3175142 3.660751,2.6966125 4.920525,6.2967214 0.975623,3.811172 0.339348,10.853552 0.05543,8.275894 -0.352356,4.317544 -3.77523,6.131015 -6.744516,2.899803 -2.386195,-0.101577 -10.127208,0.640113 -17.0521665,0.04142 -2.6528747,-2.916427 -0.9962921,-5.099068 z"
       id="path11762"
       sodipodi:nodetypes="ccccccccccccccccccccc"
       inkscape:export-filename="O:\OneDrive\Документы\path5765.png"
       inkscape:export-xdpi="96"
       inkscape:export-ydpi="96" />
    <ellipse
       style="fill:none;stroke:#000000;stroke-width:0.340069"
       id="path11802"
       cx="24.582905"
       cy="29.060488"
       rx="7.9968696"
       ry="8.0673723"
       inkscape:export-filename="O:\OneDrive\Документы\path5765.png"
       inkscape:export-xdpi="96"
       inkscape:export-ydpi="96" />
    <path
       style="fill:none;stroke:#000000;stroke-width:0.104276"
       d="m 45.244448,35.342356 c -0.272094,-0.512345 -1.143812,-2.52952 -1.93715,-4.482613 -1.492624,-3.674635 -2.390169,-5.619499 -2.811199,-6.091507 -0.154845,-0.17359 -1.210226,-0.709542 -2.891617,-1.468441 -1.456278,-0.657292 -2.690835,-1.196727 -2.74346,-1.19874 -0.05262,-0.0021 -0.356834,-0.356252 -0.676025,-0.787196 -1.172475,-1.582967 -3.13357,-3.100871 -5.053691,-3.911594 -2.665543,-1.12546 -5.969239,-1.26995 -8.756033,-0.382957 -1.946165,0.619435 -3.534601,1.626544 -5.339064,3.385107 l -1.268859,1.236583 -3.472445,0.978962 c -2.4173794,0.681514 -3.5880831,1.059943 -3.8530338,1.245492 -0.8149099,0.57069 -1.7155496,2.277329 -2.3863906,4.522013 l -0.3551265,1.188272 0.0032,-1.545728 c 0.0018,-0.850151 0.1063684,-5.452449 0.2324498,-10.227331 l 0.2292434,-8.6816014 2.2686295,-2.2110899 2.2686258,-2.21109 4.5372564,-0.6131973 4.537252,-0.6131943 3.376564,0.095358 3.37656,0.095362 2.473434,0.5234864 2.473434,0.5234892 4.754518,2.1179371 c 4.60811,2.0527218 4.781613,2.1404608 5.634418,2.8492518 0.56465,0.4692994 1.417371,1.3795084 2.380051,2.5404994 1.418451,1.710647 1.541415,1.895855 2.257712,3.400601 0.633807,1.33146 0.816284,1.843913 1.11708,3.137149 0.506673,2.178373 0.682611,3.678681 0.737142,6.285962 0.04145,1.981958 0.01556,2.500336 -0.205978,4.12194 -0.175164,1.282221 -0.256798,2.395716 -0.264424,3.6067 -0.0061,0.963504 -0.04193,2.145988 -0.07969,2.627738 l -0.06866,0.875914 z"
       id="path12213"
       inkscape:export-filename="O:\OneDrive\Документы\path5765.png"
       inkscape:export-xdpi="96"
       inkscape:export-ydpi="96" />
    <path
       style="fill:none;stroke:#000000;stroke-width:0.104276"
       d="m 45.109604,34.755529 c -0.276751,-0.581816 -1.061712,-2.402632 -1.744356,-4.046258 -1.532954,-3.690923 -2.142227,-5.049858 -2.535898,-5.656086 -0.274095,-0.422086 -0.453366,-0.541939 -1.760106,-1.176717 -0.800207,-0.388721 -2.078706,-0.977272 -2.841103,-1.307892 -1.358376,-0.589078 -1.396944,-0.614925 -1.923172,-1.288795 -1.125765,-1.441615 -2.967986,-2.933166 -4.632209,-3.750448 -1.415325,-0.695054 -3.700141,-1.195335 -5.459172,-1.195335 -0.44938,0 -1.30968,0.07144 -1.911776,0.158746 -2.795238,0.405341 -4.787854,1.445257 -7.304865,3.812294 l -1.335112,1.255558 -1.002418,0.278126 C 9.9330475,22.595168 7.275687,23.392757 6.7980421,23.597974 6.485894,23.732089 6.0999689,24.014352 5.8660142,24.27966 5.3671806,24.845342 4.6595663,26.255248 4.1647778,27.669339 l -0.3785921,1.082009 0.063563,-2.885358 c 0.034961,-1.586949 0.1071489,-4.554746 0.16042,-6.595109 0.053271,-2.040361 0.1292381,-5.131715 0.1688179,-6.869678 l 0.071964,-3.1599314 2.2785387,-2.2229821 2.2785383,-2.222982 4.5219604,-0.6156254 4.521961,-0.6156253 3.28634,0.099178 3.286336,0.099178 2.505609,0.5236587 2.505609,0.5236588 4.107325,1.8364156 c 2.259031,1.0100277 4.43274,2.0034137 4.830465,2.2075217 1.284971,0.659431 2.18199,1.5050214 4.218556,3.9766804 1.009697,1.225409 2.048485,3.127249 2.56098,4.688709 0.380265,1.158577 0.798735,3.252546 0.948373,4.745516 0.174271,1.73874 0.14999,5.345297 -0.04575,6.79592 -0.09177,0.680121 -0.211105,2.460284 -0.265184,3.95592 -0.05407,1.495635 -0.116211,2.736802 -0.138069,2.75815 -0.02187,0.02136 -0.266178,-0.437215 -0.542928,-1.019034 z"
       id="path12252"
       inkscape:export-filename="O:\OneDrive\Документы\path5765.png"
       inkscape:export-xdpi="96"
       inkscape:export-ydpi="96" />
    <path
       style="fill:#ffcc00;stroke:#000000;stroke-width:0.104276"
       d="m 45.107663,34.446726 c -0.219397,-0.468652 -1.01339,-2.312807 -1.764433,-4.098125 -1.5293,-3.635338 -2.305596,-5.292109 -2.648369,-5.652163 -0.236079,-0.247978 -2.657197,-1.465466 -4.553188,-2.289624 -1.071687,-0.465846 -1.172266,-0.545032 -2.255071,-1.775416 -1.668184,-1.895542 -4.046795,-3.381994 -6.30841,-3.942276 -2.317136,-0.574038 -4.581182,-0.571344 -6.793923,0.0081 -2.05311,0.537623 -3.559655,1.44925 -5.908982,3.575594 l -1.318971,1.19378 -1.582763,1.259649 c -0.843198,0.671069 -1.469019,8.59983 -2.3617245,8.880726 C 8.1733676,32.059559 7.1946752,32.889713 6.4463022,30.605561 6.2090356,29.88139 4.9032386,25.486363 4.3123802,26.970849 l -0.4215648,1.059145 0.056714,-1.803348 C 3.9787264,25.234803 4.081199,21.03815 4.1752524,16.900749 L 4.3462575,9.3782056 6.6340381,7.1331492 8.9218156,4.8880921 13.402177,4.2725836 17.882535,3.6570723 21.15358,3.76451 l 3.271045,0.1074354 2.472276,0.5159567 2.472276,0.5159566 2.909117,1.2960583 c 4.861097,2.1656956 6.630956,3.0427476 7.393911,3.6640446 0.779626,0.6348754 2.520832,2.5894844 3.358749,3.7704034 2.020221,2.847198 2.930881,6.119279 3.04571,10.943503 0.04254,1.78703 0.01313,2.907725 -0.112198,4.276515 -0.09342,1.020179 -0.218361,2.87161 -0.27766,4.114289 -0.0593,1.24268 -0.124116,2.275331 -0.144031,2.294776 -0.01993,0.01946 -0.215712,-0.348083 -0.435108,-0.816737 z"
       id="path12291"
       sodipodi:nodetypes="sssssssscsssscsscccccccccsssssssss"
       inkscape:export-filename="O:\OneDrive\Документы\path5765.png"
       inkscape:export-xdpi="96"
       inkscape:export-ydpi="96" />
    <path
       style="fill:#ffcc00;stroke:#000000;stroke-width:0.104276"
       d="m 35.043759,51.837121 c 0.02738,-0.02674 1.345834,-0.785568 2.929884,-1.686275 2.67694,-1.522131 2.979167,-1.724042 4.284701,-2.86249 l 1.40461,-1.22485 0.656618,-1.700302 c 0.739005,-1.91364 0.777996,-2.218576 0.429646,-3.360186 -0.465675,-1.526107 -0.217216,-1.882879 1.253746,-1.800321 0.203121,0.0114 0.571115,-0.02356 0.817761,-0.07769 0.535033,-0.117422 0.504986,-0.335527 0.29131,2.114373 l -0.15446,1.770979 -1.864471,3.026538 -1.864472,3.026541 -3.286216,1.411157 -3.286217,1.411154 h -0.831117 c -0.457114,0 -0.808708,-0.02189 -0.781323,-0.04862 z"
       id="path12367"
       inkscape:export-filename="O:\OneDrive\Документы\path5765.png"
       inkscape:export-xdpi="96"
       inkscape:export-ydpi="96" />
    <path
       style="fill:none;stroke:#000000;stroke-width:0.295669px;stroke-linecap:butt;stroke-linejoin:miter;stroke-opacity:1"
       d="m 12.764937,33.440059 c -0.738625,2.267068 -0.316553,4.740233 -0.316553,4.740233 l 2.637937,1.442679 3.693115,0.309148"
       id="path12833"
       sodipodi:nodetypes="cccc"
       inkscape:export-filename="O:\OneDrive\Документы\path5765.png"
       inkscape:export-xdpi="96"
       inkscape:export-ydpi="96" />
    <path
       style="fill:#008000;stroke:#000000;stroke-width:0.104276"
       d="m 16.059957,39.512499 c -0.808334,-0.0763 -0.966169,-0.132881 -2.133093,-0.76477 -1.179563,-0.638731 -1.264697,-0.705961 -1.330987,-1.051034 -0.08786,-0.457387 0.01778,-2.962539 0.142313,-3.375149 0.09041,-0.299506 0.09768,-0.29261 0.543743,0.515243 0.248662,0.450346 0.683911,1.124272 0.967224,1.497611 0.669404,0.88212 2.090764,2.210272 3.009624,2.812264 l 0.72702,0.476307 -0.526461,-0.01406 c -0.289556,-0.0077 -0.919276,-0.05112 -1.399383,-0.09643 z"
       id="path12967"
       inkscape:export-filename="O:\OneDrive\Документы\path5765.png"
       inkscape:export-xdpi="96"
       inkscape:export-ydpi="96" />
    <path
       style="fill:#008000;stroke:#000000;stroke-width:0.104276"
       d="m 7.2372201,52.323706 c -0.016904,0 -1.737244,-0.827824 -2.7030504,-2.654969 C 3.7713878,48.225684 3.7174527,46.047185 3.6932483,43.582109 L 3.5808606,32.135494 3.9059066,30.701043 c 0.4112008,-1.814674 0.9477203,-3.557595 1.0720307,-3.482566 0.1538974,0.09289 0.543781,1.02329 1.030988,2.460309 0.5443913,1.605674 0.7474186,2.020764 1.1342564,2.318981 0.3675609,0.283357 1.0381979,0.248794 2.0194039,-0.104073 0.9736804,-0.350165 0.8816704,-0.06939 2.1272344,-6.491418 0.467204,-2.408852 0.702175,-2.831905 1.744386,-3.140652 0.28716,-0.08507 0.556491,-0.155173 0.598511,-0.155787 0.04202,-5.84e-4 -0.06849,0.23887 -0.245584,0.532191 -1.724498,2.85632 -2.135708,6.898163 -1.029614,10.120255 0.197803,0.576214 0.199719,0.637621 0.03852,1.236579 -0.197473,0.733699 -0.318357,3.200168 -0.18998,3.876289 l 0.08804,0.463719 1.369733,0.740028 1.369731,0.740028 1.318971,0.110894 c 0.725434,0.06099 1.603865,0.132134 1.952074,0.158092 0.348209,0.02595 1.091197,0.208722 1.65109,0.406146 1.544711,0.544676 2.566425,0.720323 4.205133,0.722924 1.595664,0.0026 2.578612,-0.139308 3.919555,-0.565577 3.765339,-1.196956 6.771418,-4.142254 8.012123,-7.850122 0.842187,-2.516883 0.838378,-5.458958 -0.01029,-7.932729 -0.169683,-0.494612 -0.452301,-1.177476 -0.628048,-1.517479 -0.175748,-0.34 -0.319539,-0.638311 -0.319539,-0.662908 0,-0.07547 4.788669,2.121023 4.987409,2.287659 0.332657,0.278923 1.297443,2.365287 2.771329,5.993033 1.947921,4.794512 2.516612,5.859293 3.07378,5.755131 0.180423,-0.03374 0.199756,-0.235435 0.274994,-2.868926 0.05109,-1.788353 0.158068,-3.403487 0.290172,-4.381066 0.300962,-2.227107 0.297826,-6.305597 -0.0063,-8.222309 C 46.093231,18.520295 45.676779,17.04885 44.858273,15.35504 44.173784,13.938565 43.990954,13.662825 42.671798,12.057488 41.762644,10.951095 40.873813,9.9963606 40.259342,9.4661566 39.29955,8.6379926 39.244861,8.6081576 36.210218,7.2571526 34.518313,6.503924 33.156248,5.8659461 33.183408,5.8394241 c 0.02716,-0.026531 0.987744,0.2205211 2.134632,0.5489944 l 2.085249,0.5972204 1.833538,1.3477587 1.833539,1.347754 2.443568,3.1238904 2.443567,3.123893 0.493056,1.98012 0.493053,1.980123 0.164252,5.461574 c 0.192789,6.410469 0.21781,13.195479 0.04904,13.297348 -0.06175,0.03727 -0.619682,0.10108 -1.239831,0.141803 -1.185969,0.07787 -1.509925,0.192275 -1.700388,0.60051 -0.167669,0.359386 -0.141357,0.666229 0.160474,1.871349 l 0.273502,1.091999 -0.669193,1.711435 -0.669189,1.711432 -1.345271,1.191969 c -1.27441,1.129177 -1.510091,1.28563 -4.474062,2.969988 -1.720833,0.97791 -3.299674,1.815847 -3.508535,1.862086 -0.208862,0.04624 -2.682667,0.224016 -5.497348,0.395061 -4.933862,0.299827 -5.406218,0.310944 -13.156206,0.309653 -7.5638224,-0.0012 -8.0418505,-0.01198 -8.0936254,-0.181674 z"
       id="path13043"
       sodipodi:nodetypes="ssscssssssscsssscccssscsssssssssscsssssscccccccssssscccsssscss"
       inkscape:export-filename="O:\OneDrive\Документы\path5765.png"
       inkscape:export-xdpi="96"
       inkscape:export-ydpi="96" />
    <path
       style="fill:#ffcc00;stroke:#000000;stroke-width:0.104276"
       d="m 16.052728,39.405351 c -0.627559,-0.07115 -0.97456,-0.18994 -1.82764,-0.625624 -0.579158,-0.295783 -1.175609,-0.648752 -1.325452,-0.784371 l -0.272443,-0.246581 0.0674,-1.595103 c 0.03707,-0.877304 0.09726,-1.642282 0.133751,-1.699951 0.03649,-0.05767 0.233104,0.189163 0.436907,0.548515 0.203804,0.359352 0.515492,0.86204 0.692639,1.117084 0.442033,0.636417 1.881163,2.073644 2.711198,2.707619 0.377224,0.288121 0.730972,0.561912 0.786106,0.608419 0.118884,0.100296 -0.339892,0.09048 -1.402462,-0.03001 z"
       id="path13193"
       inkscape:export-filename="O:\OneDrive\Документы\path5765.png"
       inkscape:export-xdpi="96"
       inkscape:export-ydpi="96" />
    <path
       style="fill:#666666;stroke:#000000;stroke-width:0.104276"
       d="M 9.3302965,54.620527 C 6.7932939,54.170445 5.0511941,53.106455 4.1700764,51.468921 2.3493195,48.085089 1.8796301,41.93389 2.474761,29.266592 2.677534,24.950629 2.6748473,21.078369 2.466234,16.952288 2.1472227,10.643164 2.3624361,9.2427236 3.9655022,7.1963146 6.0444153,4.5424556 9.0945266,2.9418425 13.503572,2.1910036 c 1.145985,-0.1951561 1.720292,-0.2251172 4.378979,-0.2284481 3.173323,-0.00398 3.947387,0.05402 6.891699,0.5163452 11.948252,1.8761417 19.428542,6.3611799 22.162696,13.2883293 0.95233,2.412788 1.163418,3.724958 1.284752,7.986264 0.05245,1.841993 0.17426,5.250324 0.270698,7.57407 0.351198,8.462554 -0.05348,12.048128 -1.71768,15.219159 -0.366403,0.698158 -0.64421,1.057092 -1.261071,1.629339 -1.87421,1.738658 -5.437402,3.619206 -8.532003,4.502935 l -1.266624,0.361713 -3.534839,0.141969 c -4.170883,0.167515 -5.908333,0.305449 -11.554172,0.917258 -2.321386,0.251554 -4.790497,0.504999 -5.486912,0.563209 -1.71032,0.142957 -4.894429,0.119597 -5.8087835,-0.04262 z M 29.682665,52.50103 c 3.203296,-0.203389 5.095897,-0.279934 5.862429,-0.237103 l 1.13197,0.06325 3.432177,-1.471612 3.432179,-1.471611 1.907358,-3.104704 1.907357,-3.104705 0.167556,-1.960966 c 0.227435,-2.661784 0.211179,-9.112035 -0.04115,-16.326551 l -0.19642,-5.616143 -0.468307,-1.766092 -0.46831,-1.766091 -2.493447,-3.192423 -2.493446,-3.1924234 -1.83925,-1.34802 L 37.684114,6.6578098 33.586791,5.4742385 C 31.047621,4.7407645 28.546486,4.092633 27.009804,3.7699129 L 24.53014,3.2491614 20.73151,3.1917229 16.932876,3.1342871 12.676973,3.740469 8.4210706,4.3466508 6.0972731,6.6160734 3.7734762,8.8854986 3.4611456,20.518725 C 3.2021787,30.164402 3.1570997,33.234719 3.19729,38.489437 l 0.048472,6.337486 0.4958986,2.521957 c 0.4600943,2.33988 0.5193639,2.548188 0.8209594,2.885357 0.178787,0.199875 0.8035377,0.891651 1.3883376,1.537284 l 1.0632704,1.173877 8.968992,-0.072 c 8.271815,-0.06641 9.336698,-0.09536 13.699445,-0.372361 z"
       id="path14088"
       inkscape:export-filename="O:\OneDrive\Документы\path5765.png"
       inkscape:export-xdpi="96"
       inkscape:export-ydpi="96" />
    <path
       style="fill:#666666;stroke:#000000;stroke-width:0.104276"
       d="m 22.01096,40.596381 c -2.313634,-0.448954 -4.462162,-1.574909 -6.183417,-3.240478 -1.783302,-1.725608 -3.010459,-4.002389 -3.436865,-6.376524 -0.346695,-1.930322 -0.127832,-4.543464 0.52168,-6.228687 0.607068,-1.57509 1.587233,-3.127211 2.388643,-3.78249 0.288282,-0.235715 0.500449,-0.466016 0.471488,-0.511781 -0.07555,-0.119383 0.98056,-1.035688 1.827402,-1.585495 3.356317,-2.179067 7.494558,-2.589674 11.169583,-1.10828 4.904901,1.977154 8.025761,7.124446 7.439821,12.270642 -0.32986,2.897083 -1.522224,5.328899 -3.591791,7.32542 -1.829876,1.765291 -3.800607,2.785029 -6.264405,3.241467 -1.041465,0.192941 -3.338637,0.190933 -4.342139,-0.0038 z m 4.625726,-3.504152 c 2.455408,-0.649494 4.546322,-2.462525 5.500453,-4.769445 0.491067,-1.187311 0.615725,-1.847779 0.615725,-3.262291 0,-1.414508 -0.124658,-2.074976 -0.615725,-3.262287 -0.768583,-1.858304 -2.362084,-3.491941 -4.199996,-4.30579 -1.173959,-0.519843 -1.904766,-0.664654 -3.354243,-0.664654 -1.449477,0 -2.180285,0.144811 -3.354244,0.664654 -1.837909,0.813849 -3.43141,2.447486 -4.199994,4.30579 -0.49107,1.187311 -0.615724,1.847779 -0.615724,3.262287 0,1.414512 0.124654,2.07498 0.615724,3.262291 1.084056,2.621052 3.533704,4.508373 6.446304,4.966526 0.58476,0.09198 2.526484,-0.02904 3.16172,-0.197081 z"
       id="path14127"
       inkscape:export-filename="O:\OneDrive\Документы\path5765.png"
       inkscape:export-xdpi="96"
       inkscape:export-ydpi="96" />
    <rect
       style="fill:#f9f9f9;stroke:#000000;stroke-width:0.274813"
       id="rect14644"
       width="3.5639443"
       height="1.3916538"
       x="-8.7291574"
       y="15.918086"
       ry="0.69582689"
       inkscape:transform-center-x="0.65374281"
       inkscape:transform-center-y="0.54937276"
       transform="matrix(0.68118855,-0.73210802,0.81693516,0.57672953,0,0)"
       inkscape:export-filename="O:\OneDrive\Документы\path5765.png"
       inkscape:export-xdpi="96"
       inkscape:export-ydpi="96" />
    <rect
       style="fill:#f9f9f9;stroke:#000000;stroke-width:0.274126"
       id="rect14644-3"
       width="3.5818222"
       height="1.3778003"
       x="27.646511"
       y="-7.9499345"
       ry="0.68890017"
       inkscape:transform-center-x="0.63646914"
       inkscape:transform-center-y="-0.56839257"
       transform="matrix(0.82139774,0.57035581,-0.49385035,0.86954691,0,0)"
       inkscape:export-filename="O:\OneDrive\Документы\path5765.png"
       inkscape:export-xdpi="96"
       inkscape:export-ydpi="96" />
    <rect
       style="fill:#f9f9f9;stroke:#000000;stroke-width:0.274822"
       id="rect14644-3-1"
       width="3.5728049"
       height="1.3882968"
       x="8.9056883"
       y="41.505833"
       ry="0.69414842"
       inkscape:transform-center-x="0.70915369"
       inkscape:transform-center-y="0.47935911"
       transform="matrix(0.75420726,-0.65663643,0.75228027,0.65884322,0,0)"
       inkscape:export-filename="O:\OneDrive\Документы\path5765.png"
       inkscape:export-xdpi="96"
       inkscape:export-ydpi="96" />
    <rect
       style="fill:#f9f9f9;stroke:#000000;stroke-width:0.274098"
       id="rect14644-3-1-3"
       width="3.5622842"
       height="1.3850708"
       x="35.870758"
       y="19.323751"
       ry="0.6925354"
       inkscape:transform-center-x="0.48354056"
       inkscape:transform-center-y="-0.69744605"
       transform="matrix(0.66655417,0.7454566,-0.68390504,0.72957104,0,0)"
       inkscape:export-filename="O:\OneDrive\Документы\path5765.png"
       inkscape:export-xdpi="96"
       inkscape:export-ydpi="96" />
    <rect
       style="fill:#f9f9f9;stroke:#000000;stroke-width:0.274822"
       id="rect14644-3-1-3-1"
       width="3.5715306"
       height="1.3887906"
       x="-17.821594"
       y="56.622215"
       ry="0.6943953"
       inkscape:transform-center-x="0.70162741"
       inkscape:transform-center-y="0.48981311"
       transform="matrix(0.7441799,-0.66797924,0.76216276,0.64738545,0,0)"
       inkscape:export-filename="O:\OneDrive\Документы\path5765.png"
       inkscape:export-xdpi="96"
       inkscape:export-ydpi="96" />
    <rect
       style="fill:#f9f9f9;stroke:#000000;stroke-width:0.274403"
       id="rect14644-3-1-3-1-6"
       width="3.5255654"
       height="1.4026107"
       x="-41.873466"
       y="41.711536"
       ry="0.70130533"
       inkscape:transform-center-x="0.13021709"
       inkscape:transform-center-y="0.83261876"
       transform="matrix(0.02958992,-0.99956212,0.99673427,-0.08075139,0,0)"
       inkscape:export-filename="O:\OneDrive\Документы\path5765.png"
       inkscape:export-xdpi="96"
       inkscape:export-ydpi="96" />
    <path
       style="fill:none;stroke:#000000;stroke-width:0.295669"
       id="path21219"
       d="m 131.28884,90.706599 c 0.33558,2.170609 0.43867,4.362951 0.52722,6.553625 0.0791,2.967126 0.10335,5.935536 0.10969,8.903586 -0.038,2.11912 -0.0452,4.23373 0.0707,6.3502 0.0179,0.94425 0.17249,1.87564 0.52254,2.75619 0.41481,1.20045 1.43621,1.12646 2.54684,1.06886 0.94492,-0.18284 1.15567,-0.15361 2.07656,-0.69539 1.63104,-0.95958 3.28316,-1.89723 4.81475,-3.00209 0.45529,-0.32843 0.75158,-0.82773 1.09912,-1.26404 0.97615,-1.22547 1.04226,-1.44387 1.82243,-2.77178 1.33861,-2.3364 1.91596,-4.93343 2.35309,-7.54658 0.29266,-2.015926 0.63578,-4.019492 1.09451,-6.005268 0.0732,-0.323482 0.19676,-0.925379 0.31507,-1.253357 0.0504,-0.139886 0.32459,-0.474478 0.19099,-0.403966 -1.18135,0.724478 -2.36269,1.448968 -3.54404,2.173458 0.051,0.0381 0.11805,0.06162 0.15305,0.114199 0.11493,0.172619 0.19259,0.366353 0.2889,0.54953 0.9459,2.424352 1.43141,4.997334 2.00102,7.525264 0.53675,2.40288 1.07749,4.8073 1.4922,7.23372 0.14302,1.13161 0.33313,2.25659 0.4689,3.3891 0,0 3.9198,-2.01588 3.9198,-2.01588 v 0 c -0.17685,-1.12198 -0.39952,-2.2366 -0.55768,-3.36148 -0.44803,-2.41646 -1.08167,-4.79879 -1.58837,-7.20404 -0.57381,-2.574548 -1.07543,-5.177163 -1.91372,-7.684771 -0.015,-0.03225 -0.56454,-1.326552 -0.74865,-1.253456 -3.95974,1.571958 -3.89036,1.447632 -4.41167,4.047927 -0.41546,1.985345 -0.709,3.98928 -1.01922,5.99249 -0.43358,2.55815 -1.02403,5.09543 -2.34688,7.37596 -0.73783,1.21068 -0.90605,1.59299 -1.84516,2.6925 -0.36299,0.425 -1.72541,1.19015 -1.15927,1.21447 0.9129,0.0392 1.63272,-0.80419 2.47155,-1.15809 0.62912,-0.2654 -2.06923,1.16027 -1.89946,0.76824 -0.51596,0.0507 -1.45179,0.27862 -1.90171,-0.12582 -0.14582,-0.13108 -0.20956,-0.34899 -0.27932,-0.51728 -0.32845,-0.83448 -0.47989,-1.71404 -0.52374,-2.60643 -0.1614,-2.08395 -0.20406,-4.16969 -0.1927,-6.25975 -0.009,-2.97197 -0.005,-5.944284 -0.11784,-8.914776 -0.0717,-2.228851 -0.15822,-4.456775 -0.33786,-6.680126 0,0 -3.95165,2.015051 -3.95165,2.015051 z" />
    <path
       style="fill:none;stroke:#000000;stroke-width:0.295669"
       id="path21221"
       d="m 158.66934,44.012756 c 0.0949,0.21315 0.20144,0.421699 0.28466,0.639445 0.35225,0.921659 0.64913,1.957744 0.91363,2.891918 0.59647,2.106678 0.9436,3.405802 1.4002,5.626707 0.28107,1.36715 0.51227,2.74364 0.76839,4.115459 1.67741,9.326418 2.3759,18.778311 2.92379,28.22064 0.32066,6.656594 0.61702,13.315815 0.58042,19.980935 0.0314,3.47655 0.012,6.95318 -0.0208,10.42963 0,0 3.77384,-1.88109 3.77384,-1.88109 v 0 c -0.0823,-3.44146 -0.16493,-6.88302 -0.18755,-10.32548 -0.12257,-6.634524 -0.40192,-13.266811 -0.81033,-19.89034 -0.70186,-9.438652 -1.62789,-18.859745 -2.97759,-28.233108 -0.68149,-4.613656 -1.3825,-9.260179 -2.76843,-13.732332 0,0 -3.88018,2.157616 -3.88018,2.157616 z" />
    <path
       style="fill:none;stroke:#000000;stroke-width:0.295669"
       id="path21223"
       d="m 150.60236,91.17814 c 3.77506,-0.780766 7.56347,-1.499834 11.35598,-2.194871 2.70433,-0.541799 5.45738,-0.750861 8.19122,-1.092355 0,0 3.41682,-2.490414 3.41682,-2.490414 v 0 c -2.76972,0.35193 -5.56712,0.527597 -8.29746,1.138572 -3.69527,0.710708 -7.38551,1.474291 -11.11391,2.000508 0,0 -3.55265,2.63856 -3.55265,2.63856 z" />
    <path
       style="fill:none;stroke:#000000;stroke-width:0.295669"
       id="path21225"
       d="m 195.94702,93.342763 c -1.25898,-0.733412 -2.89868,-1.232341 -4.37875,-1.162205 -1.26928,0.06019 -1.79199,0.343405 -2.96084,0.760293 -2.4224,1.478089 -5.8582,2.650167 -7.55447,5.192087 -1.2004,1.798855 -1.4515,3.539492 -1.7768,5.599082 0.0213,1.62581 -0.0372,2.63315 0.27095,4.24198 0.59098,3.08511 2.06225,5.89102 3.53299,8.64449 2.42984,3.9318 5.2885,7.58351 7.9485,11.36524 1.18779,1.80374 2.27391,3.73207 2.63459,5.87538 0.0509,0.30262 0.0646,0.61012 0.0968,0.91518 -0.0174,0.27086 0.0398,0.55648 -0.0521,0.81259 -0.11105,0.3094 -0.33575,0.5698 -0.53799,0.83147 -0.96729,1.25155 -2.30809,2.14689 -3.66074,2.95077 0.91323,-0.53484 1.87864,-0.99269 2.73969,-1.60452 0.29057,-0.20648 -0.66642,0.2642 -1.00776,0.37386 -1.36767,0.4394 -2.7961,0.6813 -4.21463,0.89666 -0.39156,0.0138 -0.78299,0.0502 -1.17469,0.0412 -2.65545,-0.0611 -5.50048,-0.71979 -8.09541,-1.27184 -1.39086,-0.39784 -2.89354,-0.56208 -4.19753,-1.22103 -0.91035,-0.46003 -1.22388,-0.75845 -2.02733,-1.3718 -1.46177,-1.25554 -2.68101,-2.76452 -3.27536,-4.58967 -0.015,-0.13737 -0.0922,-0.28177 -0.0452,-0.4121 0.0264,-0.0733 0.2906,-0.12416 0.22334,-0.0826 -1.18756,0.73434 -2.43326,1.38076 -3.58812,2.16322 -0.0893,0.0605 0.21948,0.0145 0.32197,0.0497 0.39379,0.13547 0.54038,0.29551 0.87105,0.54951 1.12778,0.93416 2.03444,2.08228 2.9219,3.22845 0.58989,0.70799 1.14888,1.43857 1.71602,2.16341 0.73019,1.04083 1.93443,1.40655 3.09234,1.81979 1.64469,0.54911 3.36339,0.82194 5.07221,1.10057 1.3355,0.26201 2.69152,0.27802 4.04335,0.16856 0.20563,-0.0224 0.41125,-0.0448 0.61687,-0.0674 0,0 3.53402,-2.57138 3.53402,-2.57138 v 0 c -0.20465,0.0258 -0.40931,0.0518 -0.61395,0.0776 -1.33409,0.1458 -2.67912,0.17539 -4.00613,-0.0595 -1.69062,-0.2549 -3.38856,-0.51287 -5.01817,-1.03773 -1.06947,-0.38227 -2.22793,-0.68295 -2.89434,-1.65491 -0.5751,-0.72188 -1.15207,-1.44251 -1.76988,-2.13076 -0.92067,-1.15611 -1.83872,-2.33027 -2.95294,-3.31776 -0.11516,-0.10149 -1.15447,-0.97936 -1.3273,-0.90331 -1.49099,0.65619 -4.27768,0.94455 -4.16157,2.53765 0.0115,0.15791 0.0727,0.30856 0.10912,0.46284 0.74511,1.84812 1.98277,3.41919 3.50162,4.73483 0.60535,0.47254 1.37446,1.10971 2.05011,1.48969 1.31675,0.7405 2.89045,0.84295 4.32398,1.23682 1.65089,0.32947 3.30537,0.64711 4.96413,0.93696 0.9793,0.17113 2.12901,0.37039 3.13252,0.4436 0.39456,0.0288 0.79111,0.018 1.18665,0.0269 1.07289,-0.15971 2.13192,-0.3337 3.18854,-0.57888 0.37299,-0.0866 1.77392,-0.41151 2.1278,-0.59104 1.57703,-0.80007 3.09575,-1.70529 4.64362,-2.55793 1.48893,-0.96003 3.61053,-2.37901 4.08171,-4.18175 0.0728,-0.27871 0.003,-0.57529 0.005,-0.86292 -0.12246,-0.84014 -0.13668,-1.14908 -0.39354,-1.98623 -0.5452,-1.77687 -1.54835,-3.36695 -2.59827,-4.89508 -2.72296,-3.71915 -5.65899,-7.30623 -7.98416,-11.28622 -0.36071,-0.66141 -0.74278,-1.31213 -1.08215,-1.98423 -1.74067,-3.44742 -2.81946,-6.81477 -2.54817,-10.69849 0.11059,-0.63887 0.17072,-1.28805 0.33181,-1.91658 0.4681,-1.826269 1.30941,-3.476006 2.76136,-4.743896 0.42016,-0.366905 1.91319,-1.10892 1.36744,-0.971331 -0.80609,0.203231 -1.45799,0.785306 -2.18698,1.177953 1.0347,-0.425623 1.68622,-0.785825 2.82455,-0.889997 1.37051,-0.125408 2.94963,0.31096 4.08516,1.050656 0,0 3.76429,-2.316149 3.76429,-2.316149 z" />
    <path
       style="fill:none;stroke:#000000;stroke-width:0.295669"
       id="path21869"
       d="m 107.44851,111.61309 c 0.12585,-3.73423 0.1816,-7.46876 0.38374,-11.20068 0.24712,-4.325945 0.66437,-8.641167 0.67348,-12.976356 0.0317,-3.202725 -0.3695,-6.383726 -0.82205,-9.549013 -0.52949,-2.782902 -1.31172,-5.509519 -1.87021,-8.28738 -0.11138,-0.737912 -0.30018,-1.468146 -0.31875,-2.217174 -0.002,-0.09034 -0.0146,-0.18443 0.0126,-0.270803 0.0114,-0.03638 0.12735,-0.08757 0.094,-0.06788 -1.24622,0.735677 -2.48869,1.477396 -3.73304,2.216098 0.0888,0.07183 0.18951,0.131535 0.26636,0.215464 0.25481,0.278277 0.8569,1.132222 1.02318,1.367799 0.88645,1.255879 1.65986,2.550395 2.42108,3.881919 1.94061,3.437961 3.67502,6.978723 5.40622,10.519692 1.47842,3.104826 3.06896,6.15587 4.51486,9.275502 1.03682,2.425666 1.98689,4.885087 2.96132,7.334872 0.77191,1.86337 1.29057,3.81181 1.87247,5.73624 0.447,1.51143 0.87051,3.01956 1.12477,4.57454 0.50193,-0.63233 -0.14483,1.08148 0.13764,0.93183 1.38357,-0.73302 2.91382,-1.33822 4.00038,-2.45045 0.36957,-0.37829 -0.0641,-1.04406 -0.0759,-1.56678 -0.0365,-1.63028 0.002,-3.305 0.0241,-4.93327 -0.0222,-6.779378 0.14519,-13.557147 0.21808,-20.335787 -0.02,-5.033562 0.0231,-10.062757 0.43284,-15.082274 0.16416,-2.655598 0.68583,-5.264466 1.21426,-7.867987 0.0721,-0.298687 0.14438,-0.597375 0.21657,-0.896059 0,0 -3.91496,1.846411 -3.91496,1.846411 v 0 c -0.0602,0.297604 -0.12026,0.595207 -0.18039,0.892811 -0.46303,2.605359 -1.01348,5.205826 -1.08226,7.859176 -0.26129,4.983353 -0.16048,9.972684 -0.13408,14.960456 -0.0322,6.79966 -0.19094,13.600608 -0.35597,20.398083 -0.0573,1.86623 -0.0812,3.1747 -0.1987,5.02091 -0.0346,0.5444 -0.69627,1.61963 -0.13787,1.6308 1.40511,0.028 2.63725,-0.96061 3.90378,-1.55552 0.26993,-0.12679 -1.16732,-0.91455 -0.20576,-0.85428 -0.28546,-1.56279 -0.6595,-3.10131 -1.17303,-4.60907 -0.60138,-1.92781 -1.12155,-3.88561 -1.93752,-5.742312 -1.00745,-2.441059 -1.93025,-4.917586 -3.0465,-7.314193 -1.48714,-3.10114 -3.00432,-6.187012 -4.56975,-9.251338 -1.72883,-3.550419 -3.51769,-7.074009 -5.38253,-10.557975 -1.103,-2.03253 -2.2367,-4.067764 -3.64225,-5.919054 -1.34565,0.713389 -2.72072,1.376226 -4.03696,2.140166 -0.0283,0.01645 0.017,0.334431 0.041,0.480977 0.12074,0.736079 0.31184,1.457858 0.45604,2.189602 0.63558,2.748005 1.4026,5.468723 1.88498,8.248995 0.47608,3.128862 0.9013,6.271177 0.90301,9.441358 -9.1e-4,4.314868 -0.40306,8.612148 -0.60652,12.920504 -0.19733,3.78577 -0.22769,7.59789 -0.77023,11.35511 0,0 4.00845,-1.93368 4.00845,-1.93368 z" />
    <path
       style="fill:none;stroke:#000000;stroke-width:0.286385"
       d="m 79.038242,111.87969 c -1.410938,-0.50764 -2.576843,-1.79691 -3.049311,-3.37196 -0.490331,-1.6346 -0.718137,-14.378841 -0.314614,-17.600567 0.67818,-5.41458 2.895537,-7.413938 7.352127,-6.629296 8.87026,1.561731 13.32469,12.782347 8.55789,21.557153 -1.11296,2.04876 -3.80166,4.56597 -5.86003,5.48628 -2.01137,0.89928 -5.036373,1.15192 -6.686062,0.55839 z"
       id="path23708" />
    <path
       style="fill:none;stroke:#000000;stroke-width:0.286385"
       d="m 76.782909,115.67329 c -3.189542,-0.78674 -4.708563,-2.27482 -5.62579,-5.51117 -0.560969,-1.97934 -0.827443,-13.661638 -0.423665,-18.573633 0.482282,-5.867009 1.720412,-8.367258 4.908189,-9.911485 1.230864,-0.596259 1.745762,-0.660865 5.135372,-0.644362 3.270689,0.01592 4.072979,0.117393 6.085709,0.769703 6.30797,2.044358 11.03073,6.671269 12.7701,12.510953 1.583266,5.315575 -0.25363,11.568664 -4.65574,15.848824 -3.86864,3.76147 -8.10811,5.51121 -13.765376,5.68133 -1.832957,0.0551 -3.825916,-0.0214 -4.428799,-0.17016 z m 9.494495,-4.11386 c 7.283,-3.49339 9.87279,-13.75766 5.4662,-21.66456 -1.14018,-2.045883 -4.03084,-4.584704 -6.09309,-5.351464 -3.89139,-1.446852 -7.378683,-0.920093 -8.914623,1.346563 -1.400323,2.066515 -1.661336,4.38568 -1.553209,13.800604 0.08497,7.398817 0.163893,8.635497 0.613836,9.618637 1.199435,2.62081 2.523818,3.30579 6.139676,3.17549 2.17967,-0.0786 2.89288,-0.23056 4.34121,-0.92527 z"
       id="path23747" />
    <path
       style="fill:#666666;stroke:#000000;stroke-width:0.286385"
       d="M 15.381645,119.38308 C 8.250871,118.84135 5.8889334,117.02346 4.7941779,111.23433 4.6210348,110.31874 4.3732782,102.18156 4.227611,92.626324 4.0852324,83.28684 3.7669765,72.206817 3.5203751,68.004048 3.273774,63.801282 3.0715715,58.515983 3.0710365,56.258941 l -9.873e-4,-4.103712 0.801668,1.361597 c 0.8934488,1.517482 2.7575377,2.895307 4.3708538,3.230681 2.118931,0.440482 13.314691,0.155512 15.10378,-0.384442 0.719805,-0.21724 3.786489,-0.529035 6.814852,-0.692877 3.028366,-0.163845 6.255782,-0.480955 7.17204,-0.704696 l 1.665929,-0.406798 8.911608,4.378243 8.911615,4.378247 2.318364,2.585341 c 4.04606,4.511987 5.01689,6.088906 6.243584,10.141444 4.460319,14.735188 3.558258,24.215251 -3.144185,33.043311 -4.626013,6.09312 -11.559171,8.98031 -23.964679,9.97968 -4.770753,0.38433 -19.354865,0.58698 -22.893849,0.31812 z m 16.252437,-18.07253 c 2.981543,-0.97834 4.332628,-1.683382 6.773968,-3.534895 1.756721,-1.332293 3.925505,-3.919974 4.987247,-5.950523 1.55352,-2.971048 2.113798,-8.066242 1.251344,-11.37973 -1.319727,-5.070288 -5.005862,-9.429715 -10.015285,-11.844633 -3.250107,-1.566795 -5.808885,-2.141736 -9.56141,-2.148386 -3.919256,-0.007 -5.536561,0.512479 -7.397124,2.375712 -2.696359,2.700227 -3.115455,5.228111 -2.945729,17.767906 0.13141,9.70896 0.271638,10.644933 1.929735,12.880307 1.584039,2.135542 4.256624,2.946692 9.181342,2.786622 2.60996,-0.0848 3.695781,-0.26326 5.795912,-0.95238 z"
       id="path23786" />
    <path
       style="fill:none;stroke:#000000;stroke-width:0.286385;stroke-opacity:1"
       d="m 23.351023,97.844784 c -1.285559,-0.52907 -2.327054,-1.766982 -2.836132,-3.371002 -0.420585,-1.325196 -0.496517,-2.819595 -0.496517,-9.771869 0,-8.760531 0.212792,-10.644827 1.393365,-12.338412 1.225568,-1.758138 1.999982,-2.096046 4.787036,-2.088794 2.160284,0.0056 2.749954,0.118956 4.196469,0.806547 3.575315,1.699511 6.342718,5.4558 7.278247,9.879009 0.571946,2.704185 0.571946,3.647057 0,6.351243 -0.935939,4.425145 -3.70879,8.202309 -7.222478,9.83842 -1.367167,0.636604 -2.234246,0.829236 -4.057137,0.901331 -1.2751,0.05043 -2.644384,-0.04248 -3.042853,-0.206473 z"
       id="path23825" />
    <path
       style="fill:none;stroke:#000000;stroke-width:0.264583px;stroke-linecap:butt;stroke-linejoin:miter;stroke-opacity:1"
       d="m 44.920108,84.364466 2.677421,-5.046739 c 2.151424,-4.642655 2.797566,-0.891166 3.921314,-0.395439 l 2.502486,12.625217 c 1.651668,2.180024 -0.445532,6.234481 4.955002,6.540071 C 64.285795,96.312041 57.65512,78.700165 59.88231,78.103369 55.324696,66.584553 51.370051,66.522142 47.154689,61.506118 l -2.050203,-0.768826"
       id="path27986"
       sodipodi:nodetypes="cccccccc" />
    <path
       style="fill:none;stroke:#000000;stroke-width:0.264583px;stroke-linecap:butt;stroke-linejoin:miter;stroke-opacity:1"
       d="m 18.19556,101.99765 c 3.420279,2.27375 7.189876,1.05432 10.251019,6.91943 -4.442108,-0.0854 -8.053771,-5.15352 -13.326325,-0.25627 -0.190459,4.62276 7.601532,-0.31275 12.813774,7.17571 l -5.381785,1.0251"
       id="path27988"
       sodipodi:nodetypes="ccccc" />
    <path
       style="fill:none;stroke:#000000;stroke-width:0.264583px;stroke-linecap:butt;stroke-linejoin:miter;stroke-opacity:1"
       d="M 45.104486,60.737292 40.916113,58.6918 32.028267,57.650882 21.939364,58.6918 C 16.596007,59.010756 8.2401256,58.57658 5.9252296,59.652651 v 0 c 0.1334512,8.443401 0.2669023,12.330883 0.4003535,18.496324 l 1.921696,36.672365 1.6814839,1.52135 4.564028,0.72063 8.059452,-0.2017 20.605849,-0.27872 8.32735,-2.16191 6.886078,-3.36297 4.724169,-6.64587 2.56226,-5.524871 0.800708,-3.042687 -0.08007,-5.284663 -1.761556,-9.208127 -2.40212,-6.405655 -2.64233,-5.284664 -5.524878,-5.765088 -3.661547,-1.747894 -3.231466,-0.642383"
       id="path27990"
       sodipodi:nodetypes="cccccccccccccccccccccccc" />
    <path
       style="fill:none;stroke:#000000;stroke-width:0.264583px;stroke-linecap:butt;stroke-linejoin:miter;stroke-opacity:1"
       d="m 18.19556,101.99765 -0.980366,-1.90931"
       id="path27992" />
    <path
       style="fill:#ffcc00;stroke:#000000;stroke-width:0.264583px;stroke-linecap:butt;stroke-linejoin:miter;stroke-opacity:1"
       d="M 6.2187345,73.323219 5.9252296,59.652651 12.003604,59.150289 17.065364,59.005668"
       id="path29123"
       sodipodi:nodetypes="cccc" />
    <path
       style="fill:#ffcc00;fill-opacity:0;stroke:#000000;stroke-width:0.546602;stroke-opacity:1"
       d="m 101.25745,439.53767 c 2.63023,-0.53885 4.9391,-1.13659 5.13083,-1.32832 0.62862,-0.62862 -5.66831,-7.83187 -9.10442,-10.41484 -6.585284,-4.95025 -13.5775,-7.33146 -25.132418,-8.55888 -9.77908,-1.03879 -12.324564,-1.91438 -13.5808,-4.67153 -1.060368,-2.32725 -0.726996,-3.36992 1.69221,-5.29262 3.429265,-2.72546 4.857991,-3.52251 8.533908,-4.76083 6.054043,-2.03946 10.108501,-1.43927 21.939144,3.24772 4.35915,1.72698 9.155581,3.40294 10.658736,3.72434 3.90372,0.8347 7.37912,1.16394 7.37912,0.69906 0,-0.21923 -1.47113,-2.63168 -3.26919,-5.361 -5.520442,-8.37965 -11.087495,-12.40264 -22.14779,-16.00496 -8.170602,-2.66115 -13.690393,-5.30245 -14.417906,-6.89916 -0.864184,-1.89668 -0.821429,-1.92527 1.162811,-0.77767 7.122257,4.1192 26.02436,5.51785 40.227715,2.97661 15.21302,-2.72188 30.6301,-10.66771 41.13225,-21.19919 12.66164,-12.69701 18.11404,-24.47933 19.40805,-41.9397 l 0.38002,-5.12773 6.0676,-11.43014 c 6.00397,-11.31028 8.17809,-14.53345 9.80321,-14.53345 0.46052,0 1.75789,1.16836 2.88304,2.59636 1.12515,1.428 2.47347,2.98775 2.99627,3.46611 0.69775,0.63845 2.21325,7.17814 5.69862,24.59066 2.62391,13.1088 5.20424,24.61505 5.76771,25.71956 0.56081,1.09926 1.49521,4.69184 2.07647,7.98351 1.86438,10.55814 4.44386,13.45002 13.26405,14.87047 2.5958,0.41804 3.65743,0.37123 4.7755,-0.2106 3.33894,-1.73753 5.33584,-5.23005 6.39952,-11.19258 1.40093,-7.85303 0.66616,-17.31869 -3.08911,-39.79521 -2.54295,-15.22048 -3.0045,-22.60873 -1.48459,-23.76454 0.86639,-0.65883 0.77983,-1.07859 -1.1833,-5.73836 -7.96419,-18.90417 -16.05668,-30.63188 -28.87158,-41.84095 -7.69743,-6.73287 -15.50786,-14.17989 -15.19743,-14.49032 0.12351,-0.12351 2.2209,0.18262 4.66087,0.68028 2.95083,0.60185 6.70088,1.99954 11.19929,4.1741 l 6.76297,3.26926 10.37361,10.78172 10.37362,10.78172 4.7869,9.54994 c 2.6428,5.27243 6.86396,15.05857 9.42413,21.84848 4.59175,12.17795 4.67135,12.47541 8.11798,30.3364 3.44146,17.83413 3.48081,18.14425 3.48467,27.45763 0.004,8.73335 -0.11326,9.84861 -1.60397,15.30485 -1.01031,3.69787 -3.34905,9.60668 -6.29281,15.89869 -4.21361,9.00622 -5.57781,11.2715 -13.56032,22.51719 l -8.8754,12.50358 -13.01505,6.3021 -13.01505,6.3021 -15.68155,4.0695 -15.68154,4.0695 -33.06942,0.29543 c -32.825444,0.29325 -33.034126,0.2882 -28.28718,-0.68429 z"
       id="path29255"
       transform="scale(0.26458333)" />
    <path
       style="fill:#ffcc00;fill-opacity:0;stroke:#000000;stroke-width:0.546602;stroke-opacity:1"
       d="m 92.102409,369.55409 c -1.803786,-0.19716 -4.030282,-0.7624 -4.947768,-1.2561 -2.199114,-1.18333 -5.895004,-5.23384 -7.314546,-8.01637 -2.771579,-5.43274 -2.913621,-6.92121 -3.178035,-33.30273 -0.259845,-25.92559 0.291344,-39.95009 1.799106,-45.77658 1.66569,-6.43679 6.688301,-12.6668 11.268644,-13.97756 1.397286,-0.39986 5.405963,-0.66521 9.751724,-0.64549 8.500356,0.0386 11.904416,0.90221 18.216726,4.62171 12.68725,7.47589 21.65998,21.84407 24.69354,39.54217 2.99345,17.46407 -5.81714,39.96166 -19.8875,50.78219 -3.92385,3.01756 -10.15577,6.15591 -14.15843,7.1301 -3.8472,0.93635 -11.848662,1.37902 -16.243461,0.89866 z"
       id="path29294"
       transform="scale(0.26458333)" />
    <path
       style="fill:#ffcc00;fill-opacity:0.9518072;stroke:#000000;stroke-width:0.546602;stroke-opacity:1"
       d="m 104.31494,439.475 c 3.02896,-0.72342 3.16849,-1.29971 1.01861,-4.20709 -6.549397,-8.85707 -15.230235,-13.78037 -27.71609,-15.71906 -2.855994,-0.44345 -7.509555,-1.16852 -10.341246,-1.61127 -5.586858,-0.87353 -7.585489,-1.91351 -8.405592,-4.37382 -0.423982,-1.27195 -0.279852,-1.7484 0.902102,-2.9821 2.255071,-2.35379 6.897511,-4.89013 10.838704,-5.9216 4.915079,-1.28636 7.837043,-0.73303 20.671078,3.91441 7.676043,2.77964 11.066814,3.73478 14.074994,3.96475 2.56176,0.19584 3.96287,0.10296 3.96287,-0.26272 0,-1.35001 -6.6551,-10.51194 -9.62983,-13.25716 -4.008883,-3.6996 -7.711312,-5.68094 -16.880362,-9.03348 -7.279313,-2.66159 -12.596091,-5.06282 -12.164855,-5.49406 0.133313,-0.13331 1.325277,0.13968 2.648809,0.60665 7.64352,2.69679 25.401118,3.53141 36.188838,1.70091 11.24172,-1.90754 23.97889,-7.19679 33.31899,-13.83607 5.56802,-3.95795 13.68531,-12.01633 17.38766,-17.26146 6.70195,-9.4947 9.69279,-17.91914 10.96424,-30.88354 0.62394,-6.36204 0.6635,-6.48728 4.18697,-13.25524 4.99514,-9.5948 8.59038,-15.84922 10.21163,-17.76456 l 1.38803,-1.63981 2.98181,3.27961 c 3.4585,3.80391 3.41437,3.65433 8.78895,29.7898 1.70013,8.26735 3.71126,17.36827 4.46918,20.22427 0.75792,2.85599 1.94365,7.58753 2.63496,10.51451 1.78615,7.56249 2.33709,9.00801 4.27423,11.21431 2.2443,2.55615 5.51318,3.95368 10.15884,4.34316 4.67096,0.39159 6.81914,-0.7217 8.88398,-4.60413 4.06163,-7.63692 4.02558,-16.78268 -0.17192,-43.60523 -2.3692,-15.13953 -3.26637,-26.07546 -2.19359,-26.73847 1.08633,-0.67139 0.68111,-2.48123 -1.88979,-8.44043 -6.36597,-14.75593 -12.91276,-24.78469 -22.36116,-34.25413 -3.60757,-3.61561 -9.49569,-9.27249 -13.08471,-12.57086 -4.76867,-4.38249 -6.26214,-6.04774 -5.5473,-6.1854 1.53323,-0.29528 7.70309,1.90262 14.04587,5.00358 l 5.79929,2.83525 10.26478,10.65873 10.26478,10.65874 3.75312,7.80081 c 4.72422,9.81925 7.79035,16.99166 11.27124,26.36609 3.23872,8.72225 4.17575,12.3952 7.59868,29.78551 2.56741,13.04383 2.58227,13.18374 2.61205,24.59708 l 0.03,11.47864 -2.02439,5.84549 c -4.9333,14.24509 -10.61659,24.46776 -23.7598,42.7373 l -4.27891,5.94785 -12.9696,6.23967 -12.96961,6.23966 -15.45369,3.98912 -15.45369,3.98911 -30.06311,0.30653 c -16.5347,0.16859 -29.2409,0.11016 -28.236,-0.12985 z"
       id="path29333"
       transform="scale(0.26458333)" />
    <rect
       style="fill:#f9f9f9;stroke:#000000;stroke-width:0.282144"
       id="rect14644-7-9-2-9-1-5"
       width="3.6879134"
       height="1.4175806"
       x="59.918823"
       y="-24.263971"
       ry="0.7087903"
       inkscape:transform-center-x="0.64848917"
       inkscape:transform-center-y="1.4860137"
       transform="matrix(0.49954262,0.86628931,0.89466296,-0.44674175,0,0)"
       inkscape:export-filename="O:\OneDrive\Документы\path5765.png"
       inkscape:export-xdpi="96"
       inkscape:export-ydpi="96" />
    <path
       style="fill:#ffcc00;fill-opacity:0.951807;stroke:#000000;stroke-width:0.546602;stroke-opacity:1"
       d="m 45.792963,440.30877 c -7.834999,-1.32846 -9.348206,-2.01998 -12.784977,-5.84256 -1.119753,-1.24546 -1.264147,-3.41404 -4.780504,-71.79589 -3.685377,-71.66875 -4.210498,-85.24182 -3.352777,-86.66091 1.005982,-1.6644 38.43758,-37.46906 38.43758,-37.46906 l 15.177813,-7.00078 v 0 c 0,0 20.280862,-4.52365 28.908452,0.47152 26.64952,15.42941 28.4175,9.68452 34.42722,9.06076 l 15.86886,-2.07193 v 0 l 6.83252,2.86082 c 28.20596,11.81005 8.09001,-8.06267 8.19903,-10.62223 0.1893,-4.44436 5.12114,2.3023 9.01893,6.24519 2.40505,2.43287 6.95551,6.61454 10.11213,9.2926 14.47673,12.28196 22.40684,22.88776 30.03454,40.16848 l 3.27097,7.41046 -0.83894,2.43503 c -1.02689,2.98057 -0.59349,7.73044 2.24921,24.65068 4.40345,26.21002 4.6262,36.35573 0.95873,43.66913 -2.1201,4.22775 -3.99807,5.23272 -8.19316,4.38446 -7.1669,-1.44918 -9.75116,-4.66912 -11.3667,-14.16269 -0.48221,-2.83363 -1.44114,-6.52319 -2.13098,-8.19902 -0.69854,-1.69701 -3.28082,-13.26577 -5.82836,-26.11142 l -4.57413,-23.06445 -3.59012,-3.8557 c -2.32051,-2.49214 -4.01018,-3.85569 -4.77788,-3.85569 -2.4432,0 -4.73706,3.03283 -10.2645,13.57118 -2.99544,5.71096 -5.48764,10.34321 -5.53825,10.29388 -0.0506,-0.0493 -0.37439,-2.18003 -0.71953,-4.73489 -2.24215,-16.59731 -13.70941,-34.34553 -28.90231,-44.73303 -9.06129,-6.19526 -20.8963,-11.17882 -30.84108,-12.98674 -10.59392,-1.92593 -27.057751,-1.51688 -33.915831,0.84264 -7.987223,2.74801 -15.6616,10.84459 -18.673123,19.70043 -2.886229,8.48739 -3.289037,14.34679 -3.213382,46.74313 0.102149,43.7417 0.801686,49.2509 7.28756,57.39319 1.197362,1.50316 3.025762,4.34872 4.06311,6.32349 1.657721,3.15574 2.271845,3.79283 5.072077,5.2618 1.752294,0.91924 6.014654,2.59354 9.47191,3.72067 11.878156,3.87249 17.712622,7.81095 22.873509,15.4404 l 2.31091,3.41626 -1.52352,-0.005 c -1.52618,-0.005 -7.561354,-2.03079 -16.889437,-5.66945 -11.820129,-4.61075 -19.548997,-3.76797 -28.557391,3.11398 -2.866014,2.18949 -2.922568,2.28664 -2.664391,4.57718 0.597354,5.29971 3.328151,6.84841 14.323367,8.1231 14.939941,1.73203 21.204096,4.27083 28.711416,11.63647 4.172316,4.09357 4.534626,4.6068 3.552916,5.03277 -0.60127,0.26088 -5.151727,1.20671 -10.112138,2.10185 -8.187276,1.47743 -10.430224,1.65259 -24.323782,1.89953 -14.232739,0.25297 -15.83028,0.18294 -22.805567,-0.99976 z"
       id="path30741"
       transform="scale(0.26458333)"
       sodipodi:nodetypes="csssccsscccssssscssssssscssssssssssssssscssssssssscc" />
    <rect
       style="fill:#f9f9f9;stroke:#000000;stroke-width:0.282144"
       id="rect14644-7-9-2"
       width="3.6879134"
       height="1.4175806"
       x="-71.926704"
       y="91.811058"
       ry="0.7087903"
       inkscape:transform-center-x="0.71438472"
       inkscape:transform-center-y="-1.4554821"
       transform="matrix(-0.98385006,-0.1789946,-0.2376201,0.97135817,0,0)"
       inkscape:export-filename="O:\OneDrive\Документы\path5765.png"
       inkscape:export-xdpi="96"
       inkscape:export-ydpi="96" />
    <rect
       style="fill:#f9f9f9;stroke:#000000;stroke-width:0.282144"
       id="rect14644-7-9-2-9"
       width="3.6879134"
       height="1.4175806"
       x="81.574661"
       y="58.267738"
       ry="0.7087903"
       inkscape:transform-center-x="1.6057542"
       inkscape:transform-center-y="0.22432838"
       transform="matrix(-0.47717537,0.87880809,0.84863951,0.52897163,0,0)"
       inkscape:export-filename="O:\OneDrive\Документы\path5765.png"
       inkscape:export-xdpi="96"
       inkscape:export-ydpi="96" />
    <rect
       style="fill:#f9f9f9;stroke:#000000;stroke-width:0.282144"
       id="rect14644-7-9-2-9-15"
       width="3.6879134"
       height="1.4175806"
       x="65.349373"
       y="49.513229"
       ry="0.7087903"
       inkscape:transform-center-x="1.6057542"
       inkscape:transform-center-y="0.22432838"
       transform="matrix(-0.47717537,0.87880809,0.84863951,0.52897163,0,0)"
       inkscape:export-filename="O:\OneDrive\Документы\path5765.png"
       inkscape:export-xdpi="96"
       inkscape:export-ydpi="96" />
    <rect
       style="fill:#f9f9f9;stroke:#000000;stroke-width:0.282144"
       id="rect14644-7-9-2-9-15-0"
       width="3.6879134"
       height="1.4175806"
       x="101.19611"
       y="7.0959792"
       ry="0.7087903"
       inkscape:transform-center-x="0.68016827"
       inkscape:transform-center-y="1.4717826"
       transform="matrix(0.48087345,0.87679001,0.90402624,-0.42747697,0,0)"
       inkscape:export-filename="O:\OneDrive\Документы\path5765.png"
       inkscape:export-xdpi="96"
       inkscape:export-ydpi="96" />
    <rect
       style="fill:#f9f9f9;stroke:#000000;stroke-width:0.282144"
       id="rect14644-7-9-2-9-1"
       width="3.6879134"
       height="1.4175806"
       x="74.450645"
       y="82.238106"
       ry="0.7087903"
       inkscape:transform-center-x="1.6057542"
       inkscape:transform-center-y="0.22432838"
       transform="matrix(-0.47717537,0.87880809,0.84863951,0.52897163,0,0)"
       inkscape:export-filename="O:\OneDrive\Документы\path5765.png"
       inkscape:export-xdpi="96"
       inkscape:export-ydpi="96" />
    <rect
       style="fill:#f9f9f9;stroke:#000000;stroke-width:0.274813"
       id="rect14644-7"
       width="3.5639443"
       height="1.3916538"
       x="-29.944153"
       y="78.905159"
       ry="0.69582689"
       inkscape:transform-center-x="0.65374281"
       inkscape:transform-center-y="0.54937276"
       transform="matrix(0.68118855,-0.73210802,0.81693516,0.57672953,0,0)"
       inkscape:export-filename="O:\OneDrive\Документы\path5765.png"
       inkscape:export-xdpi="96"
       inkscape:export-ydpi="96" />
    <rect
       style="fill:#f9f9f9;stroke:#000000;stroke-width:0.285878"
       id="rect14644-7-9"
       width="3.6254263"
       height="1.4804368"
       x="-72.079628"
       y="32.248543"
       ry="0.7402184"
       inkscape:transform-center-x="-0.74253429"
       inkscape:transform-center-y="0.49558901"
       transform="matrix(-0.76058767,-0.64923524,-0.87224607,0.48906728,0,0)"
       inkscape:export-filename="O:\OneDrive\Документы\path5765.png"
       inkscape:export-xdpi="96"
       inkscape:export-ydpi="96" />
    <path
       style="fill:#666666;fill-opacity:0.951807;stroke:#000000;stroke-width:0.546602;stroke-opacity:1"
       d="m 82.897496,384.81535 c -7.90529,-1.42752 -14.790728,-4.84154 -18.318041,-9.08268 -2.246979,-2.7017 -4.670418,-7.74695 -5.749275,-11.96915 -1.769727,-6.92599 -2.080084,-14.67935 -1.84884,-46.18785 0.188439,-25.6759 0.379604,-31.7275 1.13379,-35.89162 2.916557,-16.10333 9.968427,-24.71376 22.96206,-28.03697 14.681742,-3.75495 36.39099,-0.33304 52.02036,8.19971 6.42545,3.50793 11.77852,7.56747 17.21795,13.05738 9.6157,9.70491 15.68041,21.10887 18.05486,33.95001 0.99268,5.36844 0.75109,16.31705 -0.48952,22.18463 -3.51465,16.62292 -14.42826,31.92407 -29.86388,41.86989 -7.53982,4.85822 -16.08362,8.43578 -25.4093,10.63967 -4.84898,1.14593 -7.41253,1.38836 -16.405737,1.55145 -5.862305,0.10631 -11.849297,-0.0217 -13.304427,-0.28447 z m 27.493194,-14.20586 c 16.29539,-5.57404 27.69677,-18.5752 32.9282,-37.5485 1.01909,-3.69605 1.18212,-5.7342 1.19492,-14.93872 0.0137,-9.83852 -0.0961,-11.06699 -1.42695,-15.96395 -4.31188,-15.86632 -13.93944,-28.15905 -26.93397,-34.39002 -6.58158,-3.15592 -10.41757,-4.01084 -18.037861,-4.02006 -6.212277,-0.008 -6.749123,0.0819 -10.149426,1.69085 -4.422062,2.09239 -7.293592,4.93855 -9.310578,9.22833 -3.953287,8.40795 -4.466164,14.44953 -4.176153,49.19417 0.252489,30.24919 0.420065,32.11658 3.421391,38.12621 2.434714,4.87509 5.726109,7.60579 11.469137,9.51532 3.554883,1.18199 16.57094,0.62866 21.02129,-0.89363 z"
       id="path31407"
       transform="scale(0.26458333)" />
    <path
       style="fill:#ffcc00;fill-opacity:0.951807;stroke:#000000;stroke-width:0.546602;stroke-opacity:1"
       d="m 30.11173,269.15191 c 0.12357,-0.31769 7.971754,-10.79284 17.44041,-23.27811 l 17.215739,-22.7005 9.841052,-0.33211 c 5.412579,-0.18266 18.080304,-1.19822 28.150499,-2.25679 l 18.30945,-1.92469 16.39977,1.91724 16.39977,1.91724 8.57265,4.08589 c 4.71497,2.24724 8.83498,4.08589 9.15558,4.08589 0.32061,0 0.58345,0.30747 0.58408,0.68326 5.5e-4,0.37578 1.47594,2.89699 3.27846,5.60266 2.01526,3.02503 3.27775,5.49826 3.27846,6.42258 0.001,1.33806 -0.19807,1.50315 -1.81275,1.50315 -2.42619,0 -6.55602,-1.25806 -13.51552,-4.1172 l -5.76388,-2.36795 -8.99437,1.2893 c -4.9469,0.70911 -10.40153,1.60262 -12.1214,1.98557 -2.69113,0.59921 -3.65909,0.56857 -6.94386,-0.21977 -4.30076,-1.03218 -10.34496,-3.6648 -18.24429,-7.94648 -5.64668,-3.06067 -10.46952,-4.44855 -15.517348,-4.46543 -1.56057,-0.005 -2.98942,-0.25546 -3.175221,-0.55609 -0.558644,-0.90391 -4.127243,-0.61671 -5.948105,0.47869 -0.937373,0.56392 -3.05716,1.19173 -4.710631,1.39515 -1.945227,0.23931 -5.803711,1.64348 -10.932037,3.97838 l -7.925726,3.60854 -11.106954,10.71112 C 36.871813,263.26514 29.844335,269.83937 30.11173,269.15191 Z"
       id="path32936"
       transform="scale(0.26458333)" />
    <path
       style="fill:#ffcc00;fill-opacity:0.951807;stroke:#000000;stroke-width:0.880441;stroke-opacity:1"
       d="m 24.352442,268.54781 c -0.319295,-3.05485 -0.580537,-13.76248 -0.580537,-23.79471 v -18.24044 l 3.996602,-0.54779 c 2.198132,-0.30129 9.032554,-0.76302 15.187606,-1.02607 6.155052,-0.26305 13.27306,-0.66839 15.817796,-0.90076 l 4.626794,-0.42248 -16.826143,22.23935 c -9.254378,12.23164 -17.909615,23.59111 -19.233861,25.24327 l -2.40772,3.00391 z m 17.940865,-21.20397 c 0.808567,-1.51082 0.470146,-2.6729 -1.987121,-6.82342 -3.175309,-5.36335 -6.322047,-6.87923 -8.595009,-4.14047 -1.302029,1.56885 -0.768008,3.18923 3.038094,9.21848 2.571449,4.07344 5.887511,4.84065 7.544036,1.74541 z"
       id="path33037"
       transform="scale(0.26458333)" />
    <path
       style="fill:#ffcc00;fill-opacity:0.951807;stroke:#000000;stroke-width:0.880441;stroke-opacity:1"
       d="m 38.7394,259.43313 c 0,-0.36497 5.960647,-8.51014 13.245882,-18.10039 l 13.245881,-17.43681 11.626575,-0.58795 c 6.394616,-0.32337 18.956245,-1.34332 27.914732,-2.26655 l 16.28816,-1.67859 16.72837,2.0213 c 16.38187,1.97944 16.90163,2.10633 25.09257,6.12586 7.9177,3.88544 8.54029,4.39672 11.66318,9.57801 1.81445,3.0104 3.30019,5.82245 3.30166,6.24899 0.004,1.27861 -6.08489,-0.10693 -13.36216,-3.0404 l -6.83954,-2.75702 -12.03494,1.92494 c -7.13168,1.14069 -13.32873,1.68784 -15.2105,1.34298 -1.74656,-0.32008 -8.2116,-2.96037 -14.36677,-5.86731 -13.9921,-6.60813 -23.724909,-8.70592 -30.196965,-6.5086 -2.208837,0.74992 -4.449339,1.36349 -4.978893,1.36349 -0.529553,0 -4.77484,1.61509 -9.433971,3.58908 -7.514391,3.18372 -9.3661,4.4528 -16.395114,11.23645 C 42.330859,256.8741 38.7394,260.14019 38.7394,259.43313 Z"
       id="path33113"
       transform="scale(0.26458333)" />
    <path
       style="fill:#008000;fill-opacity:0.951807;stroke:#000000;stroke-width:0.880441;stroke-opacity:1"
       d="m 107.09101,437.29337 c -0.86171,-3.43333 -8.482391,-10.69197 -14.287863,-13.60908 -5.219453,-2.62265 -11.957555,-4.41141 -24.004334,-6.37245 -4.195345,-0.68294 -7.091045,-1.66682 -8.215711,-2.79149 -1.645467,-1.64546 -1.657344,-1.82465 -0.225799,-3.40648 2.580145,-2.85104 10.147685,-6.11105 14.185697,-6.11105 2.123806,0 8.899598,1.72527 15.560211,3.96199 10.450449,3.50938 19.951899,5.15895 19.951899,3.46388 0,-2.49496 -8.75757,-13.58732 -13.107208,-16.60161 -1.97817,-1.37087 -6.712035,-3.73008 -10.5197,-5.24268 v 0 l 9.012272,-2.78258 c 14.428666,-4.45492 17.791106,8.62014 24.882906,6.25785 13.56417,-4.51824 34.62621,-7.68324 43.40747,-16.21271 3.76223,-3.65436 5.99037,-16.42397 8.73321,-20.71172 5.53225,-8.64829 9.36075,-14.13221 6.57995,-26.56226 -2.28536,-10.21545 -4.11975,-16.61135 0.37462,-22.74896 3.07952,-4.20545 3.3523,-8.17448 4.81492,-10.49855 l 2.6593,-4.22558 2.45096,2.90492 c 2.88403,3.41819 4.10689,7.47815 8.30031,27.55726 1.71924,8.23212 4.56666,20.91047 6.32759,28.17411 2.77906,11.4633 3.56706,13.57235 5.96955,15.97729 2.67901,2.68175 7.67605,4.69805 11.66832,4.70816 10.53339,0.0267 13.25746,-14.38454 8.56992,-45.33779 -1.32,-8.71637 -2.49329,-20.2581 -2.60731,-25.6483 -0.20326,-9.60919 -0.28487,-9.96413 -4.18295,-18.19305 -6.47711,-13.67331 -11.37889,-20.39482 -24.69128,-33.8576 -6.82337,-6.90046 -11.82951,-12.54201 -11.12475,-12.53679 0.70475,0.005 4.48682,1.50511 8.40461,3.33311 6.34668,2.96129 8.22959,4.47199 17.27164,13.85745 10.83592,11.24745 12.54836,13.9567 20.31169,32.13486 8.71563,20.40802 14.47383,44.91009 15.30432,65.12241 0.48175,11.72457 0.45083,11.98649 -2.27773,19.29171 -4.99984,13.38614 -9.84803,22.20116 -20.98293,38.15134 l -6.6034,9.45902 -12.78588,6.17554 c -10.47063,5.05728 -15.51182,6.87965 -27.83981,10.06395 l -15.05393,3.88841 -27.83381,0.60565 -27.8338,0.60566 z m 23.9004,-15.18176 c 3.64907,-5.48816 3.65312,-9.47997 0.01,-9.90017 -2.0169,-0.23264 -2.7963,0.37935 -5.04581,3.96198 -3.00688,4.78885 -3.44607,8.55474 -1.15314,9.88785 2.26276,1.31557 3.00154,0.8441 6.18891,-3.94966 z m 53.02074,-32.07628 c 2.17585,-2.17585 2.19477,-2.85619 0.13131,-4.7236 -1.13278,-1.02515 -3.48136,-1.53646 -7.70386,-1.67723 -5.785,-0.19284 -6.08832,-0.1033 -6.36893,1.88006 -0.16206,1.14539 0.1501,2.53209 0.69369,3.08154 0.78286,0.79131 6.68228,2.48122 10.82658,3.10131 0.36318,0.0543 1.45273,-0.6936 2.42121,-1.66208 z"
       id="path33152"
       transform="scale(0.26458333)"
       sodipodi:nodetypes="sssssssssscssssssscssssssssscsssssscsscccssssssssssssss" />
    <path
       style="fill:none;stroke:#000000;stroke-width:0.264583px;stroke-linecap:butt;stroke-linejoin:miter;stroke-opacity:1"
       d="m 45.309821,84.097539 v 0 l 2.424515,-3.722243 c 0,0 -1.726999,3.074982 0,0"
       id="path33387" />
    <path
       style="fill:none;stroke:#000000;stroke-width:0.264583px;stroke-linecap:butt;stroke-linejoin:miter;stroke-opacity:1"
       d="m 41.230687,96.082224 c 0,0 0.24542,-0.858972 0,0 z"
       id="path33389" />
  </g>
</svg>
