<?xml version="1.0" encoding="UTF-8" standalone="no"?>
<!-- Created with Inkscape (http://www.inkscape.org/) -->

<svg
   width="210mm"
   height="297mm"
   viewBox="0 0 210 297"
   version="1.1"
   id="svg5"
   inkscape:version="1.1.1 (3bf5ae0d25, 2021-09-20)"
   sodipodi:docname="рисунок.svg"
   inkscape:export-filename="O:\OneDrive\Документы\рисунок.png"
   inkscape:export-xdpi="96"
   inkscape:export-ydpi="96"
   xmlns:inkscape="http://www.inkscape.org/namespaces/inkscape"
   xmlns:sodipodi="http://sodipodi.sourceforge.net/DTD/sodipodi-0.dtd"
   xmlns="http://www.w3.org/2000/svg"
   xmlns:svg="http://www.w3.org/2000/svg">
  <sodipodi:namedview
     id="namedview7"
     pagecolor="#ffffff"
     bordercolor="#666666"
     borderopacity="1.0"
     inkscape:pageshadow="2"
     inkscape:pageopacity="0.0"
     inkscape:pagecheckerboard="0"
     inkscape:document-units="mm"
     showgrid="false"
     showguides="true"
     inkscape:guide-bbox="true"
     inkscape:zoom="1.0324176"
     inkscape:cx="488.65885"
     inkscape:cy="313.34219"
     inkscape:window-width="1920"
     inkscape:window-height="1017"
     inkscape:window-x="-8"
     inkscape:window-y="-8"
     inkscape:window-maximized="1"
     inkscape:current-layer="layer1" />
  <defs
     id="defs2" />
  <g
     inkscape:label="Слой 1"
     inkscape:groupmode="layer"
     id="layer1">
    <path
       id="path5765"
       style="fill:#f9f9f9;stroke:#000000;stroke-width:0.264583;fill-opacity:0"
       d="m 57.298799,100.72133 c -7.123942,9.46108 -22.150078,8.91451 -35.005353,9.1364 -18.2363515,0 -16.3943385,-1.14737 -16.5991605,-31.056477 -0.14753,-21.54315 -2.9235,-31.460423 1.2277,-34.539163 0.628792,6.84066 9.2206825,7.464245 14.1172655,8.401883 0,0 2.942467,-0.971138 4.362723,-1.124418 1.380434,-0.148983 8.878093,-2.450536 12.537452,-0.600048 14.547153,7.356296 14.547153,7.356296 14.547153,7.356296 7.716797,8.08282 7.352384,10.02296 7.352384,10.02296 5.182403,16.08471 3.211254,24.85044 -2.540164,32.402567 z"
       sodipodi:nodetypes="ccscsssscc"
       inkscape:export-filename="O:\OneDrive\Документы\path5765.png"
       inkscape:export-xdpi="96"
       inkscape:export-ydpi="96" />
    <path
       id="path5765-8"
       style="fill:#f9f9f9;stroke:#000000;stroke-width:0.135662;fill-opacity:0"
       d="m 42.010889,77.730323 c 0,8.90734 -7.914182,16.12816 -17.676823,16.12816 -9.76264,0 -8.886188,-6.34429 -8.886187,-15.25162 -1e-6,-8.90734 -0.876453,-17.00469 8.886187,-17.00469 9.762641,0 17.676823,7.22082 17.676823,16.12815 z"
       sodipodi:nodetypes="sssss"
       inkscape:export-filename="O:\OneDrive\Документы\path5765.png"
       inkscape:export-xdpi="96"
       inkscape:export-ydpi="96" />
    <path
       id="path5765-8-3"
       style="fill:#ffffff;stroke:#000000;stroke-width:0.0953827;fill-opacity:0"
       d="m 36.120639,77.523333 c 0,7.14926 -4.874384,12.94488 -10.887237,12.94488 -6.012863,0 -5.473054,-5.09209 -5.473054,-12.24134 0,-7.14926 -0.539809,-13.6484 5.473054,-13.6484 6.012853,0 10.887237,5.79562 10.887237,12.94486 z"
       sodipodi:nodetypes="sssss"
       inkscape:export-filename="O:\OneDrive\Документы\path5765.png"
       inkscape:export-xdpi="96"
       inkscape:export-ydpi="96" />
    <path
       id="path5765-8-9"
       style="fill:#f9f9f9;stroke:#000000;stroke-width:0.135662"
       d="m 96.325261,87.90249 c 0,8.90734 -7.914182,16.12816 -17.676823,16.12816 -9.76264,0 -8.886188,-6.34429 -8.886187,-15.25162 -1e-6,-8.90734 -0.876453,-17.00469 8.886187,-17.00469 9.762641,0 17.676823,7.22082 17.676823,16.12815 z"
       sodipodi:nodetypes="sssss" />
    <path
       id="path5765-8-3-8"
       style="fill:#f9f9f9;stroke:#000000;stroke-width:0.0953827"
       d="m 90.435011,87.6955 c 0,7.14926 -4.874384,12.94488 -10.887237,12.94488 -6.012863,0 -5.473054,-5.09209 -5.473054,-12.24134 0,-7.14926 -0.539809,-13.6484 5.473054,-13.6484 6.012853,0 10.887237,5.79562 10.887237,12.94486 z"
       sodipodi:nodetypes="sssss" />
    <path
       id="path6471"
       style="fill:#f9f9f9;stroke:#000000;stroke-width:0.289101"
       d="m 45.305825,23.711283 c 0,9.07075 1.44164,16.514488 -1.46657,21.893147 -1.19821,2.216045 -7.60025,5.697766 -11.193642,5.697766 -12.812976,0 -21.923858,3.737357 -25.9746945,-0.590572 -3.910386,-4.17787 -1.935245,-20.950713 -2.035281,-27.24092 -0.149515,-9.40145 -1.27817,-11.426087 1.68466,-14.7531984 4.1109975,-4.616446 11.9318705,-4.919041 19.5428645,-3.440072 8.627631,1.676522 19.442663,5.6258874 19.442663,18.4338494 z"
       sodipodi:nodetypes="ssssssss"
       inkscape:export-filename="O:\OneDrive\Документы\path5765.png"
       inkscape:export-xdpi="96"
       inkscape:export-ydpi="96" />
    <path
       id="path6471-3"
       style="fill:none;stroke:#000000;stroke-width:0.289101"
       d="m 45.305825,23.711283 c 0,9.07075 1.44164,16.514488 -1.46657,21.893147 -1.19821,2.216045 -7.60025,5.697766 -11.193642,5.697766 -12.812976,0 -21.923858,3.737357 -25.9746945,-0.590572 -3.910386,-4.17787 -1.935245,-20.950713 -2.035281,-27.24092 -0.149515,-9.40145 -1.27817,-11.426087 1.68466,-14.7531984 4.1109975,-4.616446 11.9318705,-4.919041 19.5428645,-3.440072 8.627631,1.676522 19.442663,5.6258874 19.442663,18.4338494 z"
       sodipodi:nodetypes="ssssssss"
       inkscape:export-filename="O:\OneDrive\Документы\path5765.png"
       inkscape:export-xdpi="96"
       inkscape:export-ydpi="96" />
    <ellipse
       style="fill:none;stroke:#000000;stroke-width:0.315351"
       id="path7745"
       cx="23.891676"
       cy="29.088942"
       rx="10.862235"
       ry="11.040721"
       inkscape:export-filename="O:\OneDrive\Документы\path5765.png"
       inkscape:export-xdpi="96"
       inkscape:export-ydpi="96" />
    <path
       style="fill:none;stroke:#000000;stroke-width:0.264583px;stroke-linecap:butt;stroke-linejoin:miter;stroke-opacity:1"
       d="m 5.4411315,32.080419 0.209193,-0.931864 c 0,0 1.093591,-6.302179 3.235835,-6.710277 l 5.7324095,-1.681507 1.690584,-1.284844"
       id="path7863"
       sodipodi:nodetypes="ccccc"
       inkscape:export-filename="O:\OneDrive\Документы\path5765.png"
       inkscape:export-xdpi="96"
       inkscape:export-ydpi="96" />
    <path
       style="fill:none;stroke:#000000;stroke-width:0.264583px;stroke-linecap:butt;stroke-linejoin:miter;stroke-opacity:1"
       d="m 33.181068,23.113742 4.794726,2.228306 c 1.382123,1.317837 4.338769,11.503456 5.182323,10.667019 l 0.06762,-4.868881 0.43174,-3.262277 -0.04224,-4.301874 -0.344019,-2.393628 -0.615779,-2.706542 -1.349986,-2.899846 -2.54304,-3.158504 -1.687035,-1.477984 -8.483511,-3.8720864"
       id="path7865"
       sodipodi:nodetypes="cccccccccccc"
       inkscape:export-filename="O:\OneDrive\Документы\path5765.png"
       inkscape:export-xdpi="96"
       inkscape:export-ydpi="96" />
    <path
       style="fill:none;stroke:#000000;stroke-width:0.264583px;stroke-linecap:butt;stroke-linejoin:miter;stroke-opacity:1"
       d="m 32.755975,50.078074 5.705294,-3.313661 2.493313,-2.254537 1.114522,-3.028807 c 0.253226,-1.12923 -1.83926,-3.566562 1.435911,-3.184819 l 0.975698,-0.213409"
       id="path9733"
       sodipodi:nodetypes="cccccc"
       inkscape:export-filename="O:\OneDrive\Документы\path5765.png"
       inkscape:export-xdpi="96"
       inkscape:export-ydpi="96" />
    <path
       style="fill:none;stroke:#000000;stroke-width:0.264583px;stroke-linecap:butt;stroke-linejoin:miter;stroke-opacity:1"
       d="m 4.6233745,31.681048 c 0,0 0,0 0,0 z"
       id="path11157"
       inkscape:export-filename="O:\OneDrive\Документы\path5765.png"
       inkscape:export-xdpi="96"
       inkscape:export-ydpi="96" />
    <path
       style="fill:none;stroke:#000000;stroke-width:0.264583px;stroke-linecap:butt;stroke-linejoin:miter;stroke-opacity:1"
       d="m 5.4411305,32.080418 0.529965,-20.987345 4.014735,-4.0147354 7.9491735,-1.124124 6.262987,0.160588 4.393874,0.952643 7.088264,2.098556 3.23732,2.4418374 4.351377,5.701808 0.862775,3.451093 0.300096,9.828111 0.04902,7.49399 -0.3116,3.909623 -3.338557,5.551758 -5.964391,2.62583 -2.11019,-0.09198 -8.955814,0.579636 -15.0797775,0.03751 -2.346022,-2.640884 -0.881053,-4.617309 z"
       id="path11762"
       sodipodi:nodetypes="ccccccccccccccccccccc"
       inkscape:export-filename="O:\OneDrive\Документы\path5765.png"
       inkscape:export-xdpi="96"
       inkscape:export-ydpi="96" />
    <ellipse
       style="fill:none;stroke:#000000;stroke-width:0.304315"
       id="path11802"
       cx="24.198683"
       cy="29.292616"
       rx="7.071888"
       ry="7.3051691"
       inkscape:export-filename="O:\OneDrive\Документы\path5765.png"
       inkscape:export-xdpi="96"
       inkscape:export-ydpi="96" />
    <path
       style="fill:none;stroke:#000000;stroke-width:0.0933124"
       d="m 42.47035,34.980973 c -0.240622,-0.463939 -1.01151,-2.290532 -1.713084,-4.059097 -1.319975,-3.327456 -2.113703,-5.08857 -2.486033,-5.515983 -0.136935,-0.157189 -1.070242,-0.642504 -2.55715,-1.329703 -1.287833,-0.595191 -2.379591,-1.08366 -2.426129,-1.085483 -0.04653,-0.0019 -0.31556,-0.322593 -0.597831,-0.712822 -1.036857,-1.433409 -2.771116,-2.807901 -4.469141,-3.542027 -2.357225,-1.019127 -5.278789,-1.149966 -7.74324,-0.346776 -1.721056,0.560911 -3.125761,1.472869 -4.721505,3.065283 l -1.122093,1.119751 -3.070794,0.88647 c -2.1377668,0.617125 -3.1730576,0.9598 -3.407362,1.127818 -0.7206509,0.516771 -1.5171155,2.062168 -2.1103616,4.094774 l -0.3140498,1.076005 0.00283,-1.399688 c 0.00159,-0.769829 0.094065,-4.937303 0.2055628,-9.261055 L 6.1426967,11.237074 8.1489184,9.2348877 10.155137,7.232701 l 4.012441,-0.5552626 4.012438,-0.5552598 2.986003,0.086349 2.986,0.086352 2.187337,0.4740275 2.187337,0.4740301 4.204573,1.9178349 c 4.075099,1.8587809 4.228533,1.9382299 4.982696,2.5800549 0.499338,0.42496 1.253427,1.249172 2.104755,2.300473 1.254382,1.549026 1.363123,1.716735 1.996567,3.079313 0.560496,1.205664 0.721866,1.669701 0.98787,2.840752 0.448067,1.972561 0.603655,3.33112 0.651878,5.692066 0.03666,1.794703 0.01376,2.264105 -0.182153,3.7325 -0.154903,1.161077 -0.227094,2.169369 -0.233838,3.26594 -0.0054,0.872472 -0.03708,1.943235 -0.07047,2.37947 l -0.06072,0.793157 z"
       id="path12213"
       inkscape:export-filename="O:\OneDrive\Документы\path5765.png"
       inkscape:export-xdpi="96"
       inkscape:export-ydpi="96" />
    <path
       style="fill:none;stroke:#000000;stroke-width:0.0933124"
       d="m 42.351103,34.449589 c -0.24474,-0.526846 -0.938906,-2.175632 -1.54259,-3.663968 -1.35564,-3.342206 -1.89444,-4.572749 -2.242576,-5.121701 -0.242391,-0.382207 -0.400926,-0.490736 -1.556518,-1.065541 -0.707649,-0.351994 -1.838266,-0.884939 -2.512478,-1.184322 -1.201256,-0.533422 -1.235363,-0.556827 -1.700723,-1.16703 -0.99555,-1.305412 -2.624685,-2.656041 -4.096411,-3.396107 -1.251617,-0.629385 -3.272153,-1.0824 -4.82772,-1.0824 -0.397401,0 -1.158192,0.06469 -1.690645,0.143748 -2.471918,0.367044 -4.234053,1.308709 -6.459926,3.452109 l -1.180682,1.136933 -0.886471,0.251849 c -2.411016,0.684977 -4.761005,1.40721 -5.1834017,1.593038 -0.2760425,0.121444 -0.6173285,0.377039 -0.8242221,0.617281 -0.4411345,0.512236 -1.0669005,1.788935 -1.5044578,3.069423 l -0.3348011,0.979781 0.056211,-2.61275 c 0.030917,-1.437015 0.094755,-4.124415 0.1418643,-5.972005 0.047109,-1.847588 0.1142894,-4.646872 0.1492911,-6.220632 l 0.06364,-2.861382 2.0149847,-2.0129549 2.0149846,-2.0129552 3.998915,-0.5574612 3.998915,-0.5574612 2.906215,0.089808 2.906213,0.089808 2.21579,0.4741836 2.21579,0.4741836 3.632239,1.6629115 c 1.997734,0.9146011 3.920014,1.8141318 4.271735,1.9989558 1.136341,0.597128 1.929604,1.362827 3.730604,3.600964 0.892908,1.109633 1.811541,2.831787 2.264757,4.245721 0.33628,1.049115 0.706347,2.945246 0.838676,4.297161 0.154114,1.574464 0.132641,4.840274 -0.04046,6.153843 -0.08116,0.615863 -0.186687,2.227837 -0.234511,3.582165 -0.04782,1.354328 -0.102769,2.47823 -0.122099,2.497561 -0.01934,0.01934 -0.23539,-0.395907 -0.480129,-0.922756 z"
       id="path12252"
       inkscape:export-filename="O:\OneDrive\Документы\path5765.png"
       inkscape:export-xdpi="96"
       inkscape:export-ydpi="96" />
    <path
       style="fill:#ffcc00;stroke:#000000;stroke-width:0.0933124"
       d="M 42.349386,34.169962 C 42.155367,33.745588 41.453213,32.075668 40.789042,30.459027 39.436633,27.167155 38.750129,25.666915 38.447004,25.340879 38.238232,25.11633 36.09716,24.01387 34.420474,23.267578 33.472747,22.845745 33.383802,22.77404 32.426243,21.659903 c -1.475229,-1.716452 -3.578711,-3.062464 -5.578729,-3.569811 -2.049118,-0.519803 -4.051286,-0.517363 -6.008084,0.0073 -1.815631,0.486828 -3.147917,1.312325 -5.225502,3.237772 l -1.166408,1.080992 -1.399688,1.140638 c -0.745667,0.607666 -1.299101,7.78732 -2.088549,8.041677 C 9.6872058,32.008334 8.8217167,32.760055 8.1599065,30.691709 7.950084,30.035958 6.7953259,26.056172 6.2728109,27.400404 l -0.3728032,0.959077 0.050154,-1.632968 C 5.9777502,25.828379 6.06837,22.028225 6.1515444,18.281725 L 6.3027697,11.46991 8.3259273,9.4369659 10.349082,7.4040213 14.31121,6.8466659 l 3.962124,-0.557358 2.89269,0.097287 2.89269,0.097285 2.186312,0.4672092 2.186313,0.4672091 2.572626,1.173607 c 4.298823,1.9610808 5.863966,2.7552698 6.538672,3.3178668 0.689448,0.574892 2.229252,2.34483 2.970249,3.414176 1.786546,2.578195 2.591872,5.541131 2.693419,9.909563 0.03762,1.618192 0.01161,2.633004 -0.09922,3.872471 -0.08261,0.923793 -0.193104,2.600301 -0.245544,3.725572 -0.05244,1.125272 -0.10976,2.060358 -0.127371,2.077966 -0.01762,0.01762 -0.190761,-0.315196 -0.38478,-0.739572 z"
       id="path12291"
       sodipodi:nodetypes="sssssssscsssscsscccccccccsssssssss"
       inkscape:export-filename="O:\OneDrive\Документы\path5765.png"
       inkscape:export-xdpi="96"
       inkscape:export-ydpi="96" />
    <path
       style="fill:#ffcc00;stroke:#000000;stroke-width:0.0933124"
       d="m 33.449554,49.917316 c 0.02421,-0.02421 1.190164,-0.711348 2.59099,-1.526956 2.367304,-1.37832 2.634573,-1.561155 3.789098,-2.592043 l 1.242142,-1.109126 0.580668,-1.539658 c 0.653526,-1.73284 0.688007,-2.008965 0.37995,-3.042716 -0.411811,-1.381921 -0.192091,-1.704985 1.108728,-1.630227 0.179626,0.01032 0.505055,-0.02133 0.723172,-0.07035 0.473147,-0.106328 0.446575,-0.303827 0.257615,1.914607 l -0.136594,1.603658 -1.648812,2.740591 -1.648812,2.740594 -2.906106,1.277831 -2.906107,1.277829 h -0.734983 c -0.404241,0 -0.715167,-0.01982 -0.690949,-0.04403 z"
       id="path12367"
       inkscape:export-filename="O:\OneDrive\Документы\path5765.png"
       inkscape:export-xdpi="96"
       inkscape:export-ydpi="96" />
    <path
       style="fill:none;stroke:#000000;stroke-width:0.264583px;stroke-linecap:butt;stroke-linejoin:miter;stroke-opacity:1"
       d="m 13.747678,33.258404 c -0.65319,2.052876 -0.279938,4.292377 -0.279938,4.292377 l 2.332812,1.306375 3.26594,0.27994"
       id="path12833"
       sodipodi:nodetypes="cccc"
       inkscape:export-filename="O:\OneDrive\Документы\path5765.png"
       inkscape:export-xdpi="96"
       inkscape:export-ydpi="96" />
    <path
       style="fill:#008000;stroke:#000000;stroke-width:0.0933124"
       d="m 16.66157,38.757122 c -0.714836,-0.06909 -0.854414,-0.120327 -1.886363,-0.692515 -1.043125,-0.578384 -1.118412,-0.639262 -1.177034,-0.951733 -0.0777,-0.414173 0.01572,-2.682639 0.125852,-3.056265 0.07995,-0.271209 0.08638,-0.264965 0.480849,0.466563 0.2199,0.407797 0.604805,1.018051 0.855347,1.356117 0.591976,0.798777 1.84893,2.001446 2.661507,2.546562 l 0.642927,0.431305 -0.465566,-0.01273 c -0.256064,-0.007 -0.812945,-0.04629 -1.237519,-0.08732 z"
       id="path12967"
       inkscape:export-filename="O:\OneDrive\Документы\path5765.png"
       inkscape:export-xdpi="96"
       inkscape:export-ydpi="96" />
    <path
       style="fill:#008000;stroke:#000000;stroke-width:0.0933124"
       d="m 8.8593405,50.357929 c -0.014949,0 -1.5363005,-0.749612 -2.390394,-2.404128 C 5.794394,46.647087 5.7466975,44.674412 5.7252927,42.442236 L 5.6259047,32.077094 5.9133533,30.77817 c 0.363638,-1.643224 0.8380994,-3.221474 0.9480311,-3.153534 0.1360964,0.08411 0.4808829,0.92661 0.9117357,2.22786 0.4814226,1.45397 0.6609662,1.829842 1.0030592,2.099884 0.3250459,0.256585 0.9181121,0.225288 1.7858237,-0.09424 0.861057,-0.317082 0.77969,-0.06283 1.881182,-5.878111 0.413163,-2.181264 0.620956,-2.564347 1.542616,-2.843924 0.253945,-0.07703 0.492123,-0.140512 0.529283,-0.141068 0.03716,-5.29e-4 -0.06057,0.216302 -0.217178,0.48191 -1.525029,2.586455 -1.888675,6.246426 -0.910521,9.164095 0.174924,0.521774 0.176618,0.577379 0.03406,1.119748 -0.174631,0.664379 -0.281533,2.897817 -0.168005,3.510058 l 0.07786,0.419907 1.211299,0.67011 1.211297,0.67011 1.166408,0.100417 c 0.641525,0.05523 1.418349,0.11965 1.726282,0.143156 0.307932,0.0235 0.96498,0.189002 1.460111,0.367773 1.366038,0.493215 2.269572,0.652267 3.718734,0.654622 1.411097,0.0024 2.280349,-0.126146 3.466188,-0.512141 3.32981,-1.083868 5.988182,-3.750895 7.085377,-7.108444 0.744773,-2.279089 0.741405,-4.943197 -0.0091,-7.183247 C 34.21784,25.04523 33.967912,24.426883 33.812493,24.119003 33.657074,23.811126 33.529915,23.541 33.529915,23.518727 c 0,-0.06834 4.234773,1.920629 4.410525,2.071521 0.29418,0.252571 1.147371,2.141815 2.450775,5.426813 1.722609,4.341527 2.225521,5.305708 2.718242,5.211387 0.159554,-0.03055 0.176651,-0.213191 0.243186,-2.59787 0.04518,-1.61939 0.139785,-3.081927 0.256609,-3.967144 0.26615,-2.016691 0.263377,-5.709846 -0.0056,-7.445467 -0.382725,-2.469711 -0.751007,-3.802134 -1.474838,-5.335913 -0.605316,-1.282647 -0.766998,-1.532335 -1.93357,-2.986 -0.803994,-1.001861 -1.590016,-1.866392 -2.133412,-2.346503 -0.848775,-0.749919 -0.897138,-0.776935 -3.58077,-2.0002973 -1.496206,-0.682064 -2.700724,-1.2597659 -2.676705,-1.2837821 0.02402,-0.024024 0.873493,0.1996863 1.887723,0.4971256 l 1.844053,0.5407951 1.621456,1.2204227 1.621457,1.220419 2.160926,2.828745 2.160924,2.828748 0.436025,1.793039 0.436023,1.793042 0.145253,4.945565 c 0.17049,5.80481 0.192617,11.948773 0.04337,12.041018 -0.05461,0.03375 -0.548005,0.09153 -1.096423,0.128405 -1.04879,0.07051 -1.335275,0.174109 -1.503707,0.543774 -0.148275,0.325432 -0.125007,0.603284 0.141912,1.694545 l 0.241867,0.988827 -0.591789,1.549739 -0.591785,1.549736 -1.189667,1.079352 c -1.127001,1.022493 -1.335421,1.164164 -3.956556,2.689384 -1.521788,0.885518 -2.918007,1.644287 -3.10271,1.686157 -0.184703,0.04187 -2.372368,0.202851 -4.861481,0.357736 -4.363172,0.271499 -4.780891,0.281566 -11.634454,0.280397 -6.6889309,-0.0011 -7.1116663,-0.01085 -7.1574525,-0.16451 z"
       id="path13043"
       sodipodi:nodetypes="ssscssssssscsssscccssscsssssssssscsssssscccccccssssscccsssscss"
       inkscape:export-filename="O:\OneDrive\Документы\path5765.png"
       inkscape:export-xdpi="96"
       inkscape:export-ydpi="96" />
    <path
       style="fill:#ffcc00;stroke:#000000;stroke-width:0.0933124"
       d="m 16.655177,38.660097 c -0.554971,-0.06443 -0.861835,-0.171995 -1.616241,-0.566515 -0.512168,-0.267838 -1.039628,-0.587458 -1.172139,-0.710264 l -0.24093,-0.223284 0.0596,-1.444398 c 0.03278,-0.794417 0.08601,-1.48712 0.11828,-1.53934 0.03227,-0.05222 0.206142,0.171291 0.386371,0.496691 0.180231,0.325401 0.455866,0.780595 0.612523,1.011542 0.390904,0.576289 1.663573,1.877727 2.397599,2.451804 0.333592,0.2609 0.646422,0.508823 0.695179,0.550936 0.105133,0.09082 -0.300577,0.08193 -1.240242,-0.02717 z"
       id="path13193"
       inkscape:export-filename="O:\OneDrive\Документы\path5765.png"
       inkscape:export-xdpi="96"
       inkscape:export-ydpi="96" />
    <path
       style="fill:#666666;stroke:#000000;stroke-width:0.0933124"
       d="M 10.710315,52.437747 C 8.4667623,52.030188 6.9261677,51.066724 6.1469671,49.583904 4.5368135,46.519775 4.1214521,40.94974 4.6477454,29.479246 4.8270641,25.571054 4.8246881,22.064644 4.6402047,18.328394 4.3580928,12.615355 4.5484129,11.347228 5.9660556,9.4941635 7.804505,7.0910404 10.501816,5.6416529 14.400877,4.9617531 c 1.013431,-0.1767178 1.521309,-0.2038482 3.872471,-0.2068644 2.806271,-0.0036 3.490801,0.048916 6.09455,0.467561 C 34.93412,6.921334 41.54918,10.982627 43.96708,17.2553 c 0.842176,2.184829 1.028848,3.373025 1.136147,7.231724 0.04638,1.667962 0.154104,4.754274 0.239387,6.858473 0.310576,7.663014 -0.04729,10.909824 -1.518999,13.781257 -0.324022,0.632196 -0.569696,0.957218 -1.115206,1.475399 -1.657424,1.57439 -4.808468,3.277264 -7.545123,4.077499 l -1.120116,0.327538 -3.125972,0.128556 c -3.688445,0.151688 -5.224928,0.27659 -10.217724,0.830596 -2.052876,0.227787 -4.23639,0.457287 -4.852252,0.509997 -1.512491,0.12945 -4.3283,0.108297 -5.136894,-0.03859 z m 17.998252,-1.919248 c 2.832777,-0.184173 4.506465,-0.253486 5.184333,-0.214701 l 1.001038,0.05727 3.035184,-1.332574 3.035186,-1.332574 1.686737,-2.811372 1.686737,-2.811373 0.148175,-1.775695 c 0.201128,-2.410299 0.186753,-8.251132 -0.03639,-14.784022 L 44.275867,20.427927 43.861728,18.828695 43.447586,17.229464 41.242551,14.33866 39.037517,11.447857 37.411009,10.227197 35.784504,9.0065364 32.16111,7.9347887 C 29.915641,7.2706131 27.703807,6.683717 26.34487,6.3914874 L 24.152024,5.9199364 20.792774,5.8679246 17.43352,5.8159154 13.669889,6.3648253 9.906257,6.9137352 7.8512489,8.9687433 5.7962408,11.023754 5.5200369,21.557875 c -0.2290127,8.734356 -0.2688775,11.51459 -0.233336,16.272843 l 0.042865,5.738722 0.438539,2.283683 c 0.4068762,2.118809 0.4592902,2.307436 0.7260007,2.612749 0.1581071,0.180991 0.7105941,0.807408 1.2277514,1.392042 l 0.9402841,1.062969 7.9315679,-0.0652 c 7.315031,-0.06014 8.256741,-0.08635 12.114858,-0.33718 z"
       id="path14088"
       inkscape:export-filename="O:\OneDrive\Документы\path5765.png"
       inkscape:export-xdpi="96"
       inkscape:export-ydpi="96" />
    <path
       style="fill:#666666;stroke:#000000;stroke-width:0.0933124"
       d="m 21.924232,39.738599 c -2.04602,-0.406537 -3.946032,-1.426112 -5.468193,-2.934319 -1.577031,-1.562573 -2.662246,-3.624244 -3.03933,-5.774071 -0.306594,-1.747946 -0.113046,-4.114199 0.461338,-5.640202 0.53685,-1.426276 1.403641,-2.831753 2.112354,-3.425121 0.254937,-0.213445 0.442563,-0.421987 0.416952,-0.463428 -0.06681,-0.108104 0.86714,-0.937837 1.61603,-1.435698 2.968098,-1.973189 6.627677,-2.345002 9.87762,-1.00357 4.337561,1.790353 7.097437,6.45133 6.579272,11.111314 -0.291706,2.623368 -1.346152,4.825426 -3.176336,6.633316 -1.618218,1.598507 -3.360999,2.5219 -5.539814,2.935214 -0.921001,0.174712 -2.952464,0.172894 -3.839893,-0.0034 z m 4.090678,-3.173081 c 2.171396,-0.58813 4.020458,-2.229866 4.864227,-4.318829 0.434266,-1.075134 0.544505,-1.673201 0.544505,-2.95407 0,-1.280866 -0.110239,-1.878933 -0.544505,-2.954067 -0.679683,-1.682732 -2.088867,-3.162023 -3.714191,-3.89898 -1.03817,-0.470728 -1.684446,-0.601858 -2.966265,-0.601858 -1.281819,0 -1.928096,0.13113 -2.966265,0.601858 -1.625322,0.736957 -3.034506,2.216248 -3.714189,3.89898 -0.434269,1.075134 -0.544505,1.673201 -0.544505,2.954067 0,1.280869 0.110236,1.878936 0.544505,2.95407 0.958665,2.373416 3.124967,4.082423 5.700673,4.49729 0.517122,0.08329 2.23425,-0.0263 2.79601,-0.178461 z"
       id="path14127"
       inkscape:export-filename="O:\OneDrive\Документы\path5765.png"
       inkscape:export-xdpi="96"
       inkscape:export-ydpi="96" />
    <rect
       style="fill:#f9f9f9;stroke:#000000;stroke-width:0.24557"
       id="rect14644"
       width="3.1924062"
       height="1.2405696"
       x="-8.7977715"
       y="18.036522"
       ry="0.6202848"
       inkscape:transform-center-x="0.57812526"
       inkscape:transform-center-y="0.49746872"
       transform="matrix(0.67250492,-0.74009265,0.81042536,0.5858419,0,0)"
       inkscape:export-filename="O:\OneDrive\Документы\path5765.png"
       inkscape:export-xdpi="96"
       inkscape:export-ydpi="96" />
    <rect
       style="fill:#f9f9f9;stroke:#000000;stroke-width:0.24557"
       id="rect14644-3"
       width="3.1924062"
       height="1.2405696"
       x="28.258221"
       y="-6.1500263"
       ry="0.6202848"
       inkscape:transform-center-x="0.56285006"
       inkscape:transform-center-y="-0.51469095"
       transform="matrix(0.81499458,0.57946857,-0.48503813,0.874493,0,0)"
       inkscape:export-filename="O:\OneDrive\Документы\path5765.png"
       inkscape:export-xdpi="96"
       inkscape:export-ydpi="96" />
    <rect
       style="fill:#f9f9f9;stroke:#000000;stroke-width:0.24557"
       id="rect14644-3-1"
       width="3.1924062"
       height="1.2405696"
       x="7.3788753"
       y="40.972645"
       ry="0.6202848"
       inkscape:transform-center-x="0.62712846"
       inkscape:transform-center-y="0.43406874"
       transform="matrix(0.74644398,-0.66544825,0.7444855,0.66763863,0,0)"
       inkscape:export-filename="O:\OneDrive\Документы\path5765.png"
       inkscape:export-xdpi="96"
       inkscape:export-ydpi="96" />
    <rect
       style="fill:#f9f9f9;stroke:#000000;stroke-width:0.24557"
       id="rect14644-3-1-3"
       width="3.1924062"
       height="1.2405696"
       x="35.994835"
       y="17.414652"
       ry="0.6202848"
       inkscape:transform-center-x="0.42761037"
       inkscape:transform-center-y="-0.63155307"
       transform="matrix(0.65775058,0.7532358,-0.67524595,0.73759264,0,0)"
       inkscape:export-filename="O:\OneDrive\Документы\path5765.png"
       inkscape:export-xdpi="96"
       inkscape:export-ydpi="96" />
    <rect
       style="fill:#f9f9f9;stroke:#000000;stroke-width:0.24557"
       id="rect14644-3-1-3-1"
       width="3.1924062"
       height="1.2405696"
       x="-16.566683"
       y="54.459854"
       ry="0.6202848"
       inkscape:transform-center-x="0.62047116"
       inkscape:transform-center-y="0.44353665"
       transform="matrix(0.73625716,-0.67670185,0.75453381,0.65626118,0,0)"
       inkscape:export-filename="O:\OneDrive\Документы\path5765.png"
       inkscape:export-xdpi="96"
       inkscape:export-ydpi="96" />
    <rect
       style="fill:#f9f9f9;stroke:#000000;stroke-width:0.24557"
       id="rect14644-3-1-3-1-6"
       width="3.1924062"
       height="1.2405696"
       x="-41.10725"
       y="39.452885"
       ry="0.6202848"
       inkscape:transform-center-x="0.11515623"
       inkscape:transform-center-y="0.75395282"
       transform="matrix(0.02889813,-0.99958236,0.99657672,-0.08267309,0,0)"
       inkscape:export-filename="O:\OneDrive\Документы\path5765.png"
       inkscape:export-xdpi="96"
       inkscape:export-ydpi="96" />
    <path
       style="fill:none;stroke:#000000;stroke-width:0.264583"
       id="path21219"
       d="m 123.60208,80.920563 c 0.29677,1.96553 0.38793,3.95074 0.46624,5.93444 0.07,2.68679 0.0914,5.37475 0.097,8.062377 -0.0336,1.9189 -0.04,3.83373 0.0625,5.75023 0.0158,0.85504 0.15254,1.69843 0.4621,2.49579 0.36683,1.08703 1.27008,1.02003 2.25225,0.96787 0.83562,-0.16556 1.022,-0.13909 1.83637,-0.62969 1.44238,-0.86892 2.9034,-1.71798 4.25784,-2.71845 0.40262,-0.2974 0.66464,-0.74953 0.97198,-1.14461 0.86324,-1.10969 0.92171,-1.30746 1.61164,-2.50991 1.18377,-2.11565 1.69434,-4.467317 2.08091,-6.833577 0.25881,-1.82546 0.56224,-3.63973 0.96791,-5.43789 0.0647,-0.29292 0.174,-0.83795 0.27863,-1.13494 0.0446,-0.12667 0.28704,-0.42965 0.16889,-0.3658 -1.0447,0.65603 -2.0894,1.31207 -3.1341,1.96811 0.0451,0.0345 0.10439,0.0558 0.13534,0.10341 0.10164,0.15631 0.17032,0.33174 0.25549,0.49761 0.83649,2.1953 1.26584,4.52519 1.76956,6.81428 0.47467,2.175857 0.95286,4.353107 1.3196,6.550277 0.12648,1.0247 0.2946,2.04339 0.41467,3.0689 0,0 3.4664,-1.82542 3.4664,-1.82542 v 0 c -0.15639,-1.01598 -0.35331,-2.02529 -0.49317,-3.04389 -0.39621,-2.18815 -0.95656,-4.345397 -1.40465,-6.523407 -0.50744,-2.3313 -0.95104,-4.68802 -1.69236,-6.95871 -0.0133,-0.0292 -0.49924,-1.20122 -0.66206,-1.13503 -3.50172,1.42344 -3.44037,1.31086 -3.90138,3.66548 -0.3674,1.79777 -0.62699,3.61237 -0.90133,5.42632 -0.38343,2.31646 -0.90558,4.614017 -2.07542,6.679077 -0.65249,1.0963 -0.80125,1.44249 -1.63173,2.43812 -0.32101,0.38484 -1.52584,1.0777 -1.02518,1.09972 0.8073,0.0355 1.44386,-0.72821 2.18567,-1.04867 0.55635,-0.24033 -1.82989,1.05065 -1.67976,0.69566 -0.45628,0.0459 -1.28386,0.25229 -1.68174,-0.11394 -0.12895,-0.11869 -0.18532,-0.31601 -0.24701,-0.4684 -0.29046,-0.75564 -0.42438,-1.5521 -0.46316,-2.36018 -0.14273,-1.88706 -0.18046,-3.77574 -0.17041,-5.668327 -0.008,-2.69118 -0.004,-5.38267 -0.10421,-8.07251 -0.0634,-2.01827 -0.13992,-4.0357 -0.29878,-6.04899 0,0 -3.49457,1.82467 -3.49457,1.82467 z" />
    <path
       style="fill:none;stroke:#000000;stroke-width:0.264583"
       id="path21221"
       d="m 147.81554,38.638344 c 0.0839,0.193011 0.17814,0.381857 0.25173,0.57903 0.31151,0.834581 0.57405,1.772777 0.80795,2.61869 0.52748,1.90764 0.83446,3.084023 1.23824,5.095097 0.24856,1.237982 0.45302,2.484422 0.67952,3.726632 1.48338,8.44526 2.10108,17.00414 2.5856,25.55436 0.28357,6.02768 0.54565,12.05774 0.51328,18.09314 0.0278,3.148087 0.0106,6.296247 -0.0184,9.444237 0,0 3.33733,-1.70336 3.33733,-1.70336 v 0 c -0.0728,-3.11631 -0.14586,-6.23272 -0.16586,-9.349937 -0.10839,-6.00769 -0.35543,-12.01336 -0.7166,-18.0111 -0.62068,-8.54689 -1.4396,-17.07788 -2.63318,-25.56565 -0.60266,-4.177759 -1.22259,-8.385279 -2.44821,-12.434904 0,0 -3.43137,1.953765 -3.43137,1.953765 z" />
    <path
       style="fill:none;stroke:#000000;stroke-width:0.264583"
       id="path21223"
       d="m 140.68165,81.347553 c 3.3384,-0.707 6.68862,-1.35813 10.04245,-1.9875 2.39153,-0.49061 4.82614,-0.67992 7.24376,-0.98915 0,0 3.02161,-2.25512 3.02161,-2.25512 v 0 c -2.44936,0.31868 -4.92319,0.47775 -7.33771,1.031 -3.26785,0.64356 -6.53125,1.335 -9.82839,1.8115 0,0 -3.14172,2.38927 -3.14172,2.38927 z" />
    <path
       style="fill:none;stroke:#000000;stroke-width:0.264583"
       id="path21225"
       d="m 180.78138,83.307663 c -1.11335,-0.66412 -2.56339,-1.11591 -3.87227,-1.0524 -1.12246,0.0545 -1.58471,0.31096 -2.61836,0.68846 -2.14221,1.33844 -5.1806,2.39978 -6.68066,4.70154 -1.06155,1.6289 -1.28361,3.20508 -1.57128,5.07008 0.0188,1.4722 -0.0329,2.384367 0.23961,3.841197 0.52262,2.79363 1.82371,5.33444 3.12433,7.82776 2.14879,3.56033 4.67679,6.86702 7.02912,10.29146 1.0504,1.63332 2.01089,3.37946 2.32985,5.32027 0.045,0.27403 0.0571,0.55248 0.0856,0.82872 -0.0154,0.24527 0.0352,0.5039 -0.0461,0.73581 -0.0982,0.28017 -0.29691,0.51597 -0.47576,0.75292 -0.85541,1.1333 -2.04112,1.94405 -3.23731,2.67198 0.8076,-0.48431 1.66134,-0.8989 2.4228,-1.45293 0.25696,-0.18697 -0.58934,0.23924 -0.8912,0.33854 -1.20947,0.39789 -2.47268,0.61693 -3.72713,0.81194 -0.34627,0.0125 -0.69242,0.0455 -1.03882,0.0373 -2.3483,-0.0553 -4.86425,-0.65178 -7.15903,-1.15167 -1.22998,-0.36026 -2.55885,-0.50898 -3.71201,-1.10567 -0.80505,-0.41657 -1.08231,-0.68679 -1.79283,-1.24219 -1.29269,-1.13692 -2.3709,-2.50333 -2.89651,-4.15604 -0.0133,-0.12439 -0.0815,-0.25515 -0.04,-0.37317 0.0233,-0.0664 0.25698,-0.11243 0.1975,-0.0748 -1.05019,0.66496 -2.15181,1.2503 -3.17309,1.95884 -0.079,0.0548 0.1941,0.0131 0.28473,0.045 0.34824,0.12267 0.47788,0.26759 0.7703,0.49759 0.99733,0.8459 1.79912,1.88555 2.58393,2.92343 0.52166,0.6411 1.01599,1.30265 1.51753,1.95901 0.64573,0.94249 1.71068,1.27366 2.73466,1.64786 1.45445,0.49723 2.97435,0.74428 4.48551,0.99659 1.18103,0.23725 2.3802,0.25175 3.57567,0.15263 0.18184,-0.0203 0.36368,-0.0406 0.54552,-0.061 0,0 3.12524,-2.32844 3.12524,-2.32844 v 0 c -0.18098,0.0234 -0.36196,0.0469 -0.54293,0.0703 -1.17978,0.13203 -2.36923,0.15882 -3.54275,-0.0539 -1.49507,-0.23082 -2.99661,-0.46442 -4.43773,-0.93969 -0.94577,-0.34615 -1.97023,-0.61842 -2.55956,-1.49855 -0.50858,-0.65368 -1.01881,-1.30622 -1.56516,-1.92945 -0.81418,-1.04688 -1.62604,-2.1101 -2.61138,-3.0043 -0.10184,-0.0919 -1.02093,-0.88683 -1.17377,-0.81796 -1.31853,0.59419 -3.78289,0.85531 -3.68021,2.29789 0.0102,0.14299 0.0643,0.27941 0.0965,0.41911 0.65892,1.67351 1.75342,3.09615 3.09659,4.28749 0.53533,0.42789 1.21548,1.00486 1.81298,1.34894 1.16444,0.67054 2.55612,0.76331 3.82383,1.11997 1.45994,0.29834 2.92305,0.58597 4.38994,0.84843 0.86603,0.15496 1.88275,0.3354 2.77019,0.40169 0.34892,0.0261 0.6996,0.0163 1.04939,0.0244 0.94879,-0.14462 1.88533,-0.30218 2.81973,-0.52419 0.32985,-0.0784 1.56873,-0.37263 1.88168,-0.5352 1.39462,-0.72448 2.73767,-1.54417 4.1065,-2.31626 1.31671,-0.86932 3.19291,-2.15424 3.60959,-3.78666 0.0644,-0.25237 0.003,-0.52093 0.004,-0.78139 -0.1083,-0.76076 -0.12087,-1.04051 -0.34802,-1.79857 -0.48214,-1.60899 -1.36926,-3.04884 -2.29774,-4.43259 -2.408,-3.36777 -5.00442,-6.61594 -7.06064,-10.2199 -0.31899,-0.59892 -0.65687,-1.18816 -0.95698,-1.79676 -1.53933,-3.12171 -2.49334,-6.170917 -2.25343,-9.687707 0.0978,-0.5785 0.15097,-1.16635 0.29343,-1.7355 0.41395,-1.65372 1.15795,-3.14759 2.44196,-4.29569 0.37156,-0.33224 1.69189,-1.00415 1.20927,-0.87956 -0.71285,0.18403 -1.28935,0.71111 -1.93402,1.06666 0.91502,-0.38541 1.49118,-0.71158 2.49784,-0.80591 1.21199,-0.11356 2.60845,0.28158 3.61264,0.95139 0,0 3.32888,-2.09732 3.32888,-2.09732 z" />
    <path
       style="fill:none;stroke:#000000;stroke-width:0.264583"
       id="path21869"
       d="m 102.51932,99.851812 c 0.11129,-3.38142 0.16059,-6.763118 0.33935,-10.142445 0.21854,-3.917227 0.58752,-7.824747 0.59558,-11.750349 0.028,-2.900132 -0.32676,-5.780593 -0.72697,-8.646824 -0.46824,-2.519974 -1.15999,-4.988981 -1.65388,-7.50439 -0.0985,-0.668195 -0.26546,-1.329436 -0.28188,-2.007696 -0.002,-0.0818 -0.0129,-0.167005 0.0111,-0.245218 0.0101,-0.03294 0.11262,-0.0793 0.0831,-0.06147 -1.102077,0.66617 -2.200833,1.337812 -3.301251,2.006721 0.07852,0.06504 0.167592,0.119108 0.235553,0.195107 0.225333,0.251986 0.757783,1.02525 0.90483,1.23857 0.783913,1.137224 1.467868,2.309434 2.141038,3.515156 1.71614,3.113143 3.24994,6.319375 4.78089,9.525794 1.30742,2.811483 2.71398,5.574265 3.99264,8.399155 0.91689,2.196489 1.75707,4.423545 2.61879,6.641875 0.68262,1.687322 1.14129,3.451672 1.65588,5.194284 0.3953,1.368629 0.76982,2.734271 0.99467,4.142338 0.44388,-0.572585 -0.12807,0.9793 0.12172,0.84379 1.22354,-0.66376 2.57679,-1.211786 3.53767,-2.21893 0.32682,-0.342551 -0.0567,-0.945417 -0.0671,-1.418749 -0.0323,-1.476253 0.002,-2.992752 0.0213,-4.46718 -0.0196,-6.138865 0.12839,-12.276272 0.19285,-18.414468 -0.0177,-4.557992 0.0204,-9.11203 0.38278,-13.657304 0.14517,-2.404698 0.6065,-4.76708 1.07381,-7.124621 0.0638,-0.270467 0.12768,-0.540935 0.19152,-0.8114 0,0 -3.46213,1.671963 -3.46213,1.671963 v 0 c -0.0532,0.269486 -0.10635,0.538972 -0.15952,0.808458 -0.40948,2.359205 -0.89626,4.713981 -0.95708,7.116643 -0.23107,4.512527 -0.14192,9.030467 -0.11857,13.546995 -0.0285,6.15723 -0.16886,12.315626 -0.3148,18.47088 -0.0507,1.689912 -0.0718,2.87475 -0.17571,4.546531 -0.0306,0.492966 -0.61574,1.466612 -0.12193,1.476722 1.24259,0.0254 2.33221,-0.869845 3.45224,-1.40855 0.23871,-0.114816 -1.0323,-0.828148 -0.18196,-0.773567 -0.25244,-1.415137 -0.58322,-2.808298 -1.03735,-4.173612 -0.53182,-1.745665 -0.99182,-3.518492 -1.71341,-5.199777 -0.89092,-2.210429 -1.70698,-4.452974 -2.69412,-6.62315 -1.31512,-2.808145 -2.65681,-5.602465 -4.04117,-8.377274 -1.52886,-3.214976 -3.11081,-6.405658 -4.75995,-9.56046 -0.97541,-1.840497 -1.97798,-3.683442 -3.22095,-5.359823 -1.190003,0.645988 -2.406025,1.246201 -3.57002,1.937964 -0.02506,0.0149 0.015,0.302834 0.03625,0.435534 0.106775,0.666535 0.275775,1.32012 0.403293,1.982729 0.56206,2.488374 1.240367,4.952039 1.666947,7.469632 0.421015,2.833248 0.79705,5.678678 0.79856,8.549341 -8e-4,3.9072 -0.356439,7.798474 -0.536364,11.699777 -0.174503,3.428097 -0.201355,6.880045 -0.681135,10.282286 0,0 3.544799,-1.75099 3.544799,-1.75099 z" />
    <path
       style="fill:none;stroke:#000000;stroke-width:0.9686"
       d="m 292.51729,378.30509 c -4.71586,-1.73735 -8.61273,-6.14979 -10.19189,-11.54031 -1.63886,-5.59434 -2.40027,-49.2107 -1.05155,-60.23686 2.26672,-18.53107 9.67792,-25.37375 24.57343,-22.68836 29.64758,5.34493 44.53588,43.7468 28.60355,73.77802 -3.71993,7.01177 -12.70651,15.62677 -19.58632,18.77645 -6.72273,3.07776 -16.83337,3.94239 -22.34722,1.91106 z"
       id="path23708"
       transform="scale(0.26458333)" />
    <path
       style="fill:none;stroke:#000000;stroke-width:0.9686"
       d="m 284.97916,391.28847 c -10.66059,-2.69259 -15.7377,-7.78543 -18.8034,-18.86166 -1.87496,-6.77416 -2.76561,-46.7561 -1.41604,-63.5671 1.61196,-20.07948 5.75023,-28.63643 16.40492,-33.92145 4.11399,-2.04066 5.83496,-2.26177 17.16425,-2.20529 10.9318,0.0545 13.61334,0.40177 20.34061,2.63426 21.08352,6.99669 36.86865,22.83201 42.68227,42.81797 5.29184,18.19223 -0.84774,39.59303 -15.56116,54.24161 -12.93037,12.8734 -27.10022,18.86179 -46.00882,19.44403 -6.1264,0.18865 -12.78758,-0.0734 -14.80263,-0.58237 z m 31.734,-14.07945 c 24.3424,-11.95592 32.99839,-47.08473 18.27001,-74.14561 -3.81091,-7.00191 -13.47254,-15.69087 -20.3653,-18.31506 -13.00641,-4.95176 -24.6622,-3.14896 -29.79586,4.60853 -4.68038,7.07252 -5.55278,15.00972 -5.19138,47.23172 0.284,25.32198 0.54779,29.55445 2.05166,32.91919 4.00894,8.96957 8.4355,11.31387 20.521,10.86792 7.28524,-0.26883 9.66904,-0.78908 14.50987,-3.16669 z"
       id="path23747"
       transform="scale(0.26458333)" />
    <path
       style="fill:none;stroke:#000000;stroke-width:0.9686"
       d="M 60.053218,413.63296 C 36.219624,411.77892 28.325183,405.5573 24.666119,385.74434 24.087413,382.61079 23.259322,354.7618 22.77245,322.0596 22.29657,290.09579 21.232845,252.17509 20.408615,237.79137 19.584386,223.40766 18.908553,205.31905 18.906765,197.59446 l -0.0033,-14.0447 2.679461,4.65998 c 2.986225,5.19349 9.216676,9.90901 14.608954,11.05681 7.082227,1.50752 44.502454,0.53223 50.48223,-1.31573 2.405847,-0.74349 12.6558,-1.81059 22.77767,-2.37133 10.12188,-0.56075 20.90906,-1.64604 23.97152,-2.41178 l 5.56813,-1.39224 29.78578,14.98427 29.7858,14.98428 7.7488,8.84817 c 13.52338,15.442 16.76824,20.83891 20.86829,34.70847 14.90798,50.43028 11.89297,82.87519 -10.50899,113.08871 -15.46179,20.85331 -38.63488,30.73455 -80.09852,34.15484 -15.94556,1.31534 -64.690875,2.0089 -76.519422,1.08875 z m 54.321452,-61.85213 c 9.96538,-3.34831 14.48119,-5.76128 22.64102,-12.09796 5.87159,-4.55969 13.12044,-13.41587 16.66916,-20.3653 5.19242,-10.16823 7.06507,-27.60622 4.18244,-38.94643 -4.411,-17.35275 -16.73138,-32.27262 -33.47466,-40.53753 -10.86302,-5.36226 -19.41537,-7.32996 -31.95765,-7.35272 -13.099553,-0.0238 -18.505163,1.75393 -24.723831,8.13073 -9.012196,9.24136 -10.412964,17.89289 -9.845679,60.80957 0.439221,33.22832 0.907912,36.43163 6.449864,44.08207 5.294425,7.30874 14.22716,10.08485 30.687327,9.53701 8.723419,-0.29034 12.352619,-0.90098 19.372009,-3.25944 z"
       id="path23786"
       transform="scale(0.26458333)" />
    <path
       style="fill:none;stroke:#000000;stroke-width:0.9686;stroke-opacity:1"
       d="m 86.689726,339.91946 c -4.296798,-1.81071 -7.777847,-6.04739 -9.479367,-11.53705 -1.405746,-4.5354 -1.659536,-9.64989 -1.659536,-33.44362 0,-29.98238 0.711225,-36.43127 4.657121,-42.22746 4.096289,-6.01712 6.684655,-7.17359 15.999988,-7.14877 7.220438,0.0192 9.191328,0.40712 14.026098,2.76036 11.94998,5.81647 21.19963,18.67214 24.3265,33.8103 1.91165,9.25491 1.91165,12.48183 0,21.73674 -3.12824,15.14479 -12.3961,28.0719 -24.1401,33.67139 -4.56956,2.17874 -7.46765,2.83801 -13.560401,3.08475 -4.261841,0.17259 -8.838477,-0.1454 -10.170303,-0.70664 z"
       id="path23825"
       transform="scale(0.26458333)" />
  </g>
</svg>
