<!DOCTYPE svg PUBLIC "-//W3C//DTD SVG 20010904//EN" "http://www.w3.org/TR/2001/REC-SVG-20010904/DTD/svg10.dtd">
<svg version="1.0" xmlns="http://www.w3.org/2000/svg" width="64px" height="64px" viewBox="0 0 640 640" preserveAspectRatio="xMidYMid meet">
<g id="layer101" fill="#474f55" stroke="none">
 <path d="M242 556 c-103 -34 -165 -123 -166 -236 -1 -266 353 -343 463 -100 70 153 -35 332 -203 346 -28 2 -70 -2 -94 -10z m106 -192 c41 -29 19 -94 -33 -94 -21 0 -55 32 -55 51 0 13 42 59 54 59 6 0 22 -7 34 -16z"/>
 </g>
<g id="layer102" fill="#8b7849" stroke="none">
 <path d="M219 507 c-29 -16 -54 -40 -74 -72 -26 -42 -30 -58 -30 -121 0 -64 3 -77 30 -115 113 -160 349 -99 381 98 13 82 -46 187 -123 220 -51 21 -133 17 -184 -10z m155 -119 c40 -35 43 -78 11 -116 -22 -26 -34 -32 -66 -32 -80 0 -115 77 -63 139 32 39 80 42 118 9z"/>
 </g>
<g id="layer103" fill="#45b980" stroke="none">
 <path d="M219 507 c-83 -44 -129 -161 -99 -252 37 -112 170 -174 278 -130 168 71 168 319 0 390 -55 22 -127 19 -179 -8z m154 -117 c50 -39 42 -117 -15 -146 -60 -31 -128 13 -128 83 0 71 85 109 143 63z"/>
 </g>
<g id="layer104" fill="#b2b24f" stroke="none">
 <path d="M418 489 c37 -37 72 -98 72 -127 0 -24 -41 -62 -67 -62 -13 0 -24 -8 -28 -20 -4 -11 -20 -27 -37 -36 -40 -21 -97 -6 -127 33 -21 26 -29 73 -12 73 5 0 16 11 25 25 12 18 -2 11 -46 -25 -34 -27 -68 -50 -75 -50 -18 0 -16 -17 6 -65 49 -105 183 -157 269 -105 42 26 89 100 97 153 3 23 11 52 17 64 20 40 -33 128 -96 160 l-31 15 33 -33z"/>
 <path d="M382 459 c2 -7 10 -15 17 -17 8 -3 12 1 9 9 -2 7 -10 15 -17 17 -8 3 -12 -1 -9 -9z"/>
 <path d="M210 430 c0 -5 11 -10 25 -10 14 0 25 5 25 10 0 6 -11 10 -25 10 -14 0 -25 -4 -25 -10z"/>
 <path d="M436 391 c-7 -11 22 -23 36 -15 6 4 5 10 -3 15 -18 11 -26 11 -33 0z"/>
 </g>
<g id="layer105" fill="#f8bf37" stroke="none">
 <path d="M448 463 c16 -21 35 -55 42 -75 13 -44 36 -53 25 -10 -8 35 -48 93 -76 110 -17 11 -15 6 9 -25z"/>
 <path d="M382 459 c2 -7 10 -15 17 -17 8 -3 12 1 9 9 -2 7 -10 15 -17 17 -8 3 -12 -1 -9 -9z"/>
 <path d="M210 430 c0 -5 11 -10 25 -10 14 0 25 5 25 10 0 6 -11 10 -25 10 -14 0 -25 -4 -25 -10z"/>
 <path d="M436 391 c-7 -11 22 -23 36 -15 6 4 5 10 -3 15 -18 11 -26 11 -33 0z"/>
 <path d="M174 327 c-18 -15 -39 -27 -47 -27 -13 0 -13 -7 -4 -42 20 -79 112 -148 200 -148 77 0 167 100 167 185 l0 36 -26 -20 c-15 -12 -32 -21 -40 -21 -7 0 -27 -14 -44 -31 -27 -28 -36 -31 -72 -26 -59 8 -92 36 -98 82 l-5 38 -31 -26z"/>
 </g>
<g id="layer106" fill="#a3ddc1" stroke="none">
 <path d="M382 459 c2 -7 10 -15 17 -17 8 -3 12 1 9 9 -2 7 -10 15 -17 17 -8 3 -12 -1 -9 -9z"/>
 <path d="M210 430 c0 -5 11 -10 25 -10 14 0 25 5 25 10 0 6 -11 10 -25 10 -14 0 -25 -4 -25 -10z"/>
 <path d="M436 391 c-7 -11 22 -23 36 -15 6 4 5 10 -3 15 -18 11 -26 11 -33 0z"/>
 <path d="M455 256 c-11 -8 -14 -15 -8 -19 6 -4 16 0 23 8 17 21 8 28 -15 11z"/>
 <path d="M160 250 c0 -5 9 -10 20 -10 11 0 20 5 20 10 0 6 -9 10 -20 10 -11 0 -20 -4 -20 -10z"/>
 <path d="M332 179 c2 -7 10 -15 17 -17 8 -3 12 1 9 9 -2 7 -10 15 -17 17 -8 3 -12 -1 -9 -9z"/>
 </g>
<g id="layer107" fill="#fde7b1" stroke="none">
 <path d="M220 430 c0 -5 7 -10 15 -10 8 0 15 5 15 10 0 6 -7 10 -15 10 -8 0 -15 -4 -15 -10z"/>
 <path d="M455 256 c-11 -8 -14 -15 -8 -19 6 -4 16 0 23 8 17 21 8 28 -15 11z"/>
 <path d="M160 250 c0 -5 9 -10 20 -10 11 0 20 5 20 10 0 6 -9 10 -20 10 -11 0 -20 -4 -20 -10z"/>
 <path d="M332 179 c2 -7 10 -15 17 -17 8 -3 12 1 9 9 -2 7 -10 15 -17 17 -8 3 -12 -1 -9 -9z"/>
 </g>
<g id="layer108" fill="#f6f9f1" stroke="none">
 <path d="M220 430 c0 -5 7 -10 15 -10 8 0 15 5 15 10 0 6 -7 10 -15 10 -8 0 -15 -4 -15 -10z"/>
 <path d="M165 250 c3 -5 13 -10 21 -10 8 0 14 5 14 10 0 6 -9 10 -21 10 -11 0 -17 -4 -14 -10z"/>
 </g>

</svg>